<svg width="50" height="50" viewBox="0 0 50 50" fill="none" xmlns="http://www.w3.org/2000/svg">
<path fill-rule="evenodd" clip-rule="evenodd" d="M16.2682 11.2466C15.8194 11.4614 15.5841 11.6592 14.4488 12.7754C12.7708 14.4253 12.4538 14.8513 12.1345 15.885C11.9565 16.4613 11.9548 18.1681 12.1315 18.9777C12.4806 20.5781 13.0229 22.0092 13.9786 23.852C15.566 26.9128 18.3304 30.3325 21.0125 32.5531C21.2058 32.7132 21.5065 32.9625 21.6808 33.1071C23.1172 34.2992 25.8715 35.9663 27.7707 36.7932C27.9643 36.8775 28.2196 36.9902 28.338 37.0437C28.8126 37.2581 30.14 37.6572 30.9167 37.8191C32.0268 38.0505 33.4026 38.0611 34.1172 37.8439C35.0511 37.5598 35.4106 37.2981 36.8527 35.8524C38.1954 34.5062 38.3702 34.3176 38.5919 33.974C38.7929 33.6626 39 32.9546 39 32.5784C39 32.1414 38.7773 31.4593 38.5063 31.066C38.253 30.6984 34.4793 26.9238 34.1429 26.7016C33.7849 26.465 33.116 26.2525 32.7294 26.2525C32.2764 26.2525 31.6318 26.4626 31.2135 26.7465C31.0237 26.8753 30.3748 27.4658 29.7715 28.0586L28.6746 29.1365L28.2761 28.9242C25.6259 27.5123 22.488 24.4273 21.1465 21.9149L20.8007 21.2675L21.9726 20.0874C22.6171 19.4384 23.2218 18.7809 23.3163 18.6263C23.8748 17.7124 23.8498 16.6346 23.2494 15.7513C23.1417 15.5929 22.1666 14.5758 21.0823 13.491C19.3032 11.711 19.0604 11.4934 18.5912 11.2594C18.1057 11.0172 18.0287 11 17.4275 11C16.8364 11 16.7416 11.0202 16.2682 11.2466ZM18.1158 12.6828C18.276 12.7941 19.2345 13.7183 20.2459 14.7366C22.2075 16.7115 22.3 16.8365 22.2229 17.4096C22.1682 17.8169 21.9427 18.0966 20.6271 19.3889C19.3542 20.6392 19.2323 20.8216 19.3168 21.3491C19.4244 22.0213 20.6294 24.0655 21.4689 25.0002C21.5274 25.0652 21.7177 25.2927 21.892 25.5056C22.3574 26.0745 24.2386 27.9158 24.8484 28.3996C25.7718 29.1319 26.6204 29.7053 27.4662 30.1678C28.9426 30.9755 28.9323 30.9785 30.6936 29.2403C31.856 28.0932 32.1159 27.8704 32.3722 27.8015C32.7159 27.7091 33.0243 27.7546 33.3325 27.9432C33.7097 28.1741 37.215 31.7506 37.3732 32.066C37.551 32.4207 37.5593 32.8144 37.3954 33.1159C37.3293 33.2377 36.6732 33.9526 35.9375 34.7049C34.761 35.9076 34.5404 36.1012 34.107 36.3109C33.622 36.5456 33.5996 36.5492 32.6989 36.5449C32.0332 36.5417 31.6013 36.4996 31.1148 36.3904C30.4914 36.2504 29.5022 35.9545 29.1787 35.8113C29.1013 35.777 28.8637 35.6779 28.6507 35.5911C27.5428 35.1397 25.6193 34.0964 24.3913 33.2809C21.0136 31.0377 17.7706 27.5578 15.6771 23.9296C15.2881 23.2556 14.5 21.6741 14.4992 21.5659C14.4989 21.5341 14.4558 21.4258 14.4032 21.3252C14.3507 21.2247 14.211 20.8609 14.0929 20.5169C13.2874 18.1708 13.2299 16.5943 13.9106 15.5188C14.103 15.2147 16.0601 13.1796 16.5895 12.733C17.0257 12.365 17.6302 12.3451 18.1158 12.6828Z" fill="#62736F"/>
<path fill-rule="evenodd" clip-rule="evenodd" d="M25 49C38.2548 49 49 38.2548 49 25C49 11.7452 38.2548 1 25 1C11.7452 1 1 11.7452 1 25C1 38.2548 11.7452 49 25 49ZM25 50C38.8071 50 50 38.8071 50 25C50 11.1929 38.8071 0 25 0C11.1929 0 0 11.1929 0 25C0 38.8071 11.1929 50 25 50Z" fill="#62736F"/>
</svg>
