<svg width="599" height="599" viewBox="0 0 599 599" fill="none" xmlns="http://www.w3.org/2000/svg">
<path fill-rule="evenodd" clip-rule="evenodd" d="M351.673 85.9468C351.673 85.9468 283.248 50.0261 228.228 88.838C173.12 127.738 170.842 136.411 133.169 152.619C95.4965 168.827 74.6449 226.213 84.6326 250.306C94.6203 274.312 111.267 304.45 113.194 321.797C115.034 339.232 112.844 410.197 112.844 410.197L146.486 442.701C146.486 442.701 198.177 469.598 269.493 446.468C340.809 423.251 400.122 436.656 422.112 429.91C444.103 423.076 465.48 378.219 465.48 378.219C465.48 378.219 458.121 313.474 467.407 292.622C476.694 271.683 496.757 257.227 496.757 257.227C496.757 257.227 521.026 223.585 485.631 192.307C450.323 161.03 408.007 109.164 351.673 85.9468Z" fill="#C7D6C1" fill-opacity="0.5"/>
<path fill-rule="evenodd" clip-rule="evenodd" d="M88.2246 258.541C98.1247 280.882 111.529 306.377 113.194 321.797C115.034 339.232 112.843 410.197 112.843 410.197L146.486 442.701C146.486 442.701 198.177 469.598 269.493 446.468C340.809 423.251 400.122 436.656 422.112 429.91C444.103 423.076 465.48 378.219 465.48 378.219C465.48 378.219 458.121 313.474 467.407 292.622C476.694 271.683 496.757 257.227 496.757 257.227C496.757 257.227 499.473 253.548 501.751 247.415C486.769 233.222 465.392 217.802 437.795 210.706C379.183 195.636 279.568 272.735 279.568 272.735C279.568 272.735 241.282 222.358 184.51 218.24C147.888 215.612 110.303 240.493 88.2246 258.541Z" fill="#84AEA4" fill-opacity="0.62"/>
<path fill-rule="evenodd" clip-rule="evenodd" d="M283.073 452.075C283.073 452.075 280.006 476.256 280.006 478.271C280.006 480.286 287.278 490.537 287.278 490.537L307.078 492.114L318.468 486.419C318.468 486.419 311.371 475.555 310.232 468.284C309.181 460.924 308.48 455.668 308.48 455.668L283.073 452.075Z" fill="#EDB9A9"/>
<path fill-rule="evenodd" clip-rule="evenodd" d="M316.453 483.09C314.262 479.323 310.933 473.015 310.232 468.284C309.969 466.006 309.619 463.991 309.356 462.238C308.83 461.187 308.568 460.486 308.655 460.486C309.093 460.486 299.368 462.764 299.368 462.764C299.368 462.764 293.148 468.196 297.791 478.622C302.435 489.047 313.036 486.244 313.036 486.244L316.453 483.09Z" fill="#FFE1D7"/>
<path fill-rule="evenodd" clip-rule="evenodd" d="M321.359 438.846L321.008 464.078C321.008 464.078 333.8 478.096 348.606 479.585C363.325 480.987 373.838 475.731 373.838 475.731C373.838 475.731 362.449 469.598 358.506 464.166C354.564 458.734 349.92 455.843 349.832 444.979C349.657 434.115 321.359 438.846 321.359 438.846Z" fill="#EDB9A9"/>
<path fill-rule="evenodd" clip-rule="evenodd" d="M366.742 478.184C371.21 477.045 373.838 475.731 373.838 475.731C373.838 475.731 362.449 469.598 358.506 464.166C354.739 458.822 350.271 456.018 349.833 446.03C342.649 449.097 335.903 452.601 336.516 454.353C337.83 457.945 342.824 458.296 350.008 466.969C353.775 471.613 360.434 475.731 366.742 478.184Z" fill="#FFE1D7"/>
<path fill-rule="evenodd" clip-rule="evenodd" d="M280.795 470.123C280.795 470.123 282.46 479.41 288.68 484.141C294.9 488.872 306.816 488.872 310.495 487.558C314.175 486.156 316.54 483.44 316.54 483.44C316.54 483.44 321.885 490.537 322.06 496.67C322.235 502.802 322.06 505.256 312.423 508.41C302.785 511.564 287.891 510.512 283.336 508.497C278.868 506.394 275.451 502.102 275.801 498.772C276.152 495.443 280.795 470.123 280.795 470.123ZM319.782 457.945C319.782 457.945 317.066 466.794 317.241 473.453C317.504 480.111 316.453 483.177 320.571 485.28C324.776 487.383 348.168 493.603 348.168 493.603C348.168 493.603 379.27 499.999 388.908 496.319C398.545 492.639 396.705 489.223 394.339 486.331C392.062 483.44 382.074 479.235 381.548 478.709C381.023 478.184 371.473 474.942 371.473 474.942C371.473 474.942 364.99 479.673 355.09 478.096C345.189 476.607 336.603 472.401 330.558 468.809C324.513 465.217 319.782 457.945 319.782 457.945Z" fill="#67A39F"/>
<path fill-rule="evenodd" clip-rule="evenodd" d="M280.795 470.123C280.795 470.123 282.284 478.534 287.804 483.44C283.336 491.238 287.278 503.328 290.169 509.987C287.191 509.636 284.825 509.11 283.336 508.497C278.867 506.395 275.451 502.102 275.801 498.772C276.152 495.443 280.795 470.123 280.795 470.123ZM318.468 486.419C318.643 486.682 318.818 487.032 318.994 487.295C318.818 487.032 318.643 486.77 318.468 486.419ZM348.343 493.691C347.029 488.96 344.05 481.075 337.392 472.489C334.851 471.262 332.573 470.036 330.558 468.809C324.513 465.217 319.782 457.945 319.782 457.945C319.782 457.945 317.066 466.794 317.241 473.453C317.504 480.111 316.453 483.177 320.571 485.28C324.776 487.383 348.168 493.603 348.168 493.603L348.343 493.691Z" fill="#02968D"/>
<path fill-rule="evenodd" clip-rule="evenodd" d="M302.084 488.259C305.676 488.434 308.83 488.171 310.495 487.558C314.175 486.156 316.54 483.44 316.54 483.44C316.54 483.44 317.066 484.141 317.679 485.192C317.942 485.631 318.205 485.981 318.468 486.419C320.045 489.047 321.972 492.99 322.06 496.67C322.235 502.802 322.06 505.255 312.422 508.41C310.144 509.11 307.516 509.636 304.8 509.987C306.552 508.234 308.655 505.606 309.268 502.189C310.495 495.881 303.924 489.836 302.259 488.96C302.084 488.872 301.997 488.609 302.084 488.259ZM389.783 495.969C388.995 493.516 387.33 490.449 383.651 487.821C377.868 483.528 366.917 480.286 361.134 478.359C367.53 477.745 371.473 474.942 371.473 474.942C371.473 474.942 381.022 478.184 381.548 478.709C382.074 479.235 392.061 483.44 394.339 486.331C396.617 489.135 398.457 492.377 389.783 495.969Z" fill="#84AEA4"/>
<path fill-rule="evenodd" clip-rule="evenodd" d="M374.714 297.791C374.714 297.791 374.539 320.132 374.276 322.848C374.101 325.564 366.479 362.536 366.479 362.536L359.82 399.859C359.82 399.859 377.08 403.1 384.439 395.916C391.886 388.82 395.303 370.684 395.303 370.684C395.303 370.684 397.844 344.926 395.04 330.909C392.324 316.803 390.66 303.924 388.031 298.317C385.403 292.622 384.527 290.87 384.527 290.87L374.714 297.791Z" fill="#84AEA4"/>
<path fill-rule="evenodd" clip-rule="evenodd" d="M388.557 390.397C393.201 382.074 395.303 370.684 395.303 370.684C395.303 370.684 397.844 344.926 395.04 330.909C392.324 316.803 390.66 303.924 388.031 298.317C385.403 292.622 384.527 290.87 384.527 290.87L378.832 294.9C378.569 295.338 378.394 295.864 378.131 296.39C378.131 296.39 383.388 313.737 384.264 319.957C385.14 326.178 387.593 332.31 386.98 336.165C386.454 340.108 388.732 344.05 388.908 348.518C388.995 352.987 390.572 361.222 390.046 363.851C389.521 366.391 390.222 371.297 389.346 371.385C388.469 371.473 384.089 362.186 382.862 359.558C381.636 356.842 379.533 353.688 379.533 353.688C379.533 353.688 376.379 361.222 375.591 362.098C374.89 362.974 378.832 373.751 379.27 376.642C379.708 379.533 382.775 378.044 383.914 383.3C384.527 386.279 386.367 389.083 388.557 390.397Z" fill="#67A39F"/>
<path fill-rule="evenodd" clip-rule="evenodd" d="M186.35 411.774C186.35 411.774 192.833 399.508 197.651 396.267C202.47 393.025 206.5 388.82 206.5 388.82L236.201 343.525C236.201 343.525 266.427 307.429 276.327 298.405C286.227 289.468 291.483 284.212 303.399 281.758C315.314 279.305 324.163 284.387 326.178 287.19C328.105 290.082 341.51 269.931 359.645 277.904C377.693 285.876 375.503 309.093 374.802 320.658C374.189 332.31 367.705 362.186 367.18 362.011C366.654 361.923 353.337 433.064 353.337 438.671C353.337 444.365 351.935 446.118 348.256 447.782C344.576 449.535 321.271 445.592 321.271 445.592L321.009 450.761L312.16 450.323C312.16 450.323 312.51 456.543 309.707 458.208C306.991 459.873 295.338 459.873 291.133 459.347C286.928 458.821 280.357 456.018 279.568 455.229C278.78 454.441 277.816 451.988 277.816 451.988C277.816 451.988 256.789 457.42 234.624 452.513C212.458 447.607 189.416 430.523 186.35 411.774Z" fill="#FFDF8C"/>
<path fill-rule="evenodd" clip-rule="evenodd" d="M366.216 366.041C363.062 381.022 353.337 433.852 353.337 438.671C353.337 444.366 351.936 446.118 348.256 447.782C346.854 448.483 342.561 448.308 337.83 447.782C340.809 444.891 343.7 441.562 343.7 439.985C343.7 436.831 348.694 407.656 349.92 403.188C351.235 398.72 351.235 395.391 352.461 389.433C353.425 384.089 362.011 364.639 366.216 366.041Z" fill="#F2D97E"/>
<path fill-rule="evenodd" clip-rule="evenodd" d="M369.02 354.827C368.056 359.207 367.355 362.098 367.18 362.011C367.092 362.011 367.005 362.449 366.829 363.15L366.479 363.675C366.479 363.675 344.226 361.748 340.458 365.778C336.691 369.896 337.567 376.992 336.253 380.847C334.939 384.79 330.558 431.311 329.419 438.934C329.069 442 329.156 444.628 329.419 446.819C324.863 446.205 321.271 445.592 321.271 445.592L321.184 447.344L317.417 445.329C317.417 445.329 319.081 396.617 318.03 396.53C316.891 396.442 327.054 335.464 327.054 335.464C327.054 335.464 329.595 313.474 329.419 306.377C329.332 299.281 332.31 288.417 332.31 288.417C333.449 289.906 339.67 299.456 340.283 306.29C340.809 313.036 342.999 324.075 342.999 324.075C342.999 324.075 360.609 323.111 362.361 325.126C363.675 326.791 367.443 346.503 369.02 354.827Z" fill="#FFDF8C"/>
<path fill-rule="evenodd" clip-rule="evenodd" d="M315.576 450.411L312.16 450.323C312.16 450.323 312.51 456.543 309.706 458.208C308.918 458.646 307.516 458.997 305.676 459.172C302.259 459.61 298.93 459.61 297.791 459.61H297.704C297.791 459.61 302.96 455.843 303.398 450.498C303.836 445.154 314.35 404.502 316.628 408.532C318.555 411.949 316.277 439.109 315.576 450.411Z" fill="#F2D97E"/>
<path fill-rule="evenodd" clip-rule="evenodd" d="M186.35 411.774C186.35 411.774 192.833 399.508 197.651 396.267C202.47 393.025 206.5 388.82 206.5 388.82L208.691 385.403C228.053 383.037 257.315 379.883 259.593 381.898C263.097 384.965 277.29 379.883 277.29 379.883C277.29 379.883 292.097 383.037 293.323 382.249C294.55 381.46 317.854 386.367 317.854 386.367L320.658 393.638C320.658 393.638 299.719 396.968 295.426 404.327C291.045 411.774 295.689 418.257 293.498 425.179C291.308 432.187 293.674 446.205 293.236 451.988C292.973 454.791 293.411 457.507 293.849 459.522C292.798 459.522 291.834 459.435 291.133 459.347C286.928 458.821 280.357 456.018 279.568 455.229C278.78 454.441 277.816 451.988 277.816 451.988C277.816 451.988 256.789 457.42 234.624 452.513C212.458 447.607 189.416 430.523 186.35 411.774ZM229.805 353.249L236.201 343.525C236.201 343.525 238.741 340.546 242.596 335.99C243.122 338.268 244.962 343.7 250.043 345.978C256.526 348.869 266.076 352.373 266.076 352.373L264.061 357.367C264.061 357.367 233.572 356.141 229.805 353.249Z" fill="#FFDF8C"/>
<path fill-rule="evenodd" clip-rule="evenodd" d="M357.805 277.203C358.419 277.378 359.032 277.641 359.645 277.904C377.693 285.876 375.503 309.093 374.802 320.658C374.802 322.06 374.627 323.724 374.364 325.564L363.237 325.126C363.237 325.126 363.675 309.707 362.712 305.326C361.835 300.945 363.15 299.018 354.389 297.353C345.715 295.689 344.839 281.758 344.839 281.758C349.657 279.042 353.863 277.378 357.805 277.203Z" fill="#F2D97E"/>
<path fill-rule="evenodd" clip-rule="evenodd" d="M301.383 282.284C302.084 282.109 302.698 281.934 303.398 281.759C315.314 279.306 324.162 284.387 326.177 287.191C326.528 287.716 327.229 287.453 328.28 286.84C329.331 288.505 329.769 289.731 329.769 289.731C329.769 289.731 330.646 303.837 330.646 308.743C330.646 313.649 322.235 366.654 322.235 366.654C322.235 366.654 314.262 361.573 309.268 357.981C312.16 357.805 314.087 357.805 313.737 358.244C312.685 359.733 315.839 349.395 315.226 345.189C314.7 340.984 317.767 335.64 318.03 326.616C318.292 317.679 318.292 308.831 318.468 305.239C318.555 301.646 317.504 298.755 311.021 297.704C307.779 297.178 303.924 297.529 300.858 298.054C298.142 294.988 300.77 285.263 301.383 282.284Z" fill="#F2D97E"/>
<path fill-rule="evenodd" clip-rule="evenodd" d="M291.133 359.47C291.133 359.47 287.015 381.11 287.979 382.424C289.03 383.738 297.616 383.563 303.749 386.016C309.794 388.469 318.643 391.536 318.643 391.536L319.256 395.04C319.256 395.04 324.25 395.215 325.477 393.025C326.703 390.922 326.791 387.768 328.368 385.929C329.857 384.001 328.543 380.146 328.981 378.394C329.419 376.729 330.383 374.89 329.507 372.962C328.543 371.035 328.894 366.391 326.003 364.201C323.024 362.098 319.344 358.594 319.344 358.594C319.344 358.594 314.613 351.147 307.078 353.95C299.544 356.666 294.024 360.083 291.133 359.47Z" fill="#EDB9A9"/>
<path fill-rule="evenodd" clip-rule="evenodd" d="M306.816 387.243C312.423 389.433 318.643 391.536 318.643 391.536L319.256 395.04C319.256 395.04 324.25 395.215 325.477 393.025C326.703 390.922 326.791 387.768 328.368 385.929C329.857 384.001 328.543 380.146 328.981 378.394C329.419 376.729 330.383 374.89 329.507 372.962C328.543 371.035 328.894 366.391 326.002 364.201C323.024 362.098 319.344 358.594 319.344 358.594C319.344 358.594 314.613 351.147 307.078 353.95C304.1 355.002 301.471 356.228 299.193 357.192C298.317 357.542 296.565 381.022 306.816 387.243Z" fill="#FFE1D7"/>
<path fill-rule="evenodd" clip-rule="evenodd" d="M349.307 327.141C349.307 327.141 355.527 323.724 363.85 323.9C372.174 323.987 377.343 329.244 377.956 330.558C378.569 331.872 379.971 339.757 379.971 344.839C379.971 349.92 379.971 355.965 376.992 360.258C374.101 364.464 370.509 366.654 369.02 367.092C367.443 367.53 365.953 367.267 365.953 367.267C365.953 367.267 367.618 360.521 365.34 359.645C362.974 358.857 355.615 358.156 351.935 356.228C348.168 354.388 349.657 351.672 349.657 351.672C349.657 351.672 346.153 350.709 346.065 347.905C346.065 345.102 347.204 342.911 347.204 342.911C347.204 342.911 342.824 340.283 343.787 337.742C344.664 335.201 348.168 334.063 348.168 334.063C348.168 334.063 346.065 328.981 349.307 327.141Z" fill="#EDB9A9"/>
<path fill-rule="evenodd" clip-rule="evenodd" d="M368.494 324.513C374.101 326.002 377.43 329.507 377.956 330.558C378.569 331.872 379.971 339.757 379.971 344.839C379.971 349.92 379.971 355.965 376.992 360.258C374.101 364.464 370.509 366.654 369.019 367.092C367.442 367.53 365.953 367.267 365.953 367.267C365.953 367.267 367.18 362.011 365.953 360.171C366.654 360.784 370.859 353.6 370.684 352.899C370.421 352.111 367.18 350.621 367.18 350.621C367.18 350.621 365.34 349.219 365.515 346.241C365.69 343.174 370.071 342.21 367.618 340.546C365.165 338.881 362.273 331.785 364.376 331.171C366.479 330.471 370.421 332.573 370.421 332.573C370.421 332.573 369.72 331.609 368.231 328.28C367.618 326.703 367.968 325.477 368.494 324.513Z" fill="#FFE1D7"/>
<path fill-rule="evenodd" clip-rule="evenodd" d="M275.188 237.515C275.188 237.515 239.968 237.427 227.79 246.101C222.709 249.605 213.509 258.103 205.887 269.405C194.848 285.789 185.474 307.253 182.145 320.921C176.625 344.05 173.646 363.675 177.413 384.352C181.093 405.028 186.35 411.774 186.35 411.774C186.35 411.774 195.637 398.808 200.192 394.865C204.748 390.835 208.078 388.907 208.078 388.907C208.078 388.907 221.044 391.098 236.464 390.747C251.883 390.397 270.457 387.243 273.961 386.717C277.466 386.104 286.227 386.191 286.227 386.191L288.067 379.708L291.221 358.769C291.221 358.769 257.666 355.44 249.255 355.352C240.844 355.177 230.857 353.074 230.857 353.074C230.857 353.074 234.273 346.503 235.588 344.401C236.989 342.298 258.191 318.468 260.294 315.577C262.397 312.598 280.445 293.498 286.227 289.468C292.009 285.438 297.091 282.722 297.178 283.336C297.354 283.949 275.188 237.515 275.188 237.515Z" fill="#84AEA4"/>
<path fill-rule="evenodd" clip-rule="evenodd" d="M253.373 238.917C243.735 240.055 233.31 242.158 227.79 246.101C222.709 249.605 213.509 258.103 205.887 269.405C196.6 283.248 188.452 300.595 184.159 313.912C181.969 328.631 181.181 342.473 182.144 352.023C184.773 378.482 205.887 369.195 212.984 370.509C220.08 371.823 224.986 372.436 230.856 369.808C236.639 367.18 256.001 370.859 266.777 369.633C274.487 368.844 284.562 369.983 289.556 369.721L291.221 358.769C291.221 358.769 257.666 355.44 249.255 355.352C240.844 355.177 230.856 353.074 230.856 353.074L231.557 351.76C224.986 351.497 216.839 352.899 216.839 352.899C216.839 352.899 210.881 354.651 206.588 353.337C202.207 352.111 204.748 344.488 204.923 334.325C205.011 324.163 207.464 314.876 208.515 306.027C209.479 297.266 223.322 281.145 224.724 280.006L257.928 248.729L253.373 238.917Z" fill="#67A39F"/>
<path fill-rule="evenodd" clip-rule="evenodd" d="M283.511 243.209C283.511 243.209 279.568 263.711 283.248 271.771C286.927 279.919 296.039 284.212 296.039 284.212C296.039 284.212 315.051 279.568 319.344 280.006C323.724 280.444 349.832 279.393 349.832 279.393C349.832 279.393 375.941 263.886 373.663 256.351C371.297 248.817 361.572 222.007 361.572 222.007C361.572 222.007 353.074 216.225 327.842 224.023C302.61 231.908 283.511 243.209 283.511 243.209Z" fill="#EDB9A9"/>
<path fill-rule="evenodd" clip-rule="evenodd" d="M325.827 224.636V224.723C325.827 224.723 324.338 231.207 328.368 235.149C332.486 239.179 335.202 239.705 339.144 241.019C340.371 241.72 340.984 243.56 340.721 244.962C340.371 246.363 334.851 253.898 331.96 254.862C329.156 255.913 327.229 257.052 329.945 259.33C332.661 261.608 337.655 256.702 338.268 256.088C338.794 255.475 342.911 249.167 344.664 247.327C346.503 245.487 352.286 243.91 352.286 243.91C356.228 244.085 360.083 243.385 362.536 240.581C368.143 233.923 356.316 223.409 356.316 223.409L325.827 224.636ZM331.347 245.925C331.347 245.925 325.74 240.844 322.848 241.194C319.957 241.632 319.519 246.013 324.075 248.466C328.543 250.919 333.537 248.992 331.347 245.925ZM350.008 262.133C350.008 262.133 344.751 257.665 343.612 259.593C342.473 261.433 344.226 264.762 348.08 264.849C352.023 264.937 350.008 262.133 350.008 262.133Z" fill="#FFE1D7"/>
<path fill-rule="evenodd" clip-rule="evenodd" d="M326.353 179.954C316.54 181.531 308.831 184.335 301.997 188.89C299.982 190.205 296.39 193.359 292.447 197.214C285.351 204.222 284.475 205.011 281.846 206.413C279.13 207.902 276.59 208.603 268.617 210.005C254.599 212.546 245.487 216.488 238.654 223.147C232.959 228.578 229.98 234.098 229.367 239.88C229.104 243.034 229.104 243.034 227.177 244.261C222.971 247.24 215.437 254.336 211.757 258.804C205.975 265.813 203.784 268.792 202.558 270.807C202.295 271.158 201.682 272.034 201.244 272.647C198.265 276.852 191.782 289.468 188.452 297.704C187.927 298.93 187.226 300.77 186.788 301.646C186.35 302.61 185.912 303.924 185.736 304.538C185.561 305.151 185.386 305.852 185.211 306.115C185.035 306.29 184.51 307.867 183.984 309.531C183.458 311.196 182.67 313.912 182.144 315.489C181.619 317.066 180.918 319.607 180.567 321.184C180.129 322.761 179.691 324.688 179.516 325.477C178.289 330.12 178.027 331.61 176.975 340.371C176.8 341.948 176.187 348.606 175.749 355.265L174.873 367.267L175.749 377.255C176.187 382.775 176.8 388.294 176.975 389.521C177.676 393.901 178.815 398.632 179.516 400.297C179.691 400.735 180.217 402.224 180.655 403.626C182.407 409.058 187.489 420.272 190.292 424.828C190.818 425.704 191.431 426.756 191.606 427.019C191.694 427.369 191.957 427.719 192.044 427.895C192.22 427.982 193.359 429.472 194.76 431.224C198.09 435.692 202.295 439.459 208.34 443.49C214.123 447.344 217.277 449.009 220.869 450.323C222.27 450.761 223.672 451.287 224.11 451.462C225.162 451.9 228.491 452.952 230.681 453.477C234.273 454.441 235.938 454.704 246.013 456.368C249.342 456.982 260.031 456.982 262.396 456.456C263.36 456.193 266.427 455.668 269.23 455.229C272.034 454.791 274.837 454.266 275.451 454.09C276.327 453.915 276.59 454.09 277.203 455.317C277.553 456.193 278.517 457.157 279.305 457.683L280.795 458.559L280.444 461.45C279.919 467.145 279.305 470.912 276.94 483.353C275.889 488.96 275.188 494.304 275.013 498.334C274.837 502.715 274.925 502.978 275.889 504.73C276.852 506.307 280.006 509.023 280.882 509.023C280.97 509.023 281.671 509.286 282.372 509.636C288.417 512.265 301.208 512.615 310.583 510.337C311.547 510.074 313.036 509.724 314.087 509.461C318.906 508.322 321.271 506.745 322.586 503.941C323.549 501.926 323.725 498.597 323.024 495.794C322.761 494.917 322.323 493.078 321.972 491.676C321.622 490.362 321.184 488.872 320.921 488.347C320.395 487.208 320.833 486.682 321.797 487.295C322.148 487.47 325.477 488.609 329.156 489.836C332.924 490.975 336.253 492.114 336.691 492.289C338.356 492.99 345.365 494.917 348.781 495.618C356.842 497.371 360.609 497.984 367.53 498.772C372.437 499.386 373.575 499.386 374.276 498.948C374.714 498.685 376.204 498.422 377.606 498.422C379.796 498.422 380.234 498.334 380.584 497.546C380.935 496.933 380.935 496.582 380.584 496.144C380.059 495.618 379.445 495.531 377.08 495.794C371.911 496.407 364.99 495.618 350.972 492.727C347.555 492.026 343.963 491.15 342.211 490.537C341.247 490.274 338.794 489.486 336.691 488.872C334.764 488.259 332.661 487.558 332.223 487.383C331.785 487.295 329.857 486.594 327.93 485.981C326.002 485.368 323.374 484.404 321.972 483.791C319.694 482.739 319.519 482.564 318.993 480.812C318.205 477.746 319.081 465.042 320.308 462.852C320.571 462.326 320.833 461.888 320.833 461.8C320.921 461.713 322.673 463.377 324.776 465.48C326.879 467.67 329.507 470.036 330.646 470.737C334.413 473.453 340.458 476.169 346.766 478.096C352.812 479.936 354.476 480.199 359.996 480.199C364.464 480.199 365.69 480.023 367.706 479.235C369.02 478.709 370.509 477.833 371.035 477.308C372.261 476.081 371.911 475.993 380.146 479.761C381.636 480.374 383.388 481.25 384.089 481.513C388.382 483.353 390.046 484.229 391.361 485.543C392.149 486.244 393.113 487.032 393.376 487.12C393.639 487.295 394.252 488.171 394.515 489.223C395.128 490.975 395.128 491.15 394.427 492.026C394.077 492.552 392.938 493.253 391.886 493.779C391.01 494.304 389.346 495.093 388.207 495.618C387.155 496.144 386.367 496.757 386.454 496.933C386.63 497.721 388.82 497.721 391.185 496.933C393.901 496.144 394.69 495.706 396.267 494.304C397.406 493.253 397.493 492.902 397.493 490.8C397.406 488.785 397.231 487.996 396.004 486.156C393.901 482.915 392.85 482.126 384.965 478.709C384.176 478.359 383.388 478.008 383.213 478.008C382.599 478.008 371.385 472.226 368.757 470.474C365.603 468.459 356.579 459.96 355.177 457.683C354.739 456.894 354.213 456.106 354.126 456.018C353.951 455.93 353.425 454.967 352.899 453.828C352.636 453.39 352.461 453.039 352.286 452.776L351.235 448.133C351.76 447.958 352.373 447.52 352.899 447.082C354.213 445.943 354.301 445.767 354.564 441.825C354.827 437.62 355.878 429.472 357.105 422.112C357.28 421.411 357.63 418.958 357.981 416.856C358.331 414.753 358.769 412.037 358.944 410.898C359.295 408.971 359.558 407.744 359.996 404.327C360.434 401.962 360.959 401.611 363.413 402.137C366.917 402.838 373.926 402.663 376.291 401.874C384.264 398.895 388.294 395.566 391.536 389.433C393.025 386.542 395.303 380.409 395.303 379.095C395.303 378.832 395.391 378.219 395.654 377.781C396.004 377.08 397.055 371.21 397.493 367.53C398.457 359.295 398.545 343.7 397.756 339.319C397.493 338.356 397.055 335.465 396.705 333.011C396.354 330.558 395.916 327.755 395.654 326.703C394.865 322.586 394.427 320.132 393.814 316.102C393.463 313.737 393.025 311.109 392.85 310.145C391.361 304.012 391.098 302.698 390.66 301.384C390.485 300.595 390.134 299.631 389.959 299.193C389.784 298.755 389.17 296.828 388.557 294.9C387.944 292.973 387.155 290.87 386.892 290.082C386.542 289.381 386.279 288.68 386.279 288.592C386.279 288.505 385.929 287.541 385.491 286.577C384.264 283.774 383.826 281.846 383.3 276.94C382.512 269.843 383.125 266.427 385.841 261.433C387.068 259.418 388.469 256.877 389.083 256.001C392.675 250.569 395.566 244.787 396.617 240.844C398.019 235.412 398.282 232.609 397.756 229.717C396.705 224.373 396.179 222.621 394.164 218.153C390.66 210.793 382.161 201.857 375.415 198.615C373.926 197.914 372.875 197.126 372.875 196.775C372.875 196.425 372.349 195.461 371.736 194.585C368.494 189.591 358.506 183.984 347.73 181.093C342.298 179.604 331.522 178.99 326.353 179.954ZM302.61 263.886C301.471 265.375 299.982 268.442 299.807 274.224C299.631 277.816 299.544 279.919 299.544 281.145C298.317 281.408 297.266 281.671 297.003 281.846C296.653 282.021 296.127 282.021 295.776 281.846C289.556 278.955 286.928 276.677 285 272.822C281.496 265.463 283.336 256.439 289.03 254.161C289.293 254.073 291.045 252.934 292.885 251.533C294.9 250.218 296.653 249.167 296.915 249.167C297.178 249.167 297.704 248.992 298.142 248.817C299.106 248.379 301.384 247.678 303.311 247.415C309.531 246.364 315.139 242.071 318.205 235.938C318.993 234.273 322.498 230.506 323.9 229.805C327.93 227.702 333.975 226.826 339.757 227.527C346.153 228.228 354.914 228.14 356.316 227.352C357.017 227.001 357.543 226.739 357.543 226.739C357.543 226.739 357.455 228.403 357.367 230.418C357.28 233.835 357.893 238.303 358.944 240.844C359.12 241.282 359.82 242.947 360.434 244.524C361.047 246.013 362.712 249.255 364.113 251.445L366.742 255.65L365.165 257.227C364.376 258.104 363.325 259.242 362.799 259.768C362.361 260.381 361.397 261.345 360.609 261.958C359.032 263.185 352.549 267.566 352.286 267.566C352.111 267.566 350.621 268.179 348.869 269.055C347.117 269.843 345.189 270.72 344.488 270.982C343.788 271.333 342.649 271.859 341.773 272.209C339.144 273.348 333.8 274.662 328.543 275.538C318.818 277.028 314.438 276.677 310.583 273.698C309.006 272.559 308.217 271.508 306.903 268.792C305.852 266.865 305.151 264.937 305.151 264.412C305.151 263.535 304.45 262.659 303.661 262.659C303.223 262.659 302.785 263.185 302.61 263.886ZM310.933 282.372H311.459C311.547 282.372 311.722 282.372 311.809 282.46C312.335 282.547 313.474 282.81 314.525 283.073C317.154 283.598 318.993 284.475 321.359 286.314C323.024 287.629 323.812 288.68 325.302 291.659C326.265 293.761 327.317 296.477 327.579 297.704C328.28 300.77 328.543 312.948 328.017 315.489C327.842 316.54 327.317 320.483 326.966 324.075C326.616 327.667 326.178 330.996 326.09 331.61C326.002 332.135 325.74 333.975 325.477 335.64C324.863 340.634 323.9 347.555 323.462 349.745C323.286 350.884 322.936 353.162 322.673 354.827C321.972 359.47 322.148 359.382 319.256 356.579C315.314 352.724 314 352.023 310.758 352.023C308.042 352.023 307.341 352.198 301.909 354.651C300.245 355.44 298.755 356.053 298.58 356.053C298.317 356.053 297.879 356.228 297.441 356.404C297.091 356.666 295.689 357.017 294.375 357.367C292.535 357.718 291.834 357.718 291.221 357.367C290.695 357.017 288.242 356.842 284.124 356.842H277.816V354.914C277.816 353.863 277.991 351.935 278.254 350.534C278.429 349.22 278.867 346.942 279.043 345.452C279.305 343.963 279.656 341.86 279.831 340.809C280.006 339.67 280.444 336.866 280.795 334.676C281.145 332.398 281.583 329.595 281.846 328.543C283.949 318.994 284.387 315.051 283.423 314.788C283.248 314.701 283.16 314.701 282.985 314.788C282.46 314.876 281.759 315.314 280.532 317.066C277.728 319.694 273.436 324.601 269.668 332.661C265.025 342.999 261.52 351.935 260.206 355.352C256.526 355.002 252.496 354.564 248.641 354.038C247.064 353.863 244.261 353.425 242.509 353.25C240.669 352.987 238.303 352.636 237.252 352.374C236.201 352.198 234.799 352.023 234.098 352.023C233.485 352.023 232.959 351.848 232.959 351.673C232.959 351.322 236.113 346.679 236.551 346.241C236.726 346.153 238.917 343.262 241.457 339.933C246.364 333.537 247.678 331.872 253.285 325.302C263.535 313.299 286.577 289.994 288.154 289.994C288.329 289.994 289.03 289.556 289.819 288.943C293.323 286.314 300.595 283.774 307.078 283.073C308.918 282.81 310.583 282.547 310.758 282.46C310.846 282.372 310.846 282.372 310.933 282.372ZM243.122 313.912L242.158 333.8C243.735 331.697 245.75 329.244 249.868 324.25C258.454 313.912 279.568 292.272 284.913 288.33C287.891 286.139 290.783 284.299 291.133 284.299C291.396 284.299 291.659 284.037 292.009 283.774C292.36 283.423 291.922 283.073 290.345 282.284C285.614 279.919 281.321 273.874 280.707 268.792C280.532 267.478 280.357 266.251 280.182 266.164C279.744 265.726 279.043 270.457 278.78 275.1C278.517 281.583 277.728 288.33 277.378 288.592C277.115 288.68 276.94 289.118 276.94 289.556C276.94 290.695 274.399 295.776 272.297 298.405C267.566 304.713 258.629 310.583 250.218 312.773C247.853 313.386 245.4 313.824 243.122 313.912ZM190.818 300.069C191.957 299.369 193.096 298.668 193.446 298.58C193.534 298.58 193.621 298.58 193.797 298.58C194.673 298.58 194.848 299.719 194.147 301.646C193.972 302.347 193.534 304.012 193.359 305.501C193.096 306.991 192.745 308.918 192.57 309.97C192.395 311.021 192.044 312.948 191.782 314.263C191.519 315.577 191.256 317.154 191.168 317.767C190.993 318.293 190.73 320.045 190.467 321.622C190.205 323.111 189.854 325.477 189.679 326.703C188.19 335.815 187.138 346.591 187.138 351.76C187.138 355.703 187.751 362.799 188.452 367.092C190.205 377.868 194.936 383.3 204.66 385.929C212.195 387.856 226.563 388.995 235.938 388.294C239.53 388.031 242.859 387.681 243.297 387.593C243.735 387.506 246.977 387.243 250.481 387.068C261.345 386.454 268.529 385.841 270.282 385.403C272.647 384.877 277.816 384.877 277.816 385.578C277.816 385.841 277.378 386.279 276.852 386.454C275.976 386.892 275.976 387.068 275.801 393.201C275.801 396.617 275.889 401.699 276.239 404.415C277.378 417.206 278.429 432.012 278.78 442.526C279.13 450.586 279.568 453.565 280.707 454.704C281.145 455.054 282.372 455.58 283.598 455.93C285.701 456.456 286.314 456.631 291.221 457.683C292.535 457.945 296.215 458.033 300.157 457.945C306.465 457.858 307.078 457.77 308.743 456.894C310.057 456.106 310.408 455.58 310.408 454.791C310.495 452.426 311.196 443.139 311.809 437.006C312.948 426.931 313.124 425.179 313.824 419.484C314.262 416.593 314.701 412.825 314.963 411.161C315.489 406.693 315.752 405.203 316.365 401.173C316.628 399.07 316.978 396.267 317.066 394.865L317.154 392.237L313.299 390.923C311.196 390.222 309.006 389.521 308.568 389.346C307.254 388.908 304.625 387.769 303.661 387.506C301.121 386.542 300.245 386.192 298.142 385.841C297.003 385.578 295.163 385.315 294.112 385.14C293.061 385.053 292.097 384.79 291.922 384.615C291.045 383.826 289.293 384.177 288.68 385.228C288.154 385.929 287.541 386.279 286.752 386.279C285.614 386.279 285.614 386.192 285.701 384.264C286.314 377.606 286.928 372.524 287.015 371.999C287.191 371.648 287.453 370.597 287.629 369.721C287.804 368.844 288.242 366.742 288.592 365.077C288.943 363.413 289.381 361.485 289.468 360.872L289.731 359.733L280.97 359.821C276.239 359.821 272.034 359.821 271.771 359.558C271.42 359.382 268.792 359.12 265.813 358.857C258.279 358.419 250.131 357.455 241.457 356.141C238.917 355.703 232.959 355.002 227.001 354.389C224.724 354.126 222.533 353.775 222.095 353.6C221.569 353.337 220.431 353.337 219.116 353.6C217.89 353.863 215.7 354.038 214.298 354.038C211.757 354.038 211.669 353.951 211.757 353.074C211.932 352.286 212.195 352.198 214.561 352.111C219.642 351.935 220.518 351.673 220.781 350.446C221.307 347.993 222.095 345.102 222.446 344.839C222.621 344.664 222.708 344.138 222.708 343.612C222.708 343.174 222.884 342.649 223.059 342.386C223.234 342.123 223.76 340.896 224.11 339.582C224.899 336.954 225.424 335.552 226.038 334.326C226.213 333.975 226.388 333.449 226.388 333.099C226.388 332.661 227.79 328.543 228.841 326.09C229.016 325.652 229.455 324.338 229.893 323.199C230.243 322.06 230.769 320.658 231.119 319.957C232.346 317.154 233.397 314 233.222 313.386C233.134 313.036 232.083 312.423 230.681 311.897C224.636 309.794 217.189 303.749 214.736 298.93C214.21 297.879 213.597 295.952 213.334 294.55C212.808 292.272 212.808 291.571 213.422 288.505C214.911 281.671 217.364 277.466 224.461 270.194C227.001 267.39 229.542 264.499 229.98 263.798C230.856 262.046 230.944 254.249 230.068 249.518C229.717 247.765 229.279 246.364 229.104 246.364C228.578 246.364 223.935 250.394 220.08 254.249C216.138 258.279 212.37 262.572 208.953 267.128C207.376 269.23 205.887 271.158 205.712 271.42C202.996 274.925 196.513 286.928 192.833 295.251C192.132 296.74 191.519 298.317 190.818 300.069ZM349.92 453.915C350.008 454.353 350.271 454.879 350.621 455.58C353.951 462.501 360.171 469.335 367.092 473.803C369.983 475.731 369.983 475.643 365.252 476.431C358.944 477.483 358.331 477.483 350.621 475.731C343.35 474.154 334.939 470.299 330.208 466.619C328.894 465.568 326.44 463.29 324.776 461.537C321.885 458.559 321.797 458.383 321.972 456.894C322.06 456.631 322.148 456.106 322.148 455.492C324.338 456.018 329.857 456.982 338.443 456.018C344.401 455.405 347.905 454.529 349.92 453.915ZM283.16 466.268C285.876 466.882 291.483 467.67 298.142 466.444C303.399 465.568 306.115 464.429 307.516 463.64C308.042 466.619 309.269 470.912 310.232 472.927C310.583 473.803 311.722 476.256 312.685 478.359C313.649 480.462 314.525 482.214 314.525 482.389C314.525 482.652 312.072 484.667 311.021 485.193C308.13 486.77 305.939 487.12 300.77 486.945C294.375 486.77 291.922 485.893 288.68 482.915C286.314 480.724 285.876 480.549 285.175 481.425C284.562 482.126 285.088 483.178 286.928 485.368C289.03 487.646 291.659 488.96 296.653 490.274C299.456 490.975 307.692 490.362 310.32 489.223C311.021 488.872 311.722 488.609 311.809 488.609C311.985 488.609 313.036 487.996 314.175 487.208C315.314 486.419 316.278 485.806 316.278 485.893C316.365 485.981 316.716 486.857 317.154 487.996C317.504 489.135 317.942 490.449 318.205 490.887C318.555 491.851 319.519 495.268 320.132 498.247C320.658 500.262 320.571 500.525 319.694 502.277C318.555 504.73 317.154 505.518 311.809 506.833C310.32 507.183 308.305 507.621 307.604 507.796C306.816 508.059 304.362 508.41 302.172 508.672C294.813 509.461 284.299 507.709 280.707 505.08C277.904 502.978 277.203 500.349 278.167 495.093C278.429 493.866 278.78 491.763 279.043 490.274C279.218 488.785 279.568 486.682 279.744 485.543C280.006 484.404 280.444 481.776 280.882 479.673C281.233 477.57 281.671 474.854 281.934 473.715C282.547 470.123 282.898 468.284 283.16 466.268ZM367.618 368.757C367.618 368.757 367.881 383.914 370.684 390.923C372.349 395.04 374.014 397.406 375.065 398.72L379.007 396.793C382.074 395.303 383.388 394.339 385.14 392.412C389.608 387.593 392.412 379.445 394.077 366.479C394.777 361.047 394.69 343.437 393.901 338.969C392.938 332.836 392.762 331.96 392.412 329.945C392.237 328.981 391.799 326.265 391.448 324.075C391.098 321.797 390.572 318.906 390.397 317.504C388.995 309.356 388.645 307.254 387.418 303.223C386.98 301.646 386.104 298.755 385.491 296.828L384.439 293.148L383.125 295.776C381.811 298.405 378.219 302.61 377.255 302.61C376.817 302.61 376.729 303.837 376.729 308.042C376.729 313.912 375.853 323.111 375.24 324.513C374.89 325.214 375.065 325.564 376.467 327.054C379.708 330.295 380.497 332.661 381.022 340.196C381.811 351.322 381.723 351.059 383.388 356.053C383.651 357.105 384.089 358.243 384.264 358.682C384.439 359.207 385.228 361.047 385.929 362.975C387.243 366.742 388.557 369.721 389.17 370.86C389.871 372.086 388.207 371.736 387.243 370.421C385.753 368.319 383.651 364.464 382.161 360.784C380.76 357.367 379.796 355.966 379.796 357.455C379.796 358.682 376.905 362.887 374.89 364.727C372.787 366.654 369.195 368.757 367.968 368.757C367.793 368.757 367.706 368.757 367.618 368.757ZM257.753 389.959C257.928 392.412 258.717 399.771 263.798 413.789C268.266 426.318 273.085 434.641 275.538 438.408V438.758C275.889 445.154 276.064 450.498 275.976 450.674C275.889 450.849 275.188 451.112 274.399 451.287C273.698 451.462 272.209 451.725 271.07 451.988C260.995 453.915 247.064 453.74 237.427 451.55C236.639 451.375 234.624 450.849 232.959 450.498C228.929 449.535 221.832 447.257 219.029 445.855C215.875 444.366 208.34 439.547 205.186 437.006C201.506 434.115 197.389 429.647 194.76 425.617C192.921 422.726 188.89 415.366 188.365 413.614C188.102 412.738 189.328 410.285 192.132 406.342C196.688 399.947 200.63 395.829 205.099 392.85L208.603 390.572L216.576 391.273C225.512 392.062 234.186 392.149 238.741 391.536C241.457 391.185 245.663 390.835 257.753 389.959ZM350.796 296.653C350.096 297.003 349.745 297.529 349.745 298.142V299.193L354.038 299.018C357.893 298.93 364.201 299.631 366.654 300.42C367.968 300.858 367.793 299.631 366.391 298.668C365.077 297.704 364.289 297.441 361.397 296.653C358.594 295.952 352.111 295.952 350.796 296.653ZM308.831 295.952C308.217 296.039 306.465 296.302 304.8 296.565C301.208 297.091 299.281 298.142 299.456 299.456C299.544 300.245 299.894 300.42 301.033 300.332C301.822 300.332 303.749 299.982 305.326 299.544C307.254 299.106 310.057 298.843 314.438 298.843C318.38 298.755 320.571 298.58 320.483 298.317C320.395 298.142 319.519 297.529 318.555 297.003C316.716 296.215 311.196 295.514 308.831 295.952ZM319.081 260.644C317.592 260.995 316.54 261.696 316.54 262.484C316.54 262.922 317.154 263.097 318.993 263.097C322.41 263.097 324.338 264.149 325.564 266.777C327.054 269.843 327.842 269.318 327.579 265.551C327.492 264.061 326.44 262.572 324.863 261.783C323.374 260.907 320.395 260.381 319.081 260.644ZM340.371 250.919C339.495 251.883 337.83 253.811 336.691 255.212C335.114 256.965 333.975 257.841 332.749 258.279C331.084 258.804 330.558 259.593 331.172 260.469C331.434 260.995 332.398 261.17 334.238 261.082C335.377 260.995 338.093 258.629 339.845 256.088C344.401 249.43 344.401 249.167 342.911 249.167C342.298 249.167 341.422 249.78 340.371 250.919ZM347.818 248.203C347.292 248.817 347.555 252.934 348.168 254.336C348.957 256.001 351.41 258.279 353.425 259.242C354.739 259.856 355.002 259.856 355.615 259.33C356.141 258.717 356.053 258.542 354.827 257.753C351.935 255.65 350.271 253.285 349.745 250.043C349.395 248.291 348.519 247.503 347.818 248.203ZM325.827 232.346C325.302 232.871 325.477 234.711 326.353 236.025C327.229 237.602 330.208 239.793 331.259 239.793C331.697 239.793 332.135 239.968 332.223 240.231C332.573 240.756 336.954 240.756 336.954 240.231C336.954 239.793 334.676 238.566 333.8 238.566C333.537 238.566 333.274 238.391 333.274 238.303C333.274 238.128 332.661 237.69 331.872 237.427C330.383 236.902 327.579 234.098 327.579 233.134C327.579 232.784 327.229 232.433 326.879 232.346C326.09 231.995 326.09 231.995 325.827 232.346ZM361.047 283.774C366.391 285.438 371.122 292.447 372.875 301.208C373.751 305.414 373.137 322.06 372.086 323.111C371.823 323.374 371.122 323.199 370.159 322.848C368.494 322.148 359.295 321.885 357.63 322.586C357.105 322.761 355.966 323.111 355.089 323.462C352.373 324.25 348.519 326.265 347.204 327.317C345.715 328.543 345.452 330.558 346.591 332.31C347.292 333.274 347.292 333.362 346.416 333.975C345.978 334.326 345.014 334.939 344.401 335.377C342.824 336.165 341.685 338.268 342.035 339.67C342.123 340.196 342.999 341.422 343.875 342.298C345.102 343.525 345.452 344.05 345.102 344.401C344.839 344.751 344.664 345.89 344.576 346.942C344.576 348.694 344.751 349.044 345.978 350.008C346.679 350.621 347.555 351.147 347.818 351.147C348.606 351.147 348.869 351.935 348.256 352.724C347.555 353.951 348.694 356.053 350.621 357.105C352.198 357.981 358.156 359.47 362.011 359.908C365.077 360.346 365.252 360.521 364.99 363.062C364.814 364.289 364.551 366.129 364.289 367.267C364.026 368.406 363.588 370.772 363.325 372.612C362.449 376.992 361.836 380.409 361.397 382.337C361.222 383.3 360.784 385.578 360.434 387.506C359.996 389.433 359.558 391.711 359.382 392.587C358.857 394.777 357.805 400.647 357.28 403.363C356.842 405.817 356.491 408.094 355.528 413.964C355.177 416.155 354.739 418.958 354.476 420.36C353.688 425.091 352.111 436.13 351.76 439.897C351.585 441.212 351.322 442.613 351.147 442.876C350.884 443.227 350.884 443.577 351.235 444.015C351.935 444.804 351.497 445.242 348.781 445.767C342.035 447.082 334.326 447.082 329.156 445.855C328.368 445.592 326.002 445.067 323.812 444.628C320.045 443.752 319.87 443.665 319.607 442.438C318.993 439.372 319.607 405.466 320.483 399.07L320.658 396.968L322.936 396.267C324.25 395.916 325.652 395.128 326.178 394.69C327.229 393.726 327.93 391.536 327.93 389.258C327.93 388.557 328.456 387.418 329.156 386.454C330.471 384.702 330.733 382.95 329.945 380.76C329.594 379.708 329.594 379.183 330.383 377.693C331.522 375.328 331.434 373.663 330.208 371.823C329.507 370.772 329.156 369.808 329.156 368.494C329.156 365.953 327.579 363.325 325.652 362.536C324.863 362.274 324.688 361.923 324.688 360.434C324.688 359.47 324.863 358.506 325.039 358.243C325.477 357.893 326.002 355.089 326.966 349.57C327.317 347.38 327.755 344.751 327.93 343.7C328.193 342.649 328.368 341.072 328.368 340.371C328.368 339.67 328.543 338.093 328.806 337.042C328.981 335.99 329.419 332.31 329.77 328.981C330.208 325.564 330.646 321.797 330.821 320.571C331.522 316.102 331.872 312.072 331.872 305.239C331.872 299.281 331.96 298.142 332.573 296.915C336.078 290.432 341.422 286.139 348.781 284.212C349.57 283.949 350.796 283.686 351.41 283.423C353.6 282.898 358.769 282.985 361.047 283.774ZM370.684 325.915C373.926 327.667 376.291 330.471 377.255 333.8C378.482 338.093 379.007 351.059 378.131 353.951C377.168 356.754 375.591 359.733 374.014 361.573C372.349 363.413 368.494 366.129 368.056 365.778C367.968 365.603 368.056 364.289 368.231 362.887C368.582 360.434 368.582 360.171 367.618 359.12C366.654 357.981 366.129 357.805 361.047 356.842C355.966 355.878 355.002 355.703 353.425 355.265C351.322 354.564 350.709 354.126 350.884 353.074C350.972 352.374 351.497 352.111 353.074 351.848C355.878 351.235 365.69 351.322 368.144 351.935C369.195 352.198 370.246 352.286 370.334 352.198C370.86 351.673 369.633 350.534 368.231 350.183C367.443 349.92 366.654 349.658 366.479 349.395C366.041 349.044 354.564 349.044 353.775 349.482C353.337 349.658 352.373 349.92 351.497 350.096C350.096 350.271 349.745 350.183 348.343 348.869C347.467 348.081 346.766 347.292 346.766 347.029C346.766 346.854 347.204 345.978 347.73 345.102C348.781 343.35 350.183 342.911 356.141 342.123C361.047 341.422 367.005 341.51 370.071 342.211C371.385 342.473 372.524 342.649 372.699 342.561C373.137 342.035 371.736 340.546 370.159 339.933C368.231 339.144 357.455 339.057 353.425 339.757C346.854 340.896 346.942 340.896 345.978 340.283C344.576 339.407 344.488 338.619 345.54 337.48C347.467 335.377 352.899 333.449 359.82 332.398C364.376 331.697 367.005 331.96 369.458 333.537C371.911 335.114 371.998 335.114 371.998 333.887C371.998 332.749 370.509 331.084 368.582 330.208C366.129 328.981 358.944 329.595 351.497 331.522C349.395 332.048 348.694 331.785 348.869 330.383C348.957 329.595 349.482 329.069 351.848 327.93C353.425 327.229 355.089 326.441 355.528 326.265C355.966 326.09 356.842 325.827 357.543 325.564C358.243 325.389 361.047 325.126 363.938 325.126C368.406 325.039 369.283 325.214 370.684 325.915ZM314.438 356.491C317.154 358.331 317.679 359.207 315.839 358.682C312.685 357.981 312.072 357.981 312.072 358.857C312.072 359.47 312.598 359.996 314.175 360.784C315.314 361.31 316.54 361.748 316.803 361.748C317.154 361.748 317.679 361.923 318.117 362.186C318.468 362.361 319.607 362.799 320.658 363.237C325.477 365.077 326.178 365.69 326.44 368.582C326.528 369.896 326.966 371.122 327.667 372.174C328.981 374.101 328.981 374.714 327.93 377.168C327.141 379.007 327.054 380.146 327.842 382.862C327.93 383.476 327.667 384.089 326.791 385.053C325.477 386.454 325.302 387.068 325.477 389.258C325.652 391.098 324.688 392.587 323.111 393.201C322.323 393.463 321.359 393.814 321.184 393.901C320.833 393.989 320.658 393.814 320.658 393.463C320.658 393.113 321.009 392.762 321.447 392.675C321.885 392.5 322.235 392.237 322.235 392.062C322.235 391.361 319.607 390.046 317.066 389.258C315.752 388.908 314 388.294 313.036 387.856C312.16 387.506 310.758 386.98 310.057 386.63C309.269 386.367 307.954 385.841 307.166 385.491C306.377 385.228 305.326 384.79 304.888 384.615C302.26 383.476 298.317 382.687 293.323 382.249C291.659 382.074 289.994 381.811 289.731 381.636C289.293 381.373 289.206 380.497 289.381 377.518C289.556 375.503 289.819 373.225 289.994 372.612C290.257 371.911 290.695 369.808 291.045 367.881C291.483 365.953 292.009 363.5 292.272 362.361L292.798 360.346L295.338 359.908C297.879 359.47 298.755 359.207 300.42 358.506C310.495 354.126 310.846 354.126 314.438 356.491ZM318.993 453.477C318.993 454.353 318.731 455.317 318.38 455.843C318.117 456.281 317.767 457.42 317.679 458.471C317.504 459.435 317.154 462.326 316.716 464.779C316.365 467.232 315.927 471 315.752 473.102L315.489 477.045L314.175 474.154C313.386 472.577 312.685 471 312.51 470.737C312.335 470.386 311.809 468.984 311.459 467.67C311.108 466.268 310.583 464.779 310.408 464.166C309.97 463.027 309.707 460.223 309.97 459.96C310.145 459.873 310.758 459.435 311.459 458.909C312.773 458.033 313.124 457.245 313.562 453.652L313.737 451.9H316.365H318.993V453.477Z" fill="#62736F"/>
<path fill-rule="evenodd" clip-rule="evenodd" d="M82.8802 250.657C82.705 251.27 83.6687 255.738 84.4572 257.578C84.6325 258.016 85.0705 259.505 85.421 260.82C86.2095 263.36 86.7351 265.2 87.2608 266.514C87.5236 266.952 88.1369 268.705 88.7502 270.369C89.3635 272.034 89.9768 273.874 90.152 274.312C90.3272 274.75 90.8529 276.239 91.2909 277.553C92.868 282.109 93.8317 284.913 94.2697 285.876C95.4963 288.68 99.5264 299.631 99.5264 300.157C99.5264 300.42 99.7017 300.946 99.8769 301.296C100.578 302.523 103.995 313.737 104.433 316.278C105.834 323.637 106.448 330.033 106.448 337.918C106.448 346.416 105.834 351.147 103.381 362.011C103.031 363.5 102.593 365.603 102.418 366.479C101.804 369.195 100.665 374.539 100.315 376.291C98.037 388.294 97.6866 390.572 97.1609 395.391C96.8981 398.895 96.8981 399.158 97.5114 403.626C98.9131 414.841 104.783 423.339 116.26 430.961C126.073 437.357 132.556 440.511 140.441 442.701C144.559 443.928 147.362 443.314 146.661 441.474C146.486 441.036 146.749 439.81 147.187 438.671C147.625 437.532 148.151 435.78 148.501 434.816C148.764 433.765 149.115 432.538 149.29 432.012C149.903 430.698 149.815 424.741 149.202 422.988C148.939 422.2 148.326 420.535 147.8 419.396C147.275 418.17 146.837 417.118 146.837 416.943C146.837 416.768 146.136 415.717 145.172 414.578C143.42 412.475 138.514 408.883 136.761 408.445C134.659 407.919 132.118 406.693 132.118 406.167C132.118 405.904 134.308 403.539 136.849 400.91C142.894 394.865 144.559 392.062 146.399 385.228C146.924 383.125 146.924 376.992 146.486 375.415C146.311 374.714 145.785 373.137 145.435 371.911C144.822 369.808 142.544 365.778 141.054 364.201C140.791 363.851 140.003 362.975 139.302 362.274L138.076 360.959L141.755 357.192C143.858 355.09 145.873 352.724 146.399 351.848C148.677 347.993 149.377 343.963 148.414 339.845C146.574 331.96 143.683 327.667 137.725 323.549C136.148 322.498 134.571 321.184 134.133 320.571C133.257 319.344 133.257 319.169 136.849 311.985C139.74 306.115 140.441 303.574 140.441 299.193C140.441 295.338 140.091 293.586 138.426 290.082C136.498 286.227 131.68 282.372 126.336 280.532C123.532 279.656 116.523 278.605 112.756 278.605C111.442 278.605 109.865 278.342 109.339 277.991C108.375 277.553 108.288 277.378 106.623 270.369C104.871 263.01 101.191 257.928 94.6202 254.424C92.4299 253.197 89.1007 252.058 87.8741 252.058C87.3484 252.058 86.3847 251.62 85.7714 251.007C84.3696 249.868 83.3183 249.693 82.8802 250.657Z" fill="#62736F"/>
<path fill-rule="evenodd" clip-rule="evenodd" d="M478.709 255.913C476.169 256.614 475.643 256.877 472.401 258.454C462.501 263.273 455.755 271.07 453.214 280.532C452.426 283.423 452.163 289.206 452.514 294.55C452.952 300.507 452.864 300.507 448.483 301.384C440.686 302.785 434.29 308.48 431.224 316.716C430.26 319.256 430.173 320.132 430.173 325.039C430.173 331.609 430.435 332.924 433.502 339.495C434.466 341.422 435.254 343.262 435.254 343.525C435.254 343.787 434.466 344.313 433.414 344.576C430.523 345.452 424.828 349.132 421.937 351.848C418.695 355.002 416.155 358.944 414.665 362.974C413.702 365.69 413.526 366.654 413.526 370.772C413.526 375.853 414.052 378.219 416.067 382.424C417.556 385.666 421.411 390.66 425.003 394.252C426.58 395.741 427.895 397.231 427.895 397.318C427.895 397.493 426.493 398.282 424.741 399.158C419.659 401.611 417.294 403.626 415.016 407.218C413.789 409.496 413.614 409.934 413.614 412.913C413.614 418.257 415.804 424.916 418.608 428.07C420.36 429.997 421.149 430.26 423.865 429.472C424.565 429.209 425.967 428.858 426.843 428.683C430.085 427.982 435.079 426.668 435.692 426.23C436.13 425.967 436.743 425.792 437.094 425.792C437.444 425.792 438.058 425.617 438.408 425.441C438.758 425.266 439.897 424.741 440.949 424.39C444.716 422.988 452.952 419.046 455.405 417.469C456.368 416.855 457.332 416.33 457.683 416.155C459.172 415.541 464.604 411.073 467.32 408.445C473.453 402.4 478.885 391.886 481.25 381.548C481.863 378.832 481.951 376.554 481.951 368.494C481.863 358.681 481.601 355.965 479.761 348.519C478.709 344.488 477.308 337.83 476.607 334.063C474.416 322.06 474.416 308.392 476.607 300.42C478.447 293.849 478.885 292.272 479.323 291.396C479.498 290.958 480.111 289.206 480.724 287.541C482.915 281.408 484.93 277.203 488.96 270.895C490.8 267.916 492.377 265.463 492.377 265.375C492.377 265.288 493.34 263.711 494.567 261.871C497.02 258.279 497.283 257.052 496.056 255.913C495.268 255.212 495.005 255.212 493.34 255.65C491.15 256.264 486.419 256.264 486.069 255.738C485.718 255.212 480.724 255.3 478.709 255.913Z" fill="#62736F"/>
<path fill-rule="evenodd" clip-rule="evenodd" d="M319.344 195.198C319.432 195.899 319.169 196.075 317.767 196.25C316.102 196.513 310.846 198.966 309.532 200.105C309.269 200.368 308.831 200.63 308.655 200.63C307.955 200.63 302.085 205.361 300.683 207.026C299.106 208.953 298.58 209.216 298.58 208.077C298.58 206.588 301.384 203.084 304.713 200.63C305.414 200.105 306.553 199.229 307.166 198.703C307.779 198.177 308.393 197.827 308.568 197.827C308.655 197.827 309.707 197.214 310.933 196.425C313.825 194.673 315.226 194.147 317.329 194.235C318.906 194.322 319.256 194.498 319.344 195.198ZM351.322 195.899C356.579 196.513 365.165 203.346 364.114 206.15C363.763 207.114 362.712 206.851 362.186 205.799C361.836 204.661 357.367 200.192 355.966 199.491C355.528 199.229 354.389 198.791 353.425 198.44C352.549 198.002 351.497 197.564 351.147 197.301C350.709 197.126 349.833 196.951 349.22 196.951C347.73 196.951 345.89 196.162 346.153 195.724C346.241 195.549 347.029 195.461 347.905 195.549C348.694 195.637 350.271 195.812 351.322 195.899ZM375.153 212.37C375.591 212.721 376.292 213.334 376.73 213.509C377.606 214.035 380.322 217.452 381.198 219.204C382.424 221.57 381.636 222.358 380.234 220.168C378.832 217.89 374.364 213.685 373.137 213.422C372.086 213.246 371.648 212.546 372.261 211.932C372.787 211.407 374.276 211.669 375.153 212.37ZM352.374 212.896C352.198 213.947 351.41 214.473 347.467 215.7C345.627 216.313 337.129 216.313 335.99 215.7C335.552 215.437 333.187 215.174 330.821 215.174C327.404 215.174 326.353 215.262 325.477 215.875C323.374 217.364 322.673 216.138 324.776 214.385C325.477 213.772 326.353 213.334 326.703 213.334C327.141 213.334 327.667 213.071 327.755 212.896C328.105 212.37 334.15 212.37 335.377 212.808C335.903 213.071 337.655 213.422 339.232 213.772C342.386 214.298 346.591 213.86 349.92 212.633C352.111 211.845 352.549 211.932 352.374 212.896ZM306.903 222.796C307.692 225.863 302.085 231.032 294.375 234.098C292.535 234.799 291.221 234.624 291.221 233.66C291.221 233.047 291.659 232.696 292.798 232.258C299.018 229.717 304.801 225.512 305.326 223.059C305.677 221.657 306.553 221.482 306.903 222.796ZM370.947 228.666C371.035 231.732 371.385 234.974 371.648 235.763C373.137 239.968 374.101 241.808 375.328 242.772C376.467 243.648 376.554 244.261 375.328 244.261C374.627 244.261 371.999 241.895 371.999 241.195C371.999 240.844 371.823 240.669 371.648 240.669C371.56 240.669 371.035 239.53 370.597 238.303C370.246 236.989 369.721 235.587 369.545 235.149C368.144 231.732 368.494 223.059 369.983 223.059C370.597 223.059 370.684 223.76 370.947 228.666ZM268.617 226.826C268.967 227.264 267.653 228.754 266.952 228.754C266.164 228.754 261.082 231.557 258.454 233.397C256.264 234.974 254.073 237.077 253.46 238.479C252.934 239.442 252.672 239.705 252.321 239.442C251.883 239.004 251.883 238.654 252.496 237.427C253.46 235.587 258.629 230.594 260.907 229.367C261.783 229.017 262.922 228.316 263.535 227.965C265.375 226.739 268.179 226.038 268.617 226.826ZM371.122 270.194C371.473 271.508 371.736 273.173 371.823 273.874C371.999 274.487 372.261 275.451 372.437 275.889C372.612 276.327 372.875 277.466 372.962 278.429C373.225 279.744 373.137 280.182 372.699 280.182C371.911 280.182 371.035 277.991 369.545 272.822C369.283 271.859 368.932 270.632 368.757 270.106C368.494 269.581 368.319 268.792 368.319 268.354C368.319 267.653 368.582 267.478 369.458 267.653C370.509 267.741 370.597 268.004 371.122 270.194ZM261.433 276.327C261.433 277.729 261.345 279.043 261.082 279.13C260.907 279.218 260.644 279.831 260.469 280.445C260.119 282.022 256.176 287.366 254.073 289.381C252.409 291.046 249.518 292.798 248.817 292.798C248.642 292.798 248.379 292.535 248.291 292.184C248.116 291.834 248.379 291.484 248.992 291.221C251.007 290.432 255.738 284.737 258.366 280.182C258.892 279.13 259.505 277.378 259.593 276.239C260.031 273.523 260.119 273.26 260.82 273.523C261.345 273.698 261.433 274.399 261.433 276.327Z" fill="white"/>
<path fill-rule="evenodd" clip-rule="evenodd" d="M119.414 365.165C120.904 366.391 127.036 377.08 126.598 377.693C126.16 378.394 125.284 378.044 124.496 376.905C123.094 374.539 118.976 368.932 117.925 367.793C117.399 367.18 116.698 366.654 116.348 366.654C115.647 366.654 115.647 364.727 116.348 364.464C116.961 364.201 118.713 364.551 119.414 365.165ZM116.085 295.689C117.312 296.653 119.677 298.755 121.254 300.332C124.583 303.661 126.073 306.027 125.284 306.815C125.021 307.078 124.233 306.64 122.305 304.976C119.414 302.435 118.451 301.734 115.822 299.544C114.858 298.755 113.72 297.879 113.281 297.529C112.931 297.178 112.055 296.653 111.354 296.302C110.04 295.601 109.777 294.988 110.653 294.112C111.442 293.236 113.72 293.937 116.085 295.689Z" fill="white"/>
<path fill-rule="evenodd" clip-rule="evenodd" d="M458.033 353.337C458.822 354.038 458.559 354.827 457.42 355.089C452.338 356.316 438.145 366.479 433.94 371.911C433.327 372.612 432.976 372.787 432.713 372.436C431.925 371.648 433.327 369.545 437.532 365.603C443.139 360.171 446.994 357.192 451.637 354.739C455.317 352.724 457.069 352.373 458.033 353.337Z" fill="white"/>
<path fill-rule="evenodd" clip-rule="evenodd" d="M147.099 193.797C147.275 189.942 147.362 186.087 147.625 182.232C147.713 181.268 147.8 176.8 149.377 176.712C149.815 176.625 150.166 176.975 150.429 177.413C151.83 180.129 151.042 207.99 150.867 212.983C150.604 218.24 151.13 224.198 151.392 229.454C151.655 233.66 151.83 237.865 151.918 242.071C152.006 242.947 152.531 248.817 150.779 248.379C148.589 247.853 148.063 236.901 147.888 234.974C147.625 232.433 147.625 229.63 147.538 227.089C147.45 222.971 147.362 218.941 147.275 214.823C147.187 207.814 147.099 200.805 147.099 193.797ZM386.805 131.242C386.805 131.242 384.614 124.759 388.294 123.445C391.886 122.13 392.587 137.2 390.572 138.777C388.557 140.354 386.279 135.623 386.805 131.242ZM146.399 154.547C146.399 154.547 146.574 168.039 148.589 168.389C150.604 168.74 150.867 164.447 150.692 160.066C150.429 155.773 151.13 149.027 146.399 154.547ZM366.742 146.749C366.041 144.471 365.953 113.457 365.953 110.653C366.128 109.427 366.479 103.907 369.019 105.309C370.772 106.273 369.983 138.163 369.72 140.003C369.545 141.054 370.071 143.683 370.246 144.734C370.421 145.785 371.735 151.217 369.72 151.042C367.881 150.955 367.18 148.151 366.742 146.749ZM461.362 176.187C461.45 173.383 461.537 170.404 461.888 167.601C461.975 166.637 462.151 163.395 463.465 163.308C463.99 163.22 464.341 163.483 464.516 163.833C466.005 165.936 465.217 186.788 465.042 190.467C464.866 194.235 465.392 198.966 465.567 202.821C465.83 205.887 466.005 209.041 466.181 212.195C466.181 213.071 466.619 217.452 464.954 217.101C462.851 216.751 462.238 208.691 462.063 206.938C461.45 202.382 461.537 196.6 461.537 191.869C461.362 186.7 461.362 181.443 461.362 176.187ZM125.284 171.368C125.372 168.477 125.459 165.586 125.81 162.782C125.897 161.818 126.073 158.577 127.387 158.402C127.913 158.402 128.263 158.664 128.438 159.015C129.928 161.03 129.139 181.881 128.964 185.649C128.789 189.416 129.227 194.147 129.49 197.914C129.752 201.068 129.928 204.222 130.103 207.376C130.103 208.165 130.541 212.545 128.876 212.283C126.774 211.845 126.16 203.872 125.985 202.12C125.372 197.564 125.459 191.694 125.372 187.05C125.284 181.794 125.284 176.625 125.284 171.368ZM442.087 166.987C442.087 172.244 442 177.501 441.912 182.67C441.825 187.401 441.912 193.183 441.387 197.739C441.124 199.491 440.598 207.464 438.408 207.902C436.743 208.252 437.269 203.872 437.269 202.996C437.356 199.842 437.619 196.688 437.795 193.534C438.057 189.766 438.583 185.035 438.408 181.268C438.145 177.501 437.444 156.649 438.846 154.634C439.109 154.284 439.459 154.021 439.897 154.109C441.299 154.196 441.474 157.438 441.562 158.402C441.912 161.205 442 164.096 442.087 166.987ZM428.245 163.22C428.245 168.477 428.157 196.863 428.07 202.12C427.982 206.763 428.07 212.545 427.456 217.189C427.281 218.941 426.668 226.914 424.565 227.352C422.901 227.615 423.339 223.234 423.426 222.358C423.514 219.292 423.689 216.138 423.952 212.983C424.215 209.216 424.653 204.485 424.478 200.718C424.302 196.951 423.514 152.882 425.003 150.867C425.266 150.516 425.617 150.254 426.055 150.341C427.369 150.429 427.544 153.67 427.719 154.634C427.982 157.438 428.07 160.329 428.245 163.22ZM406.517 150.166C406.517 155.423 406.43 160.679 406.342 165.848C406.254 170.58 406.342 176.362 405.816 181.005C405.553 182.67 405.028 190.73 402.838 191.081C401.173 191.431 401.699 187.05 401.699 186.174C401.786 183.02 402.049 179.866 402.224 176.8C402.487 172.945 403.013 168.302 402.838 164.534C402.575 160.767 401.874 139.915 403.276 137.813C403.538 137.462 403.889 137.2 404.327 137.287C405.729 137.375 405.904 140.616 405.992 141.58C406.342 144.471 406.43 147.362 406.517 150.166ZM343.787 121.254C343.787 126.511 343.7 131.68 343.612 136.937C343.525 141.58 343.612 147.45 342.999 152.006C342.824 153.758 342.21 161.731 340.108 162.169C338.443 162.432 338.881 158.051 338.969 157.263C339.056 154.109 339.319 150.955 339.494 147.801C339.757 144.033 340.283 139.302 340.02 135.535C339.845 131.768 339.056 110.916 340.546 108.901C340.809 108.551 341.159 108.288 341.597 108.288C342.911 108.463 343.174 111.705 343.262 112.668C343.525 115.472 343.612 118.363 343.787 121.254ZM325.652 98.2124C325.652 105.221 325.564 112.23 325.477 119.239C325.477 123.269 325.389 127.387 325.301 131.505C325.214 134.046 325.214 136.849 324.951 139.39C324.776 141.317 324.25 152.269 322.06 152.794C320.22 153.232 320.833 147.362 320.833 146.486C320.921 142.281 321.184 138.076 321.359 133.87C321.622 128.614 322.147 122.568 321.972 117.312C321.709 112.405 321.008 84.4574 322.41 81.829C322.585 81.391 322.936 81.0405 323.461 81.1282C324.951 81.2158 325.038 85.6839 325.126 86.6477C325.477 90.5026 325.564 94.3575 325.652 98.2124ZM301.033 103.995C301.033 111.004 300.945 136.236 300.858 143.245C300.858 147.362 300.77 151.393 300.682 155.51C300.595 158.139 300.595 160.855 300.332 163.483C300.157 165.323 299.631 176.274 297.441 176.888C295.601 177.326 296.214 171.368 296.214 170.492C296.302 166.287 296.565 162.081 296.74 157.876C297.003 152.619 297.528 146.662 297.353 141.405C297.09 136.499 296.302 90.2397 297.791 87.6114C297.967 87.1733 298.317 86.8229 298.843 86.9105C300.332 86.9981 300.42 91.4663 300.507 92.43C300.858 96.2849 300.945 100.14 301.033 103.995ZM277.027 90.7654C277.115 87.9618 277.29 85.0707 277.553 82.1795C277.641 81.2158 277.816 77.9741 279.218 77.8865C279.656 77.7989 280.006 78.1494 280.269 78.4122C281.758 80.5149 280.97 127.124 280.795 130.891C280.532 134.659 281.057 139.39 281.32 143.157C281.496 146.311 281.758 149.465 281.846 152.619C281.846 153.408 282.372 157.788 280.707 157.525C278.517 157.087 277.991 149.115 277.728 147.362C277.203 142.719 277.29 136.937 277.203 132.293C277.115 127.037 277.027 96.0221 277.027 90.7654ZM254.599 98.3C254.686 95.4964 254.774 92.6053 255.124 89.7141C255.212 88.7504 255.387 85.5087 256.789 85.4211C257.227 85.4211 257.578 85.6839 257.84 85.9468C259.242 88.0495 258.541 146.837 258.278 150.604C258.103 154.371 258.629 159.102 258.892 162.87C259.067 166.024 259.33 169.178 259.417 172.332C259.417 173.12 259.943 177.501 258.191 177.238C256.088 176.8 255.563 168.827 255.3 167.075C254.686 162.432 254.862 156.649 254.774 152.006C254.686 146.749 254.599 103.557 254.599 98.3ZM232.871 99.3513C233.046 95.4964 233.134 91.6415 233.397 87.8742C233.484 86.8229 233.572 82.3547 235.149 82.2671C235.587 82.2671 235.938 82.6175 236.2 83.0556C237.602 85.6839 236.814 113.632 236.638 118.538C236.376 123.795 236.901 129.753 237.164 135.097C237.427 139.302 237.602 143.508 237.69 147.713C237.777 148.501 238.303 154.459 236.463 154.021C234.361 153.495 233.835 142.544 233.66 140.616C233.397 137.988 233.397 135.272 233.309 132.644C233.222 128.614 233.134 124.496 233.046 120.378C232.959 113.369 232.871 106.36 232.871 99.3513ZM211.582 116.436C211.669 110.653 211.844 104.871 212.107 99.1761C212.195 98.1248 212.195 91.2035 213.859 91.1159C214.473 91.1159 214.736 91.6415 214.911 92.1672C215.524 93.9194 215.524 100.052 215.612 101.98C215.699 108.025 215.699 113.982 215.699 120.028C215.612 128.351 215.524 136.761 215.349 145.172C215.086 153.32 215.612 161.906 215.875 170.054C216.05 176.362 216.313 182.67 216.4 188.978C216.488 190.993 216.488 193.096 216.4 195.198C216.4 195.899 216.488 198.615 215.086 198.09C213.684 197.564 213.421 192.395 213.246 191.168C212.808 186.875 212.633 182.582 212.282 178.289C212.107 174.347 212.02 170.317 212.02 166.374C211.844 160.241 211.844 154.109 211.757 147.976C211.669 137.462 211.582 126.949 211.582 116.436ZM186.612 131.855C186.7 128 186.787 124.145 187.138 120.378C187.226 119.327 187.313 114.859 188.803 114.771C189.328 114.683 189.679 115.121 189.854 115.472C191.256 118.188 190.467 146.048 190.292 151.042C190.117 156.299 190.555 162.256 190.818 167.513C191.08 171.718 191.256 175.924 191.431 180.129C191.431 181.005 192.044 186.963 190.204 186.437C188.014 185.912 187.488 174.96 187.313 173.033C187.05 170.492 187.05 167.776 186.963 165.148C186.875 161.03 186.787 157 186.787 152.882C186.7 145.873 186.612 138.864 186.612 131.855ZM165.848 161.818C165.936 157.963 166.024 154.109 166.374 150.341C166.462 149.29 166.549 144.822 168.039 144.734C168.564 144.734 168.915 145.085 169.09 145.523C170.492 148.151 169.791 189.679 169.528 194.585C169.353 199.842 169.878 205.887 170.141 211.144C170.317 215.349 170.579 219.554 170.667 223.76C170.667 224.636 171.28 230.506 169.44 230.068C167.25 229.542 166.724 218.591 166.549 216.663C166.286 214.122 166.286 211.319 166.199 208.778C166.111 204.66 166.024 200.543 166.024 196.513C165.936 189.504 165.848 168.827 165.848 161.818Z" fill="#84AEA4"/>
<path fill-rule="evenodd" clip-rule="evenodd" d="M147.099 193.797C147.275 189.942 147.362 186.087 147.625 182.232C147.713 181.268 147.8 176.8 149.377 176.712C149.815 176.625 150.166 176.975 150.429 177.413C151.83 180.129 151.042 207.99 150.867 212.984C150.604 218.24 151.13 224.198 151.392 229.455C151.655 233.66 151.83 237.865 151.918 242.071C152.006 242.421 152.093 243.648 152.093 244.874L148.676 242.859C148.151 239.618 147.976 236.025 147.888 234.974C147.625 232.433 147.625 229.63 147.538 227.089C147.45 222.971 147.362 218.941 147.275 214.823C147.187 207.815 147.099 200.806 147.099 193.797ZM146.399 154.547C146.399 154.547 146.574 168.039 148.589 168.389C150.604 168.74 150.867 164.447 150.692 160.066C150.429 155.773 151.13 149.027 146.399 154.547ZM125.284 171.368C125.372 168.477 125.459 165.586 125.81 162.782C125.897 161.818 126.073 158.577 127.387 158.402C127.913 158.402 128.263 158.664 128.438 159.015C129.928 161.03 129.139 181.882 128.964 185.649C128.789 189.416 129.227 194.147 129.49 197.914C129.752 201.068 129.928 204.222 130.103 207.376C130.103 208.165 130.541 212.546 128.876 212.283C126.774 211.845 126.16 203.872 125.985 202.12C125.372 197.564 125.459 191.694 125.372 187.051C125.284 181.794 125.284 176.625 125.284 171.368ZM211.582 116.436C211.669 110.653 211.844 104.871 212.107 99.1762C212.195 98.1249 212.195 91.2036 213.859 91.116C214.473 91.116 214.736 91.6416 214.911 92.1673C215.524 93.9195 215.524 100.052 215.612 101.98C215.699 108.025 215.699 113.983 215.699 120.028C215.612 128.351 215.524 136.762 215.349 145.172C215.086 153.32 215.612 161.906 215.874 170.054C216.05 176.362 216.313 182.67 216.4 188.978C216.488 190.993 216.488 193.096 216.4 195.198C216.4 195.899 216.488 198.615 215.086 198.09C213.684 197.564 213.421 192.395 213.246 191.168C212.808 186.875 212.633 182.582 212.282 178.289C212.107 174.347 212.02 170.317 212.02 166.374C211.844 160.241 211.844 154.109 211.757 147.976C211.669 137.462 211.582 126.949 211.582 116.436ZM186.612 131.855C186.7 128 186.787 124.146 187.138 120.378C187.226 119.327 187.313 114.859 188.803 114.771C189.328 114.683 189.679 115.122 189.854 115.472C191.256 118.188 190.467 146.048 190.292 151.042C190.117 156.299 190.555 162.257 190.818 167.513C191.08 171.719 191.256 175.924 191.431 180.129C191.431 181.005 192.044 186.963 190.204 186.437C188.014 185.912 187.488 174.96 187.313 173.033C187.05 170.492 187.05 167.776 186.963 165.148C186.875 161.03 186.787 157 186.787 152.882C186.7 145.873 186.612 138.864 186.612 131.855ZM165.848 161.818C165.936 157.964 166.024 154.109 166.374 150.341C166.462 149.29 166.549 144.822 168.039 144.734C168.564 144.734 168.915 145.085 169.09 145.523C170.492 148.151 169.791 189.679 169.528 194.585C169.353 199.842 169.878 205.887 170.141 211.144C170.316 215.349 170.579 219.554 170.667 223.76C170.667 224.636 171.28 230.506 169.44 230.068C167.25 229.542 166.724 218.591 166.549 216.663C166.286 214.123 166.286 211.319 166.199 208.778C166.111 204.661 166.024 200.543 166.024 196.513C165.936 189.504 165.848 168.827 165.848 161.818Z" fill="#84AEA4"/>
</svg>
