<svg width="436" height="455" viewBox="0 0 436 455" fill="none" xmlns="http://www.w3.org/2000/svg">
<path fill-rule="evenodd" clip-rule="evenodd" d="M275.673 28.9468C275.673 28.9468 207.248 -6.9739 152.228 31.838C97.1203 70.7375 94.8424 79.4111 57.1694 95.6192C19.4965 111.827 -1.35509 169.213 8.63262 193.306C18.6203 217.312 35.2665 247.45 37.194 264.797C39.0338 282.232 36.8435 353.197 36.8435 353.197L70.4864 385.701C70.4864 385.701 122.177 412.598 193.493 389.468C264.809 366.251 324.122 379.656 346.112 372.91C368.103 366.076 389.48 321.219 389.48 321.219C389.48 321.219 382.121 256.474 391.407 235.622C400.694 214.683 420.757 200.227 420.757 200.227C420.757 200.227 445.026 166.585 409.631 135.307C374.323 104.03 332.007 52.1639 275.673 28.9468Z" fill="#C7D6C1" fill-opacity="0.5"/>
<path fill-rule="evenodd" clip-rule="evenodd" d="M12.2246 201.541C22.1247 223.882 35.5293 249.377 37.1939 264.797C39.0337 282.232 36.8435 353.197 36.8435 353.197L70.4863 385.701C70.4863 385.701 122.177 412.598 193.493 389.468C264.809 366.251 324.122 379.656 346.112 372.91C368.103 366.076 389.48 321.219 389.48 321.219C389.48 321.219 382.121 256.474 391.407 235.622C400.694 214.683 420.757 200.227 420.757 200.227C420.757 200.227 423.473 196.548 425.751 190.415C410.769 176.222 389.392 160.802 361.795 153.706C303.183 138.636 203.568 215.735 203.568 215.735C203.568 215.735 165.282 165.358 108.51 161.24C71.8881 158.612 34.3027 183.493 12.2246 201.541Z" fill="#84AEA4" fill-opacity="0.62"/>
<path fill-rule="evenodd" clip-rule="evenodd" d="M207.073 395.075C207.073 395.075 204.006 419.256 204.006 421.271C204.006 423.286 211.278 433.537 211.278 433.537L231.078 435.114L242.468 429.419C242.468 429.419 235.371 418.555 234.232 411.284C233.181 403.924 232.48 398.668 232.48 398.668L207.073 395.075Z" fill="#EDB9A9"/>
<path fill-rule="evenodd" clip-rule="evenodd" d="M240.453 426.09C238.262 422.323 234.933 416.015 234.232 411.284C233.969 409.006 233.619 406.991 233.356 405.238C232.83 404.187 232.568 403.486 232.655 403.486C233.093 403.486 223.368 405.764 223.368 405.764C223.368 405.764 217.148 411.196 221.791 421.622C226.435 432.047 237.036 429.244 237.036 429.244L240.453 426.09Z" fill="#FFE1D7"/>
<path fill-rule="evenodd" clip-rule="evenodd" d="M245.359 381.846L245.008 407.078C245.008 407.078 257.8 421.096 272.606 422.585C287.325 423.987 297.838 418.731 297.838 418.731C297.838 418.731 286.449 412.598 282.506 407.166C278.564 401.734 273.92 398.843 273.832 387.979C273.657 377.115 245.359 381.846 245.359 381.846Z" fill="#EDB9A9"/>
<path fill-rule="evenodd" clip-rule="evenodd" d="M290.742 421.184C295.21 420.045 297.838 418.731 297.838 418.731C297.838 418.731 286.449 412.598 282.506 407.166C278.739 401.822 274.271 399.018 273.833 389.03C266.649 392.097 259.903 395.601 260.516 397.353C261.83 400.945 266.824 401.296 274.008 409.969C277.775 414.613 284.434 418.731 290.742 421.184Z" fill="#FFE1D7"/>
<path fill-rule="evenodd" clip-rule="evenodd" d="M204.795 413.123C204.795 413.123 206.46 422.41 212.68 427.141C218.9 431.872 230.816 431.872 234.495 430.558C238.175 429.156 240.54 426.44 240.54 426.44C240.54 426.44 245.885 433.537 246.06 439.67C246.235 445.802 246.06 448.256 236.423 451.41C226.785 454.564 211.891 453.512 207.336 451.497C202.868 449.394 199.451 445.102 199.801 441.772C200.152 438.443 204.795 413.123 204.795 413.123ZM243.782 400.945C243.782 400.945 241.066 409.794 241.241 416.453C241.504 423.111 240.453 426.177 244.571 428.28C248.776 430.383 272.168 436.603 272.168 436.603C272.168 436.603 303.27 442.999 312.908 439.319C322.545 435.639 320.705 432.223 318.339 429.331C316.062 426.44 306.074 422.235 305.548 421.709C305.023 421.184 295.473 417.942 295.473 417.942C295.473 417.942 288.99 422.673 279.09 421.096C269.189 419.607 260.603 415.401 254.558 411.809C248.513 408.217 243.782 400.945 243.782 400.945Z" fill="#67A39F"/>
<path fill-rule="evenodd" clip-rule="evenodd" d="M204.795 413.123C204.795 413.123 206.284 421.534 211.804 426.44C207.336 434.238 211.278 446.328 214.169 452.987C211.191 452.636 208.825 452.11 207.336 451.497C202.867 449.394 199.451 445.102 199.801 441.772C200.152 438.443 204.795 413.123 204.795 413.123ZM242.468 429.419C242.643 429.682 242.818 430.032 242.994 430.295C242.818 430.032 242.643 429.77 242.468 429.419ZM272.343 436.691C271.029 431.96 268.05 424.075 261.392 415.489C258.851 414.262 256.573 413.036 254.558 411.809C248.513 408.217 243.782 400.945 243.782 400.945C243.782 400.945 241.066 409.794 241.241 416.453C241.504 423.111 240.453 426.177 244.571 428.28C248.776 430.383 272.168 436.603 272.168 436.603L272.343 436.691Z" fill="#02968D"/>
<path fill-rule="evenodd" clip-rule="evenodd" d="M226.084 431.259C229.676 431.434 232.83 431.171 234.495 430.558C238.175 429.156 240.54 426.44 240.54 426.44C240.54 426.44 241.066 427.141 241.679 428.192C241.942 428.631 242.205 428.981 242.468 429.419C244.045 432.047 245.972 435.99 246.06 439.67C246.235 445.802 246.06 448.255 236.422 451.41C234.144 452.11 231.516 452.636 228.8 452.987C230.552 451.234 232.655 448.606 233.268 445.189C234.495 438.881 227.924 432.836 226.259 431.96C226.084 431.872 225.997 431.609 226.084 431.259ZM313.783 438.969C312.995 436.516 311.33 433.449 307.651 430.821C301.868 426.528 290.917 423.286 285.134 421.359C291.53 420.745 295.473 417.942 295.473 417.942C295.473 417.942 305.022 421.184 305.548 421.709C306.074 422.235 316.061 426.44 318.339 429.331C320.617 432.135 322.457 435.377 313.783 438.969Z" fill="#84AEA4"/>
<path fill-rule="evenodd" clip-rule="evenodd" d="M298.714 240.791C298.714 240.791 298.539 263.132 298.276 265.848C298.101 268.564 290.479 305.536 290.479 305.536L283.82 342.859C283.82 342.859 301.08 346.1 308.439 338.916C315.886 331.82 319.303 313.684 319.303 313.684C319.303 313.684 321.844 287.926 319.04 273.909C316.324 259.803 314.66 246.924 312.031 241.317C309.403 235.622 308.527 233.87 308.527 233.87L298.714 240.791Z" fill="#84AEA4"/>
<path fill-rule="evenodd" clip-rule="evenodd" d="M312.557 333.397C317.201 325.074 319.303 313.684 319.303 313.684C319.303 313.684 321.844 287.926 319.04 273.909C316.324 259.803 314.66 246.924 312.031 241.317C309.403 235.622 308.527 233.87 308.527 233.87L302.832 237.9C302.569 238.338 302.394 238.864 302.131 239.39C302.131 239.39 307.388 256.737 308.264 262.957C309.14 269.178 311.593 275.31 310.98 279.165C310.454 283.108 312.732 287.05 312.908 291.518C312.995 295.987 314.572 304.222 314.046 306.85C313.521 309.391 314.222 314.297 313.346 314.385C312.469 314.473 308.089 305.186 306.862 302.558C305.636 299.842 303.533 296.688 303.533 296.688C303.533 296.688 300.379 304.222 299.591 305.098C298.89 305.974 302.832 316.751 303.27 319.642C303.708 322.533 306.775 321.044 307.914 326.3C308.527 329.279 310.367 332.083 312.557 333.397Z" fill="#67A39F"/>
<path fill-rule="evenodd" clip-rule="evenodd" d="M110.35 354.774C110.35 354.774 116.833 342.508 121.651 339.267C126.47 336.025 130.5 331.82 130.5 331.82L160.201 286.525C160.201 286.525 190.427 250.429 200.327 241.405C210.227 232.468 215.483 227.212 227.399 224.758C239.314 222.305 248.163 227.387 250.178 230.19C252.105 233.082 265.51 212.931 283.645 220.904C301.693 228.876 299.503 252.093 298.802 263.658C298.189 275.31 291.705 305.186 291.18 305.011C290.654 304.923 277.337 376.064 277.337 381.671C277.337 387.365 275.935 389.118 272.256 390.782C268.576 392.535 245.271 388.592 245.271 388.592L245.009 393.761L236.16 393.323C236.16 393.323 236.51 399.543 233.707 401.208C230.991 402.873 219.338 402.873 215.133 402.347C210.928 401.821 204.357 399.018 203.568 398.229C202.78 397.441 201.816 394.988 201.816 394.988C201.816 394.988 180.789 400.42 158.624 395.513C136.458 390.607 113.416 373.523 110.35 354.774Z" fill="#FFDF8C"/>
<path fill-rule="evenodd" clip-rule="evenodd" d="M290.216 309.041C287.062 324.022 277.337 376.852 277.337 381.671C277.337 387.366 275.936 389.118 272.256 390.782C270.854 391.483 266.561 391.308 261.83 390.782C264.809 387.891 267.7 384.562 267.7 382.985C267.7 379.831 272.694 350.656 273.92 346.188C275.235 341.72 275.235 338.391 276.461 332.433C277.425 327.089 286.011 307.639 290.216 309.041Z" fill="#F2D97E"/>
<path fill-rule="evenodd" clip-rule="evenodd" d="M293.02 297.827C292.056 302.207 291.355 305.098 291.18 305.011C291.092 305.011 291.005 305.449 290.829 306.15L290.479 306.675C290.479 306.675 268.226 304.748 264.458 308.778C260.691 312.896 261.567 319.992 260.253 323.847C258.939 327.79 254.558 374.311 253.419 381.934C253.069 385 253.156 387.628 253.419 389.819C248.863 389.205 245.271 388.592 245.271 388.592L245.184 390.344L241.417 388.329C241.417 388.329 243.081 339.617 242.03 339.53C240.891 339.442 251.054 278.464 251.054 278.464C251.054 278.464 253.595 256.474 253.419 249.377C253.332 242.281 256.31 231.417 256.31 231.417C257.449 232.906 263.67 242.456 264.283 249.29C264.809 256.036 266.999 267.075 266.999 267.075C266.999 267.075 284.609 266.111 286.361 268.126C287.675 269.791 291.443 289.503 293.02 297.827Z" fill="#FFDF8C"/>
<path fill-rule="evenodd" clip-rule="evenodd" d="M239.576 393.411L236.16 393.323C236.16 393.323 236.51 399.543 233.706 401.208C232.918 401.646 231.516 401.997 229.676 402.172C226.259 402.61 222.93 402.61 221.791 402.61H221.704C221.791 402.61 226.96 398.843 227.398 393.498C227.836 388.154 238.35 347.502 240.628 351.532C242.555 354.949 240.277 382.109 239.576 393.411Z" fill="#F2D97E"/>
<path fill-rule="evenodd" clip-rule="evenodd" d="M110.35 354.774C110.35 354.774 116.833 342.508 121.651 339.267C126.47 336.025 130.5 331.82 130.5 331.82L132.691 328.403C152.053 326.037 181.315 322.883 183.593 324.898C187.097 327.965 201.29 322.883 201.29 322.883C201.29 322.883 216.097 326.037 217.323 325.249C218.55 324.46 241.854 329.367 241.854 329.367L244.658 336.638C244.658 336.638 223.719 339.968 219.426 347.327C215.045 354.774 219.689 361.257 217.498 368.179C215.308 375.187 217.674 389.205 217.236 394.988C216.973 397.791 217.411 400.507 217.849 402.522C216.798 402.522 215.834 402.435 215.133 402.347C210.928 401.821 204.357 399.018 203.568 398.229C202.78 397.441 201.816 394.988 201.816 394.988C201.816 394.988 180.789 400.42 158.624 395.513C136.458 390.607 113.416 373.523 110.35 354.774ZM153.805 296.249L160.201 286.525C160.201 286.525 162.741 283.546 166.596 278.99C167.122 281.268 168.962 286.7 174.043 288.978C180.526 291.869 190.076 295.373 190.076 295.373L188.061 300.367C188.061 300.367 157.572 299.141 153.805 296.249Z" fill="#FFDF8C"/>
<path fill-rule="evenodd" clip-rule="evenodd" d="M281.805 220.203C282.419 220.378 283.032 220.641 283.645 220.904C301.693 228.876 299.503 252.093 298.802 263.658C298.802 265.06 298.627 266.724 298.364 268.564L287.237 268.126C287.237 268.126 287.675 252.707 286.712 248.326C285.835 243.945 287.15 242.018 278.389 240.353C269.715 238.689 268.839 224.758 268.839 224.758C273.657 222.042 277.863 220.378 281.805 220.203Z" fill="#F2D97E"/>
<path fill-rule="evenodd" clip-rule="evenodd" d="M225.383 225.284C226.084 225.109 226.698 224.934 227.398 224.759C239.314 222.306 248.162 227.387 250.177 230.191C250.528 230.716 251.229 230.453 252.28 229.84C253.331 231.505 253.769 232.731 253.769 232.731C253.769 232.731 254.646 246.837 254.646 251.743C254.646 256.649 246.235 309.654 246.235 309.654C246.235 309.654 238.262 304.573 233.268 300.981C236.16 300.805 238.087 300.805 237.737 301.244C236.685 302.733 239.839 292.395 239.226 288.189C238.7 283.984 241.767 278.64 242.03 269.616C242.292 260.679 242.292 251.831 242.468 248.239C242.555 244.646 241.504 241.755 235.021 240.704C231.779 240.178 227.924 240.529 224.858 241.054C222.142 237.988 224.77 228.263 225.383 225.284Z" fill="#F2D97E"/>
<path fill-rule="evenodd" clip-rule="evenodd" d="M215.133 302.47C215.133 302.47 211.015 324.11 211.979 325.424C213.03 326.738 221.616 326.563 227.749 329.016C233.794 331.469 242.643 334.536 242.643 334.536L243.256 338.04C243.256 338.04 248.25 338.215 249.477 336.025C250.703 333.922 250.791 330.768 252.368 328.929C253.857 327.001 252.543 323.146 252.981 321.394C253.419 319.729 254.383 317.89 253.507 315.962C252.543 314.035 252.894 309.391 250.003 307.201C247.024 305.098 243.344 301.594 243.344 301.594C243.344 301.594 238.613 294.147 231.078 296.95C223.544 299.666 218.024 303.083 215.133 302.47Z" fill="#EDB9A9"/>
<path fill-rule="evenodd" clip-rule="evenodd" d="M230.816 330.243C236.423 332.433 242.643 334.536 242.643 334.536L243.256 338.04C243.256 338.04 248.25 338.215 249.477 336.025C250.703 333.922 250.791 330.768 252.368 328.929C253.857 327.001 252.543 323.146 252.981 321.394C253.419 319.729 254.383 317.89 253.507 315.962C252.543 314.035 252.894 309.391 250.002 307.201C247.024 305.098 243.344 301.594 243.344 301.594C243.344 301.594 238.613 294.147 231.078 296.95C228.1 298.002 225.471 299.228 223.193 300.192C222.317 300.542 220.565 324.022 230.816 330.243Z" fill="#FFE1D7"/>
<path fill-rule="evenodd" clip-rule="evenodd" d="M273.307 270.141C273.307 270.141 279.527 266.724 287.85 266.9C296.174 266.987 301.343 272.244 301.956 273.558C302.569 274.872 303.971 282.757 303.971 287.839C303.971 292.92 303.971 298.965 300.992 303.258C298.101 307.464 294.509 309.654 293.02 310.092C291.443 310.53 289.953 310.267 289.953 310.267C289.953 310.267 291.618 303.521 289.34 302.645C286.974 301.857 279.615 301.156 275.935 299.228C272.168 297.388 273.657 294.672 273.657 294.672C273.657 294.672 270.153 293.709 270.065 290.905C270.065 288.102 271.204 285.911 271.204 285.911C271.204 285.911 266.824 283.283 267.787 280.742C268.664 278.201 272.168 277.063 272.168 277.063C272.168 277.063 270.065 271.981 273.307 270.141Z" fill="#EDB9A9"/>
<path fill-rule="evenodd" clip-rule="evenodd" d="M292.494 267.513C298.101 269.002 301.43 272.507 301.956 273.558C302.569 274.872 303.971 282.757 303.971 287.839C303.971 292.92 303.971 298.965 300.992 303.258C298.101 307.464 294.509 309.654 293.019 310.092C291.442 310.53 289.953 310.267 289.953 310.267C289.953 310.267 291.18 305.011 289.953 303.171C290.654 303.784 294.859 296.6 294.684 295.899C294.421 295.111 291.18 293.621 291.18 293.621C291.18 293.621 289.34 292.219 289.515 289.241C289.69 286.174 294.071 285.21 291.618 283.546C289.165 281.881 286.273 274.785 288.376 274.171C290.479 273.471 294.421 275.573 294.421 275.573C294.421 275.573 293.72 274.609 292.231 271.28C291.618 269.703 291.968 268.477 292.494 267.513Z" fill="#FFE1D7"/>
<path fill-rule="evenodd" clip-rule="evenodd" d="M199.188 180.515C199.188 180.515 163.968 180.427 151.79 189.101C146.709 192.605 137.509 201.103 129.887 212.405C118.848 228.789 109.474 250.253 106.145 263.921C100.625 287.05 97.6462 306.675 101.413 327.352C105.093 348.028 110.35 354.774 110.35 354.774C110.35 354.774 119.637 341.808 124.192 337.865C128.748 333.835 132.078 331.907 132.078 331.907C132.078 331.907 145.044 334.098 160.464 333.747C175.883 333.397 194.457 330.243 197.961 329.717C201.466 329.104 210.227 329.191 210.227 329.191L212.067 322.708L215.221 301.769C215.221 301.769 181.666 298.44 173.255 298.352C164.844 298.177 154.857 296.074 154.857 296.074C154.857 296.074 158.273 289.503 159.588 287.401C160.989 285.298 182.191 261.468 184.294 258.577C186.397 255.598 204.445 236.498 210.227 232.468C216.009 228.438 221.091 225.722 221.178 226.336C221.354 226.949 199.188 180.515 199.188 180.515Z" fill="#84AEA4"/>
<path fill-rule="evenodd" clip-rule="evenodd" d="M177.373 181.917C167.735 183.055 157.31 185.158 151.79 189.101C146.709 192.605 137.509 201.103 129.887 212.405C120.6 226.248 112.452 243.595 108.159 256.912C105.969 271.631 105.181 285.473 106.144 295.023C108.773 321.482 129.887 312.195 136.984 313.509C144.08 314.823 148.986 315.436 154.856 312.808C160.639 310.18 180.001 313.859 190.777 312.633C198.487 311.844 208.562 312.983 213.556 312.721L215.221 301.769C215.221 301.769 181.666 298.44 173.255 298.352C164.844 298.177 154.856 296.074 154.856 296.074L155.557 294.76C148.986 294.497 140.839 295.899 140.839 295.899C140.839 295.899 134.881 297.651 130.588 296.337C126.207 295.111 128.748 287.488 128.923 277.325C129.011 267.163 131.464 257.876 132.515 249.027C133.479 240.266 147.322 224.145 148.724 223.006L181.928 191.729L177.373 181.917Z" fill="#67A39F"/>
<path fill-rule="evenodd" clip-rule="evenodd" d="M207.511 186.209C207.511 186.209 203.568 206.711 207.248 214.771C210.927 222.919 220.039 227.212 220.039 227.212C220.039 227.212 239.051 222.568 243.344 223.006C247.724 223.444 273.832 222.393 273.832 222.393C273.832 222.393 299.941 206.886 297.663 199.351C295.297 191.817 285.572 165.007 285.572 165.007C285.572 165.007 277.074 159.225 251.842 167.023C226.61 174.908 207.511 186.209 207.511 186.209Z" fill="#EDB9A9"/>
<path fill-rule="evenodd" clip-rule="evenodd" d="M249.827 167.636V167.723C249.827 167.723 248.338 174.207 252.368 178.149C256.486 182.179 259.202 182.705 263.144 184.019C264.371 184.72 264.984 186.56 264.721 187.962C264.371 189.363 258.851 196.898 255.96 197.862C253.156 198.913 251.229 200.052 253.945 202.33C256.661 204.608 261.655 199.702 262.268 199.088C262.794 198.475 266.911 192.167 268.664 190.327C270.503 188.487 276.286 186.91 276.286 186.91C280.228 187.085 284.083 186.385 286.536 183.581C292.143 176.923 280.316 166.409 280.316 166.409L249.827 167.636ZM255.347 188.925C255.347 188.925 249.74 183.844 246.848 184.194C243.957 184.632 243.519 189.013 248.075 191.466C252.543 193.919 257.537 191.992 255.347 188.925ZM274.008 205.133C274.008 205.133 268.751 200.665 267.612 202.593C266.473 204.433 268.226 207.762 272.08 207.849C276.023 207.937 274.008 205.133 274.008 205.133Z" fill="#FFE1D7"/>
<path fill-rule="evenodd" clip-rule="evenodd" d="M250.353 122.954C240.54 124.531 232.831 127.335 225.997 131.89C223.982 133.205 220.39 136.359 216.447 140.214C209.351 147.222 208.475 148.011 205.846 149.413C203.13 150.902 200.59 151.603 192.617 153.005C178.599 155.546 169.487 159.488 162.654 166.147C156.959 171.578 153.98 177.098 153.367 182.88C153.104 186.034 153.104 186.034 151.177 187.261C146.971 190.24 139.437 197.336 135.757 201.804C129.975 208.813 127.784 211.792 126.558 213.807C126.295 214.158 125.682 215.034 125.244 215.647C122.265 219.852 115.782 232.468 112.452 240.704C111.927 241.931 111.226 243.77 110.788 244.646C110.35 245.61 109.912 246.924 109.736 247.538C109.561 248.151 109.386 248.852 109.211 249.115C109.035 249.29 108.51 250.867 107.984 252.531C107.458 254.196 106.67 256.912 106.144 258.489C105.619 260.066 104.918 262.607 104.567 264.184C104.129 265.761 103.691 267.688 103.516 268.477C102.289 273.12 102.027 274.61 100.975 283.371C100.8 284.948 100.187 291.606 99.7487 298.265L98.8726 310.267L99.7487 320.255C100.187 325.775 100.8 331.294 100.975 332.521C101.676 336.901 102.815 341.632 103.516 343.297C103.691 343.735 104.217 345.224 104.655 346.626C106.407 352.058 111.489 363.272 114.292 367.828C114.818 368.704 115.431 369.756 115.606 370.019C115.694 370.369 115.957 370.719 116.044 370.895C116.22 370.982 117.359 372.472 118.76 374.224C122.09 378.692 126.295 382.459 132.34 386.49C138.123 390.344 141.277 392.009 144.869 393.323C146.27 393.761 147.672 394.287 148.11 394.462C149.162 394.9 152.491 395.952 154.681 396.477C158.273 397.441 159.938 397.704 170.013 399.368C173.342 399.982 184.031 399.982 186.396 399.456C187.36 399.193 190.427 398.668 193.23 398.229C196.034 397.791 198.837 397.266 199.451 397.09C200.327 396.915 200.59 397.09 201.203 398.317C201.553 399.193 202.517 400.157 203.305 400.683L204.795 401.559L204.444 404.45C203.919 410.145 203.305 413.912 200.94 426.353C199.889 431.96 199.188 437.304 199.013 441.334C198.837 445.715 198.925 445.978 199.889 447.73C200.852 449.307 204.006 452.023 204.882 452.023C204.97 452.023 205.671 452.286 206.372 452.636C212.417 455.265 225.208 455.615 234.583 453.337C235.547 453.074 237.036 452.724 238.087 452.461C242.906 451.322 245.271 449.745 246.586 446.941C247.549 444.926 247.725 441.597 247.024 438.794C246.761 437.917 246.323 436.078 245.972 434.676C245.622 433.362 245.184 431.872 244.921 431.347C244.395 430.208 244.833 429.682 245.797 430.295C246.148 430.47 249.477 431.609 253.156 432.836C256.924 433.975 260.253 435.114 260.691 435.289C262.356 435.99 269.365 437.917 272.781 438.618C280.842 440.371 284.609 440.984 291.53 441.772C296.437 442.386 297.575 442.386 298.276 441.948C298.714 441.685 300.204 441.422 301.606 441.422C303.796 441.422 304.234 441.334 304.584 440.546C304.935 439.933 304.935 439.582 304.584 439.144C304.059 438.618 303.445 438.531 301.08 438.794C295.911 439.407 288.99 438.618 274.972 435.727C271.555 435.026 267.963 434.15 266.211 433.537C265.247 433.274 262.794 432.486 260.691 431.872C258.764 431.259 256.661 430.558 256.223 430.383C255.785 430.295 253.857 429.594 251.93 428.981C250.002 428.368 247.374 427.404 245.972 426.791C243.694 425.739 243.519 425.564 242.994 423.812C242.205 420.746 243.081 408.042 244.308 405.852C244.571 405.326 244.833 404.888 244.833 404.8C244.921 404.713 246.673 406.377 248.776 408.48C250.879 410.67 253.507 413.036 254.646 413.737C258.413 416.453 264.458 419.169 270.766 421.096C276.812 422.936 278.476 423.199 283.996 423.199C288.464 423.199 289.69 423.024 291.706 422.235C293.02 421.709 294.509 420.833 295.035 420.308C296.261 419.081 295.911 418.993 304.146 422.761C305.636 423.374 307.388 424.25 308.089 424.513C312.382 426.353 314.046 427.229 315.361 428.543C316.149 429.244 317.113 430.032 317.376 430.12C317.639 430.295 318.252 431.171 318.515 432.223C319.128 433.975 319.128 434.15 318.427 435.026C318.077 435.552 316.938 436.253 315.886 436.779C315.01 437.304 313.346 438.093 312.207 438.618C311.155 439.144 310.367 439.757 310.454 439.933C310.63 440.721 312.82 440.721 315.185 439.933C317.901 439.144 318.69 438.706 320.267 437.304C321.406 436.253 321.493 435.902 321.493 433.8C321.406 431.785 321.231 430.996 320.004 429.156C317.901 425.915 316.85 425.126 308.965 421.709C308.176 421.359 307.388 421.008 307.213 421.008C306.599 421.008 295.385 415.226 292.757 413.474C289.603 411.459 280.579 402.96 279.177 400.683C278.739 399.894 278.213 399.106 278.126 399.018C277.951 398.93 277.425 397.967 276.899 396.828C276.636 396.39 276.461 396.039 276.286 395.776L275.235 391.133C275.76 390.958 276.373 390.52 276.899 390.082C278.213 388.943 278.301 388.767 278.564 384.825C278.827 380.62 279.878 372.472 281.105 365.112C281.28 364.411 281.63 361.958 281.981 359.856C282.331 357.753 282.769 355.037 282.944 353.898C283.295 351.971 283.558 350.744 283.996 347.327C284.434 344.962 284.959 344.611 287.413 345.137C290.917 345.838 297.926 345.663 300.291 344.874C308.264 341.895 312.294 338.566 315.536 332.433C317.025 329.542 319.303 323.409 319.303 322.095C319.303 321.832 319.391 321.219 319.654 320.781C320.004 320.08 321.055 314.21 321.493 310.53C322.457 302.295 322.545 286.7 321.756 282.319C321.493 281.356 321.055 278.465 320.705 276.011C320.354 273.558 319.916 270.755 319.654 269.703C318.865 265.586 318.427 263.132 317.814 259.102C317.463 256.737 317.025 254.109 316.85 253.145C315.361 247.012 315.098 245.698 314.66 244.384C314.485 243.595 314.134 242.631 313.959 242.193C313.784 241.755 313.17 239.828 312.557 237.9C311.944 235.973 311.155 233.87 310.892 233.082C310.542 232.381 310.279 231.68 310.279 231.592C310.279 231.505 309.929 230.541 309.491 229.577C308.264 226.774 307.826 224.846 307.3 219.94C306.512 212.843 307.125 209.427 309.841 204.433C311.068 202.418 312.469 199.877 313.083 199.001C316.675 193.569 319.566 187.787 320.617 183.844C322.019 178.412 322.282 175.609 321.756 172.717C320.705 167.373 320.179 165.621 318.164 161.153C314.66 153.793 306.161 144.857 299.415 141.615C297.926 140.914 296.875 140.126 296.875 139.775C296.875 139.425 296.349 138.461 295.736 137.585C292.494 132.591 282.506 126.984 271.73 124.093C266.298 122.604 255.522 121.99 250.353 122.954ZM226.61 206.886C225.471 208.375 223.982 211.442 223.807 217.224C223.631 220.816 223.544 222.919 223.544 224.145C222.317 224.408 221.266 224.671 221.003 224.846C220.653 225.021 220.127 225.021 219.776 224.846C213.556 221.955 210.928 219.677 209 215.822C205.496 208.463 207.336 199.439 213.03 197.161C213.293 197.073 215.045 195.934 216.885 194.533C218.9 193.218 220.653 192.167 220.915 192.167C221.178 192.167 221.704 191.992 222.142 191.817C223.106 191.379 225.384 190.678 227.311 190.415C233.531 189.364 239.139 185.071 242.205 178.938C242.994 177.273 246.498 173.506 247.9 172.805C251.93 170.702 257.975 169.826 263.757 170.527C270.153 171.228 278.914 171.14 280.316 170.352C281.017 170.001 281.543 169.739 281.543 169.739C281.543 169.739 281.455 171.403 281.367 173.418C281.28 176.835 281.893 181.303 282.944 183.844C283.12 184.282 283.82 185.947 284.434 187.524C285.047 189.013 286.712 192.255 288.113 194.445L290.742 198.65L289.165 200.227C288.376 201.104 287.325 202.242 286.799 202.768C286.361 203.381 285.397 204.345 284.609 204.958C283.032 206.185 276.549 210.566 276.286 210.566C276.111 210.566 274.621 211.179 272.869 212.055C271.117 212.843 269.189 213.72 268.488 213.982C267.788 214.333 266.649 214.859 265.773 215.209C263.144 216.348 257.8 217.662 252.543 218.538C242.818 220.028 238.438 219.677 234.583 216.698C233.006 215.559 232.217 214.508 230.903 211.792C229.852 209.865 229.151 207.937 229.151 207.412C229.151 206.535 228.45 205.659 227.661 205.659C227.223 205.659 226.785 206.185 226.61 206.886ZM234.933 225.372H235.459C235.547 225.372 235.722 225.372 235.809 225.46C236.335 225.547 237.474 225.81 238.525 226.073C241.154 226.598 242.994 227.475 245.359 229.314C247.024 230.629 247.812 231.68 249.302 234.659C250.265 236.761 251.317 239.477 251.579 240.704C252.28 243.77 252.543 255.948 252.017 258.489C251.842 259.54 251.317 263.483 250.966 267.075C250.616 270.667 250.178 273.996 250.09 274.61C250.002 275.135 249.74 276.975 249.477 278.64C248.863 283.634 247.9 290.555 247.462 292.745C247.286 293.884 246.936 296.162 246.673 297.827C245.972 302.47 246.148 302.382 243.256 299.579C239.314 295.724 238 295.023 234.758 295.023C232.042 295.023 231.341 295.198 225.909 297.651C224.245 298.44 222.755 299.053 222.58 299.053C222.317 299.053 221.879 299.228 221.441 299.404C221.091 299.666 219.689 300.017 218.375 300.367C216.535 300.718 215.834 300.718 215.221 300.367C214.695 300.017 212.242 299.842 208.124 299.842H201.816V297.914C201.816 296.863 201.991 294.935 202.254 293.534C202.429 292.22 202.867 289.942 203.043 288.452C203.305 286.963 203.656 284.86 203.831 283.809C204.006 282.67 204.444 279.866 204.795 277.676C205.145 275.398 205.583 272.595 205.846 271.543C207.949 261.994 208.387 258.051 207.423 257.788C207.248 257.701 207.16 257.701 206.985 257.788C206.46 257.876 205.759 258.314 204.532 260.066C201.728 262.694 197.436 267.601 193.668 275.661C189.025 285.999 185.52 294.935 184.206 298.352C180.526 298.002 176.496 297.564 172.641 297.038C171.064 296.863 168.261 296.425 166.509 296.25C164.669 295.987 162.303 295.636 161.252 295.374C160.201 295.198 158.799 295.023 158.098 295.023C157.485 295.023 156.959 294.848 156.959 294.673C156.959 294.322 160.113 289.679 160.551 289.241C160.726 289.153 162.917 286.262 165.457 282.933C170.364 276.537 171.678 274.872 177.285 268.302C187.535 256.299 210.577 232.994 212.154 232.994C212.329 232.994 213.03 232.556 213.819 231.943C217.323 229.314 224.595 226.774 231.078 226.073C232.918 225.81 234.583 225.547 234.758 225.46C234.846 225.372 234.846 225.372 234.933 225.372ZM167.122 256.912L166.158 276.8C167.735 274.697 169.75 272.244 173.868 267.25C182.454 256.912 203.568 235.272 208.913 231.33C211.891 229.139 214.783 227.299 215.133 227.299C215.396 227.299 215.659 227.037 216.009 226.774C216.36 226.423 215.922 226.073 214.345 225.284C209.614 222.919 205.321 216.874 204.707 211.792C204.532 210.478 204.357 209.251 204.182 209.164C203.744 208.726 203.043 213.457 202.78 218.1C202.517 224.583 201.728 231.33 201.378 231.592C201.115 231.68 200.94 232.118 200.94 232.556C200.94 233.695 198.399 238.776 196.297 241.405C191.566 247.713 182.629 253.583 174.218 255.773C171.853 256.386 169.4 256.824 167.122 256.912ZM114.818 243.069C115.957 242.369 117.096 241.668 117.446 241.58C117.534 241.58 117.621 241.58 117.797 241.58C118.673 241.58 118.848 242.719 118.147 244.646C117.972 245.347 117.534 247.012 117.359 248.501C117.096 249.991 116.745 251.918 116.57 252.97C116.395 254.021 116.044 255.948 115.782 257.263C115.519 258.577 115.256 260.154 115.168 260.767C114.993 261.293 114.73 263.045 114.467 264.622C114.205 266.111 113.854 268.477 113.679 269.703C112.19 278.815 111.138 289.591 111.138 294.76C111.138 298.703 111.751 305.799 112.452 310.092C114.205 320.868 118.936 326.3 128.66 328.929C136.195 330.856 150.563 331.995 159.938 331.294C163.53 331.031 166.859 330.681 167.297 330.593C167.735 330.506 170.977 330.243 174.481 330.068C185.345 329.454 192.529 328.841 194.282 328.403C196.647 327.877 201.816 327.877 201.816 328.578C201.816 328.841 201.378 329.279 200.852 329.454C199.976 329.892 199.976 330.068 199.801 336.2C199.801 339.617 199.889 344.699 200.239 347.415C201.378 360.206 202.429 375.012 202.78 385.526C203.13 393.586 203.568 396.565 204.707 397.704C205.145 398.054 206.372 398.58 207.598 398.93C209.701 399.456 210.314 399.631 215.221 400.683C216.535 400.945 220.215 401.033 224.157 400.945C230.465 400.858 231.078 400.77 232.743 399.894C234.057 399.106 234.408 398.58 234.408 397.791C234.495 395.426 235.196 386.139 235.809 380.006C236.948 369.931 237.124 368.179 237.824 362.484C238.262 359.593 238.701 355.825 238.963 354.161C239.489 349.693 239.752 348.203 240.365 344.173C240.628 342.07 240.978 339.267 241.066 337.865L241.154 335.237L237.299 333.923C235.196 333.222 233.006 332.521 232.568 332.346C231.254 331.908 228.625 330.769 227.661 330.506C225.121 329.542 224.245 329.192 222.142 328.841C221.003 328.578 219.163 328.315 218.112 328.14C217.06 328.053 216.097 327.79 215.922 327.615C215.045 326.826 213.293 327.177 212.68 328.228C212.154 328.929 211.541 329.279 210.752 329.279C209.614 329.279 209.614 329.192 209.701 327.264C210.314 320.606 210.928 315.524 211.015 314.999C211.191 314.648 211.453 313.597 211.629 312.721C211.804 311.844 212.242 309.742 212.592 308.077C212.943 306.413 213.381 304.485 213.468 303.872L213.731 302.733L204.97 302.821C200.239 302.821 196.034 302.821 195.771 302.558C195.42 302.382 192.792 302.12 189.813 301.857C182.279 301.419 174.131 300.455 165.457 299.141C162.917 298.703 156.959 298.002 151.001 297.389C148.724 297.126 146.533 296.775 146.095 296.6C145.569 296.337 144.431 296.337 143.116 296.6C141.89 296.863 139.7 297.038 138.298 297.038C135.757 297.038 135.669 296.951 135.757 296.074C135.932 295.286 136.195 295.198 138.561 295.111C143.642 294.935 144.518 294.673 144.781 293.446C145.307 290.993 146.095 288.102 146.446 287.839C146.621 287.664 146.708 287.138 146.708 286.612C146.708 286.174 146.884 285.649 147.059 285.386C147.234 285.123 147.76 283.896 148.11 282.582C148.899 279.954 149.424 278.552 150.038 277.326C150.213 276.975 150.388 276.449 150.388 276.099C150.388 275.661 151.79 271.543 152.841 269.09C153.016 268.652 153.455 267.338 153.893 266.199C154.243 265.06 154.769 263.658 155.119 262.957C156.346 260.154 157.397 257 157.222 256.386C157.134 256.036 156.083 255.423 154.681 254.897C148.636 252.794 141.189 246.749 138.736 241.931C138.21 240.879 137.597 238.952 137.334 237.55C136.808 235.272 136.808 234.571 137.422 231.505C138.911 224.671 141.364 220.466 148.461 213.194C151.001 210.39 153.542 207.499 153.98 206.798C154.856 205.046 154.944 197.249 154.068 192.518C153.717 190.765 153.279 189.364 153.104 189.364C152.578 189.364 147.935 193.394 144.08 197.249C140.138 201.279 136.37 205.572 132.953 210.128C131.376 212.23 129.887 214.158 129.712 214.42C126.996 217.925 120.513 229.928 116.833 238.251C116.132 239.74 115.519 241.317 114.818 243.069ZM273.92 396.915C274.008 397.353 274.271 397.879 274.621 398.58C277.951 405.501 284.171 412.335 291.092 416.803C293.983 418.731 293.983 418.643 289.252 419.431C282.944 420.483 282.331 420.483 274.621 418.731C267.35 417.154 258.939 413.299 254.208 409.619C252.894 408.568 250.44 406.29 248.776 404.537C245.885 401.559 245.797 401.383 245.972 399.894C246.06 399.631 246.148 399.106 246.148 398.492C248.338 399.018 253.857 399.982 262.443 399.018C268.401 398.405 271.905 397.529 273.92 396.915ZM207.16 409.269C209.876 409.882 215.483 410.67 222.142 409.444C227.399 408.568 230.115 407.429 231.516 406.64C232.042 409.619 233.269 413.912 234.232 415.927C234.583 416.803 235.722 419.256 236.685 421.359C237.649 423.462 238.525 425.214 238.525 425.389C238.525 425.652 236.072 427.667 235.021 428.193C232.13 429.77 229.939 430.12 224.77 429.945C218.375 429.77 215.922 428.893 212.68 425.915C210.314 423.724 209.876 423.549 209.175 424.425C208.562 425.126 209.088 426.178 210.928 428.368C213.03 430.646 215.659 431.96 220.653 433.274C223.456 433.975 231.692 433.362 234.32 432.223C235.021 431.872 235.722 431.609 235.809 431.609C235.985 431.609 237.036 430.996 238.175 430.208C239.314 429.419 240.278 428.806 240.278 428.893C240.365 428.981 240.716 429.857 241.154 430.996C241.504 432.135 241.942 433.449 242.205 433.887C242.555 434.851 243.519 438.268 244.132 441.247C244.658 443.262 244.571 443.525 243.694 445.277C242.555 447.73 241.154 448.518 235.809 449.833C234.32 450.183 232.305 450.621 231.604 450.796C230.816 451.059 228.362 451.41 226.172 451.672C218.813 452.461 208.299 450.709 204.707 448.08C201.904 445.978 201.203 443.349 202.167 438.093C202.429 436.866 202.78 434.763 203.043 433.274C203.218 431.785 203.568 429.682 203.744 428.543C204.006 427.404 204.444 424.776 204.882 422.673C205.233 420.57 205.671 417.854 205.934 416.715C206.547 413.123 206.898 411.284 207.16 409.269ZM291.618 311.757C291.618 311.757 291.881 326.914 294.684 333.923C296.349 338.04 298.014 340.406 299.065 341.72L303.007 339.793C306.074 338.303 307.388 337.339 309.14 335.412C313.608 330.593 316.412 322.445 318.077 309.479C318.777 304.047 318.69 286.437 317.901 281.969C316.938 275.836 316.762 274.96 316.412 272.945C316.237 271.981 315.799 269.265 315.448 267.075C315.098 264.797 314.572 261.906 314.397 260.504C312.995 252.356 312.645 250.254 311.418 246.223C310.98 244.646 310.104 241.755 309.491 239.828L308.439 236.148L307.125 238.776C305.811 241.405 302.219 245.61 301.255 245.61C300.817 245.61 300.729 246.837 300.729 251.042C300.729 256.912 299.853 266.111 299.24 267.513C298.89 268.214 299.065 268.564 300.467 270.054C303.708 273.295 304.497 275.661 305.022 283.196C305.811 294.322 305.723 294.059 307.388 299.053C307.651 300.105 308.089 301.243 308.264 301.682C308.439 302.207 309.228 304.047 309.929 305.975C311.243 309.742 312.557 312.721 313.17 313.86C313.871 315.086 312.207 314.736 311.243 313.421C309.753 311.319 307.651 307.464 306.161 303.784C304.76 300.367 303.796 298.966 303.796 300.455C303.796 301.682 300.905 305.887 298.89 307.727C296.787 309.654 293.195 311.757 291.968 311.757C291.793 311.757 291.706 311.757 291.618 311.757ZM181.753 332.959C181.928 335.412 182.717 342.771 187.798 356.789C192.266 369.318 197.085 377.641 199.538 381.408V381.758C199.889 388.154 200.064 393.498 199.976 393.674C199.889 393.849 199.188 394.112 198.399 394.287C197.698 394.462 196.209 394.725 195.07 394.988C184.995 396.915 171.064 396.74 161.427 394.55C160.639 394.375 158.624 393.849 156.959 393.498C152.929 392.535 145.832 390.257 143.029 388.855C139.875 387.366 132.34 382.547 129.186 380.006C125.506 377.115 121.389 372.647 118.76 368.617C116.921 365.726 112.89 358.366 112.365 356.614C112.102 355.738 113.328 353.285 116.132 349.342C120.688 342.947 124.63 338.829 129.099 335.85L132.603 333.572L140.576 334.273C149.512 335.062 158.186 335.149 162.741 334.536C165.457 334.185 169.663 333.835 181.753 332.959ZM274.796 239.653C274.096 240.003 273.745 240.529 273.745 241.142V242.193L278.038 242.018C281.893 241.931 288.201 242.631 290.654 243.42C291.968 243.858 291.793 242.631 290.391 241.668C289.077 240.704 288.289 240.441 285.397 239.653C282.594 238.952 276.111 238.952 274.796 239.653ZM232.831 238.952C232.217 239.039 230.465 239.302 228.8 239.565C225.208 240.091 223.281 241.142 223.456 242.456C223.544 243.245 223.894 243.42 225.033 243.332C225.822 243.332 227.749 242.982 229.326 242.544C231.254 242.106 234.057 241.843 238.438 241.843C242.38 241.755 244.571 241.58 244.483 241.317C244.395 241.142 243.519 240.529 242.555 240.003C240.716 239.215 235.196 238.514 232.831 238.952ZM243.081 203.644C241.592 203.995 240.54 204.696 240.54 205.484C240.54 205.922 241.154 206.097 242.994 206.097C246.41 206.097 248.338 207.149 249.564 209.777C251.054 212.843 251.842 212.318 251.579 208.551C251.492 207.061 250.44 205.572 248.863 204.783C247.374 203.907 244.395 203.381 243.081 203.644ZM264.371 193.919C263.495 194.883 261.83 196.811 260.691 198.212C259.114 199.965 257.975 200.841 256.749 201.279C255.084 201.804 254.558 202.593 255.172 203.469C255.434 203.995 256.398 204.17 258.238 204.082C259.377 203.995 262.093 201.629 263.845 199.088C268.401 192.43 268.401 192.167 266.911 192.167C266.298 192.167 265.422 192.78 264.371 193.919ZM271.818 191.203C271.292 191.817 271.555 195.934 272.168 197.336C272.957 199.001 275.41 201.279 277.425 202.242C278.739 202.856 279.002 202.856 279.615 202.33C280.141 201.717 280.053 201.542 278.827 200.753C275.935 198.65 274.271 196.285 273.745 193.043C273.395 191.291 272.519 190.503 271.818 191.203ZM249.827 175.346C249.302 175.871 249.477 177.711 250.353 179.025C251.229 180.602 254.208 182.793 255.259 182.793C255.697 182.793 256.135 182.968 256.223 183.231C256.573 183.756 260.954 183.756 260.954 183.231C260.954 182.793 258.676 181.566 257.8 181.566C257.537 181.566 257.274 181.391 257.274 181.303C257.274 181.128 256.661 180.69 255.872 180.427C254.383 179.902 251.579 177.098 251.579 176.134C251.579 175.784 251.229 175.433 250.879 175.346C250.09 174.995 250.09 174.995 249.827 175.346ZM285.047 226.774C290.391 228.438 295.122 235.447 296.875 244.208C297.751 248.414 297.137 265.06 296.086 266.111C295.823 266.374 295.122 266.199 294.159 265.848C292.494 265.148 283.295 264.885 281.63 265.586C281.105 265.761 279.966 266.111 279.089 266.462C276.373 267.25 272.519 269.265 271.204 270.317C269.715 271.543 269.452 273.558 270.591 275.31C271.292 276.274 271.292 276.362 270.416 276.975C269.978 277.326 269.014 277.939 268.401 278.377C266.824 279.165 265.685 281.268 266.035 282.67C266.123 283.196 266.999 284.422 267.875 285.298C269.102 286.525 269.452 287.05 269.102 287.401C268.839 287.751 268.664 288.89 268.576 289.942C268.576 291.694 268.751 292.044 269.978 293.008C270.679 293.621 271.555 294.147 271.818 294.147C272.606 294.147 272.869 294.935 272.256 295.724C271.555 296.951 272.694 299.053 274.621 300.105C276.198 300.981 282.156 302.47 286.011 302.908C289.077 303.346 289.252 303.521 288.99 306.062C288.814 307.289 288.551 309.129 288.289 310.267C288.026 311.406 287.588 313.772 287.325 315.612C286.449 319.992 285.836 323.409 285.397 325.337C285.222 326.3 284.784 328.578 284.434 330.506C283.996 332.433 283.558 334.711 283.382 335.587C282.857 337.778 281.805 343.647 281.28 346.363C280.842 348.817 280.491 351.094 279.528 356.964C279.177 359.155 278.739 361.958 278.476 363.36C277.688 368.091 276.111 379.13 275.76 382.897C275.585 384.212 275.322 385.613 275.147 385.876C274.884 386.227 274.884 386.577 275.235 387.015C275.935 387.804 275.497 388.242 272.781 388.767C266.035 390.082 258.326 390.082 253.156 388.855C252.368 388.592 250.002 388.067 247.812 387.628C244.045 386.752 243.87 386.665 243.607 385.438C242.994 382.372 243.607 348.466 244.483 342.07L244.658 339.968L246.936 339.267C248.25 338.916 249.652 338.128 250.178 337.69C251.229 336.726 251.93 334.536 251.93 332.258C251.93 331.557 252.456 330.418 253.156 329.454C254.471 327.702 254.733 325.95 253.945 323.76C253.595 322.708 253.595 322.183 254.383 320.693C255.522 318.328 255.434 316.663 254.208 314.823C253.507 313.772 253.156 312.808 253.156 311.494C253.156 308.953 251.579 306.325 249.652 305.536C248.863 305.274 248.688 304.923 248.688 303.434C248.688 302.47 248.863 301.506 249.039 301.243C249.477 300.893 250.002 298.089 250.966 292.57C251.317 290.38 251.755 287.751 251.93 286.7C252.193 285.649 252.368 284.072 252.368 283.371C252.368 282.67 252.543 281.093 252.806 280.042C252.981 278.99 253.419 275.31 253.77 271.981C254.208 268.564 254.646 264.797 254.821 263.571C255.522 259.102 255.872 255.072 255.872 248.239C255.872 242.281 255.96 241.142 256.573 239.915C260.078 233.432 265.422 229.139 272.781 227.212C273.57 226.949 274.796 226.686 275.41 226.423C277.6 225.898 282.769 225.985 285.047 226.774ZM294.684 268.915C297.926 270.667 300.291 273.471 301.255 276.8C302.482 281.093 303.007 294.059 302.131 296.951C301.168 299.754 299.591 302.733 298.014 304.573C296.349 306.413 292.494 309.129 292.056 308.778C291.968 308.603 292.056 307.289 292.231 305.887C292.582 303.434 292.582 303.171 291.618 302.12C290.654 300.981 290.129 300.805 285.047 299.842C279.966 298.878 279.002 298.703 277.425 298.265C275.322 297.564 274.709 297.126 274.884 296.074C274.972 295.374 275.497 295.111 277.074 294.848C279.878 294.235 289.69 294.322 292.144 294.935C293.195 295.198 294.246 295.286 294.334 295.198C294.86 294.673 293.633 293.534 292.231 293.183C291.443 292.92 290.654 292.658 290.479 292.395C290.041 292.044 278.564 292.044 277.775 292.482C277.337 292.658 276.373 292.92 275.497 293.096C274.096 293.271 273.745 293.183 272.343 291.869C271.467 291.081 270.766 290.292 270.766 290.029C270.766 289.854 271.204 288.978 271.73 288.102C272.781 286.35 274.183 285.911 280.141 285.123C285.047 284.422 291.005 284.51 294.071 285.211C295.385 285.473 296.524 285.649 296.699 285.561C297.137 285.035 295.736 283.546 294.159 282.933C292.231 282.144 281.455 282.057 277.425 282.757C270.854 283.896 270.942 283.896 269.978 283.283C268.576 282.407 268.488 281.619 269.54 280.48C271.467 278.377 276.899 276.449 283.82 275.398C288.376 274.697 291.005 274.96 293.458 276.537C295.911 278.114 295.998 278.114 295.998 276.887C295.998 275.749 294.509 274.084 292.582 273.208C290.129 271.981 282.944 272.595 275.497 274.522C273.395 275.048 272.694 274.785 272.869 273.383C272.957 272.595 273.482 272.069 275.848 270.93C277.425 270.229 279.089 269.441 279.528 269.265C279.966 269.09 280.842 268.827 281.543 268.564C282.243 268.389 285.047 268.126 287.938 268.126C292.406 268.039 293.283 268.214 294.684 268.915ZM238.438 299.491C241.154 301.331 241.679 302.207 239.839 301.682C236.685 300.981 236.072 300.981 236.072 301.857C236.072 302.47 236.598 302.996 238.175 303.784C239.314 304.31 240.54 304.748 240.803 304.748C241.154 304.748 241.679 304.923 242.117 305.186C242.468 305.361 243.607 305.799 244.658 306.237C249.477 308.077 250.178 308.69 250.44 311.582C250.528 312.896 250.966 314.122 251.667 315.174C252.981 317.101 252.981 317.714 251.93 320.168C251.141 322.007 251.054 323.146 251.842 325.862C251.93 326.476 251.667 327.089 250.791 328.053C249.477 329.454 249.302 330.068 249.477 332.258C249.652 334.098 248.688 335.587 247.111 336.2C246.323 336.463 245.359 336.814 245.184 336.901C244.833 336.989 244.658 336.814 244.658 336.463C244.658 336.113 245.009 335.762 245.447 335.675C245.885 335.5 246.235 335.237 246.235 335.062C246.235 334.361 243.607 333.046 241.066 332.258C239.752 331.908 238 331.294 237.036 330.856C236.16 330.506 234.758 329.98 234.057 329.63C233.269 329.367 231.954 328.841 231.166 328.491C230.377 328.228 229.326 327.79 228.888 327.615C226.26 326.476 222.317 325.687 217.323 325.249C215.659 325.074 213.994 324.811 213.731 324.636C213.293 324.373 213.206 323.497 213.381 320.518C213.556 318.503 213.819 316.225 213.994 315.612C214.257 314.911 214.695 312.808 215.045 310.881C215.483 308.953 216.009 306.5 216.272 305.361L216.798 303.346L219.338 302.908C221.879 302.47 222.755 302.207 224.42 301.506C234.495 297.126 234.846 297.126 238.438 299.491ZM242.994 396.477C242.994 397.353 242.731 398.317 242.38 398.843C242.117 399.281 241.767 400.42 241.679 401.471C241.504 402.435 241.154 405.326 240.716 407.779C240.365 410.232 239.927 414 239.752 416.102L239.489 420.045L238.175 417.154C237.386 415.577 236.685 414 236.51 413.737C236.335 413.386 235.809 411.984 235.459 410.67C235.108 409.269 234.583 407.779 234.408 407.166C233.97 406.027 233.707 403.223 233.97 402.96C234.145 402.873 234.758 402.435 235.459 401.909C236.773 401.033 237.124 400.245 237.562 396.652L237.737 394.9H240.365H242.994V396.477Z" fill="#62736F"/>
<path fill-rule="evenodd" clip-rule="evenodd" d="M6.88023 193.657C6.70501 194.27 7.66874 198.738 8.45724 200.578C8.63247 201.016 9.07052 202.505 9.42097 203.82C10.2095 206.36 10.7351 208.2 11.2608 209.514C11.5236 209.952 12.1369 211.705 12.7502 213.369C13.3635 215.034 13.9768 216.874 14.152 217.312C14.3272 217.75 14.8529 219.239 15.2909 220.553C16.868 225.109 17.8317 227.913 18.2697 228.876C19.4963 231.68 23.5264 242.631 23.5264 243.157C23.5264 243.42 23.7017 243.946 23.8769 244.296C24.5778 245.523 27.9946 256.737 28.4327 259.278C29.8345 266.637 30.4477 273.033 30.4477 280.918C30.4477 289.416 29.8345 294.147 27.3813 305.011C27.0309 306.5 26.5928 308.603 26.4176 309.479C25.8043 312.195 24.6654 317.539 24.3149 319.291C22.037 331.294 21.6866 333.572 21.1609 338.391C20.8981 341.895 20.8981 342.158 21.5114 346.626C22.9131 357.841 28.7831 366.339 40.2602 373.961C50.0727 380.357 56.556 383.511 64.441 385.701C68.5588 386.928 71.3623 386.314 70.6614 384.474C70.4862 384.036 70.749 382.81 71.1871 381.671C71.6252 380.532 72.1508 378.78 72.5013 377.816C72.7641 376.765 73.1146 375.538 73.2898 375.012C73.9031 373.698 73.8155 367.741 73.2022 365.988C72.9393 365.2 72.3261 363.535 71.8004 362.396C71.2747 361.17 70.8367 360.118 70.8367 359.943C70.8367 359.768 70.1358 358.717 69.172 357.578C67.4198 355.475 62.5136 351.883 60.7613 351.445C58.6587 350.919 56.1179 349.693 56.1179 349.167C56.1179 348.904 58.3082 346.539 60.8489 343.91C66.8941 337.865 68.5588 335.062 70.3986 328.228C70.9243 326.125 70.9243 319.992 70.4862 318.415C70.311 317.714 69.7853 316.137 69.4349 314.911C68.8216 312.808 66.5437 308.778 65.0543 307.201C64.7915 306.851 64.003 305.975 63.3021 305.274L62.0755 303.959L65.7552 300.192C67.8579 298.09 69.8729 295.724 70.3986 294.848C72.6765 290.993 73.3774 286.963 72.4137 282.845C70.5738 274.96 67.6826 270.667 61.7251 266.549C60.1481 265.498 58.571 264.184 58.133 263.571C57.2569 262.344 57.2569 262.169 60.8489 254.985C63.7401 249.115 64.441 246.574 64.441 242.193C64.441 238.338 64.0906 236.586 62.426 233.082C60.4985 229.227 55.6799 225.372 50.3356 223.532C47.532 222.656 40.5231 221.605 36.7558 221.605C35.4416 221.605 33.8646 221.342 33.3389 220.991C32.3752 220.553 32.2876 220.378 30.623 213.369C28.8707 206.01 25.191 200.928 18.6202 197.424C16.4299 196.197 13.1007 195.058 11.8741 195.058C11.3484 195.058 10.3847 194.62 9.77142 194.007C8.36963 192.868 7.31829 192.693 6.88023 193.657Z" fill="#62736F"/>
<path fill-rule="evenodd" clip-rule="evenodd" d="M402.709 198.913C400.169 199.614 399.643 199.877 396.401 201.454C386.501 206.273 379.755 214.07 377.214 223.532C376.426 226.423 376.163 232.206 376.514 237.55C376.952 243.507 376.864 243.507 372.483 244.384C364.686 245.785 358.29 251.48 355.224 259.716C354.26 262.256 354.173 263.132 354.173 268.039C354.173 274.609 354.435 275.924 357.502 282.495C358.466 284.422 359.254 286.262 359.254 286.525C359.254 286.787 358.466 287.313 357.414 287.576C354.523 288.452 348.828 292.132 345.937 294.848C342.695 298.002 340.155 301.944 338.665 305.974C337.702 308.69 337.526 309.654 337.526 313.772C337.526 318.853 338.052 321.219 340.067 325.424C341.556 328.666 345.411 333.66 349.003 337.252C350.58 338.741 351.895 340.231 351.895 340.318C351.895 340.493 350.493 341.282 348.741 342.158C343.659 344.611 341.294 346.626 339.016 350.218C337.789 352.496 337.614 352.934 337.614 355.913C337.614 361.257 339.804 367.916 342.608 371.07C344.36 372.997 345.149 373.26 347.865 372.472C348.565 372.209 349.967 371.858 350.843 371.683C354.085 370.982 359.079 369.668 359.692 369.23C360.13 368.967 360.743 368.792 361.094 368.792C361.444 368.792 362.058 368.617 362.408 368.441C362.758 368.266 363.897 367.741 364.949 367.39C368.716 365.988 376.952 362.046 379.405 360.469C380.368 359.855 381.332 359.33 381.683 359.155C383.172 358.541 388.604 354.073 391.32 351.445C397.453 345.4 402.885 334.886 405.25 324.548C405.863 321.832 405.951 319.554 405.951 311.494C405.863 301.681 405.601 298.965 403.761 291.519C402.709 287.488 401.308 280.83 400.607 277.063C398.416 265.06 398.416 251.392 400.607 243.42C402.447 236.849 402.885 235.272 403.323 234.396C403.498 233.958 404.111 232.206 404.724 230.541C406.915 224.408 408.93 220.203 412.96 213.895C414.8 210.916 416.377 208.463 416.377 208.375C416.377 208.288 417.34 206.711 418.567 204.871C421.02 201.279 421.283 200.052 420.056 198.913C419.268 198.212 419.005 198.212 417.34 198.65C415.15 199.264 410.419 199.264 410.069 198.738C409.718 198.212 404.724 198.3 402.709 198.913Z" fill="#62736F"/>
<path fill-rule="evenodd" clip-rule="evenodd" d="M243.344 138.198C243.432 138.899 243.169 139.075 241.767 139.25C240.102 139.513 234.846 141.966 233.532 143.105C233.269 143.368 232.831 143.63 232.655 143.63C231.955 143.63 226.085 148.361 224.683 150.026C223.106 151.953 222.58 152.216 222.58 151.077C222.58 149.588 225.384 146.084 228.713 143.63C229.414 143.105 230.553 142.229 231.166 141.703C231.779 141.177 232.393 140.827 232.568 140.827C232.655 140.827 233.707 140.214 234.933 139.425C237.825 137.673 239.226 137.147 241.329 137.235C242.906 137.322 243.256 137.498 243.344 138.198ZM275.322 138.899C280.579 139.513 289.165 146.346 288.114 149.15C287.763 150.114 286.712 149.851 286.186 148.799C285.836 147.661 281.367 143.192 279.966 142.491C279.528 142.229 278.389 141.791 277.425 141.44C276.549 141.002 275.497 140.564 275.147 140.301C274.709 140.126 273.833 139.951 273.22 139.951C271.73 139.951 269.89 139.162 270.153 138.724C270.241 138.549 271.029 138.461 271.905 138.549C272.694 138.637 274.271 138.812 275.322 138.899ZM299.153 155.37C299.591 155.721 300.292 156.334 300.73 156.509C301.606 157.035 304.322 160.452 305.198 162.204C306.424 164.57 305.636 165.358 304.234 163.168C302.832 160.89 298.364 156.685 297.137 156.422C296.086 156.246 295.648 155.546 296.261 154.932C296.787 154.407 298.276 154.669 299.153 155.37ZM276.374 155.896C276.198 156.947 275.41 157.473 271.467 158.7C269.627 159.313 261.129 159.313 259.99 158.7C259.552 158.437 257.187 158.174 254.821 158.174C251.404 158.174 250.353 158.262 249.477 158.875C247.374 160.364 246.673 159.138 248.776 157.385C249.477 156.772 250.353 156.334 250.703 156.334C251.141 156.334 251.667 156.071 251.755 155.896C252.105 155.37 258.15 155.37 259.377 155.808C259.903 156.071 261.655 156.422 263.232 156.772C266.386 157.298 270.591 156.86 273.92 155.633C276.111 154.845 276.549 154.932 276.374 155.896ZM230.903 165.796C231.692 168.863 226.085 174.032 218.375 177.098C216.535 177.799 215.221 177.624 215.221 176.66C215.221 176.047 215.659 175.696 216.798 175.258C223.018 172.717 228.801 168.512 229.326 166.059C229.677 164.657 230.553 164.482 230.903 165.796ZM294.947 171.666C295.035 174.732 295.385 177.974 295.648 178.763C297.137 182.968 298.101 184.808 299.328 185.772C300.467 186.648 300.554 187.261 299.328 187.261C298.627 187.261 295.999 184.895 295.999 184.195C295.999 183.844 295.823 183.669 295.648 183.669C295.56 183.669 295.035 182.53 294.597 181.303C294.246 179.989 293.721 178.587 293.545 178.149C292.144 174.732 292.494 166.059 293.983 166.059C294.597 166.059 294.684 166.76 294.947 171.666ZM192.617 169.826C192.967 170.264 191.653 171.754 190.952 171.754C190.164 171.754 185.082 174.557 182.454 176.397C180.264 177.974 178.073 180.077 177.46 181.479C176.934 182.442 176.672 182.705 176.321 182.442C175.883 182.004 175.883 181.654 176.496 180.427C177.46 178.587 182.629 173.594 184.907 172.367C185.783 172.017 186.922 171.316 187.535 170.965C189.375 169.739 192.179 169.038 192.617 169.826ZM295.122 213.194C295.473 214.508 295.736 216.173 295.823 216.874C295.999 217.487 296.261 218.451 296.437 218.889C296.612 219.327 296.875 220.466 296.962 221.429C297.225 222.744 297.137 223.182 296.699 223.182C295.911 223.182 295.035 220.991 293.545 215.822C293.283 214.859 292.932 213.632 292.757 213.106C292.494 212.581 292.319 211.792 292.319 211.354C292.319 210.653 292.582 210.478 293.458 210.653C294.509 210.741 294.597 211.004 295.122 213.194ZM185.433 219.327C185.433 220.729 185.345 222.043 185.082 222.13C184.907 222.218 184.644 222.831 184.469 223.445C184.119 225.022 180.176 230.366 178.073 232.381C176.409 234.045 173.518 235.798 172.817 235.798C172.642 235.798 172.379 235.535 172.291 235.184C172.116 234.834 172.379 234.484 172.992 234.221C175.007 233.432 179.738 227.737 182.366 223.182C182.892 222.13 183.505 220.378 183.593 219.239C184.031 216.523 184.119 216.26 184.82 216.523C185.345 216.698 185.433 217.399 185.433 219.327Z" fill="white"/>
<path fill-rule="evenodd" clip-rule="evenodd" d="M43.4143 308.165C44.9037 309.391 51.0365 320.08 50.5984 320.693C50.1604 321.394 49.2843 321.044 48.4958 319.905C47.094 317.539 42.9762 311.932 41.9249 310.793C41.3992 310.18 40.6983 309.654 40.3479 309.654C39.647 309.654 39.647 307.727 40.3479 307.464C40.9612 307.201 42.7134 307.551 43.4143 308.165ZM40.085 238.689C41.3116 239.653 43.6771 241.755 45.2541 243.332C48.5834 246.661 50.0728 249.027 49.2843 249.815C49.0214 250.078 48.2329 249.64 46.3055 247.976C43.4143 245.435 42.4506 244.734 39.8222 242.544C38.8585 241.755 37.7195 240.879 37.2815 240.529C36.931 240.178 36.0549 239.653 35.354 239.302C34.0398 238.601 33.777 237.988 34.6531 237.112C35.4416 236.236 37.7195 236.937 40.085 238.689Z" fill="white"/>
<path fill-rule="evenodd" clip-rule="evenodd" d="M382.033 296.337C382.822 297.038 382.559 297.827 381.42 298.089C376.338 299.316 362.145 309.479 357.94 314.911C357.327 315.612 356.976 315.787 356.713 315.436C355.925 314.648 357.327 312.545 361.532 308.603C367.139 303.171 370.994 300.192 375.637 297.739C379.317 295.724 381.069 295.373 382.033 296.337Z" fill="white"/>
<path fill-rule="evenodd" clip-rule="evenodd" d="M71.0995 136.797C71.2747 132.942 71.3623 129.087 71.6251 125.232C71.7127 124.268 71.8003 119.8 73.3774 119.712C73.8154 119.625 74.1659 119.975 74.4287 120.413C75.8305 123.129 75.042 150.99 74.8667 155.983C74.6039 161.24 75.1296 167.198 75.3924 172.454C75.6553 176.66 75.8305 180.865 75.9181 185.071C76.0057 185.947 76.5314 191.817 74.7791 191.379C72.5888 190.853 72.0632 179.901 71.888 177.974C71.6251 175.433 71.6251 172.63 71.5375 170.089C71.4499 165.971 71.3623 161.941 71.2747 157.823C71.1871 150.814 71.0995 143.805 71.0995 136.797ZM310.805 74.2419C310.805 74.2419 308.614 67.7587 312.294 66.4445C315.886 65.1303 316.587 80.1995 314.572 81.7765C312.557 83.3535 310.279 78.6225 310.805 74.2419ZM70.3986 97.5466C70.3986 97.5466 70.5738 111.039 72.5888 111.389C74.6039 111.74 74.8667 107.447 74.6915 103.066C74.4287 98.7732 75.1296 92.0271 70.3986 97.5466ZM290.742 89.7492C290.041 87.4713 289.953 56.4568 289.953 53.6532C290.128 52.4267 290.479 46.9071 293.019 48.3089C294.772 49.2727 293.983 81.1633 293.72 83.0031C293.545 84.0544 294.071 86.6828 294.246 87.7341C294.421 88.7855 295.735 94.2174 293.72 94.0421C291.881 93.9545 291.18 91.151 290.742 89.7492ZM385.362 119.187C385.45 116.383 385.537 113.404 385.888 110.601C385.975 109.637 386.151 106.395 387.465 106.308C387.99 106.22 388.341 106.483 388.516 106.833C390.005 108.936 389.217 129.788 389.042 133.467C388.866 137.235 389.392 141.966 389.567 145.821C389.83 148.887 390.005 152.041 390.181 155.195C390.181 156.071 390.619 160.452 388.954 160.101C386.851 159.751 386.238 151.691 386.063 149.938C385.45 145.383 385.537 139.6 385.537 134.869C385.362 129.7 385.362 124.443 385.362 119.187ZM49.2842 114.368C49.3718 111.477 49.4594 108.586 49.8098 105.782C49.8975 104.818 50.0727 101.577 51.3869 101.402C51.9125 101.402 52.263 101.664 52.4382 102.015C53.9276 104.03 53.1391 124.881 52.9639 128.649C52.7886 132.416 53.2267 137.147 53.4895 140.914C53.7524 144.068 53.9276 147.222 54.1028 150.376C54.1028 151.165 54.5409 155.545 52.8763 155.283C50.7736 154.845 50.1603 146.872 49.9851 145.12C49.3718 140.564 49.4594 134.694 49.3718 130.05C49.2842 124.794 49.2842 119.625 49.2842 114.368ZM366.087 109.987C366.087 115.244 366 120.501 365.912 125.67C365.825 130.401 365.912 136.183 365.387 140.739C365.124 142.491 364.598 150.464 362.408 150.902C360.743 151.252 361.269 146.872 361.269 145.996C361.356 142.842 361.619 139.688 361.795 136.534C362.057 132.766 362.583 128.035 362.408 124.268C362.145 120.501 361.444 99.6493 362.846 97.6342C363.109 97.2838 363.459 97.0209 363.897 97.1086C365.299 97.1962 365.474 100.438 365.562 101.402C365.912 104.205 366 107.096 366.087 109.987ZM352.245 106.22C352.245 111.477 352.157 139.863 352.07 145.12C351.982 149.763 352.07 155.545 351.456 160.189C351.281 161.941 350.668 169.914 348.565 170.352C346.901 170.615 347.339 166.234 347.426 165.358C347.514 162.292 347.689 159.138 347.952 155.983C348.215 152.216 348.653 147.485 348.478 143.718C348.302 139.951 347.514 95.882 349.003 93.8669C349.266 93.5165 349.617 93.2536 350.055 93.3413C351.369 93.4289 351.544 96.6705 351.719 97.6342C351.982 100.438 352.07 103.329 352.245 106.22ZM330.517 93.166C330.517 98.4227 330.43 103.679 330.342 108.848C330.254 113.58 330.342 119.362 329.816 124.005C329.553 125.67 329.028 133.73 326.838 134.081C325.173 134.431 325.699 130.05 325.699 129.174C325.786 126.02 326.049 122.866 326.224 119.8C326.487 115.945 327.013 111.302 326.838 107.534C326.575 103.767 325.874 82.9155 327.276 80.8128C327.538 80.4624 327.889 80.1995 328.327 80.2871C329.729 80.3748 329.904 83.6164 329.992 84.5801C330.342 87.4713 330.43 90.3625 330.517 93.166ZM267.787 64.2542C267.787 69.5109 267.7 74.68 267.612 79.9367C267.525 84.5801 267.612 90.4501 266.999 95.0059C266.824 96.7581 266.21 104.731 264.108 105.169C262.443 105.432 262.881 101.051 262.969 100.263C263.056 97.1086 263.319 93.9545 263.494 90.8005C263.757 87.0332 264.283 82.3022 264.02 78.5349C263.845 74.7676 263.056 53.9161 264.546 51.901C264.809 51.5506 265.159 51.2877 265.597 51.2877C266.911 51.4629 267.174 54.7046 267.262 55.6683C267.525 58.4719 267.612 61.363 267.787 64.2542ZM249.652 41.2124C249.652 48.2213 249.564 55.2302 249.477 62.2392C249.477 66.2693 249.389 70.387 249.301 74.5048C249.214 77.0455 249.214 79.8491 248.951 82.3898C248.776 84.3173 248.25 95.2687 246.06 95.7944C244.22 96.2324 244.833 90.3625 244.833 89.4863C244.921 85.281 245.184 81.0756 245.359 76.8703C245.622 71.6136 246.147 65.5684 245.972 60.3117C245.709 55.4055 245.008 27.4574 246.41 24.829C246.585 24.391 246.936 24.0405 247.461 24.1282C248.951 24.2158 249.038 28.6839 249.126 29.6477C249.477 33.5026 249.564 37.3575 249.652 41.2124ZM225.033 46.9948C225.033 54.0037 224.945 79.2358 224.858 86.2447C224.858 90.3625 224.77 94.3926 224.682 98.5103C224.595 101.139 224.595 103.855 224.332 106.483C224.157 108.323 223.631 119.274 221.441 119.888C219.601 120.326 220.214 114.368 220.214 113.492C220.302 109.287 220.565 105.081 220.74 100.876C221.003 95.6192 221.528 89.6616 221.353 84.4049C221.09 79.4986 220.302 33.2397 221.791 30.6114C221.967 30.1733 222.317 29.8229 222.843 29.9105C224.332 29.9981 224.42 34.4663 224.507 35.43C224.858 39.2849 224.945 43.1399 225.033 46.9948ZM201.027 33.7654C201.115 30.9618 201.29 28.0707 201.553 25.1795C201.641 24.2158 201.816 20.9741 203.218 20.8865C203.656 20.7989 204.006 21.1494 204.269 21.4122C205.758 23.5149 204.97 70.1242 204.795 73.8915C204.532 77.6588 205.057 82.3898 205.32 86.1571C205.496 89.3111 205.758 92.4651 205.846 95.6192C205.846 96.4077 206.372 100.788 204.707 100.525C202.517 100.087 201.991 92.1147 201.728 90.3625C201.203 85.7191 201.29 79.9367 201.203 75.2933C201.115 70.0366 201.027 39.0221 201.027 33.7654ZM178.599 41.3C178.686 38.4964 178.774 35.6053 179.124 32.7141C179.212 31.7504 179.387 28.5087 180.789 28.4211C181.227 28.4211 181.578 28.6839 181.84 28.9468C183.242 31.0495 182.541 89.8368 182.278 93.6041C182.103 97.3714 182.629 102.102 182.892 105.87C183.067 109.024 183.33 112.178 183.417 115.332C183.417 116.12 183.943 120.501 182.191 120.238C180.088 119.8 179.563 111.827 179.3 110.075C178.686 105.432 178.862 99.6493 178.774 95.0059C178.686 89.7492 178.599 46.5567 178.599 41.3ZM156.871 42.3513C157.046 38.4964 157.134 34.6415 157.397 30.8742C157.484 29.8229 157.572 25.3547 159.149 25.2671C159.587 25.2671 159.938 25.6175 160.2 26.0556C161.602 28.6839 160.814 56.632 160.638 61.5383C160.376 66.795 160.901 72.7525 161.164 78.0969C161.427 82.3022 161.602 86.5076 161.69 90.7129C161.777 91.5014 162.303 97.459 160.463 97.0209C158.361 96.4953 157.835 85.5438 157.66 83.6164C157.397 80.988 157.397 78.2721 157.309 75.6437C157.222 71.6136 157.134 67.4959 157.046 63.3781C156.959 56.3692 156.871 49.3603 156.871 42.3513ZM135.582 59.4356C135.669 53.6532 135.844 47.8709 136.107 42.1761C136.195 41.1248 136.195 34.2035 137.859 34.1159C138.473 34.1159 138.736 34.6415 138.911 35.1672C139.524 36.9194 139.524 43.0522 139.612 44.9797C139.699 51.0249 139.699 56.9825 139.699 63.0277C139.612 71.3508 139.524 79.7615 139.349 88.1722C139.086 96.32 139.612 104.906 139.875 113.054C140.05 119.362 140.313 125.67 140.4 131.978C140.488 133.993 140.488 136.096 140.4 138.198C140.4 138.899 140.488 141.615 139.086 141.09C137.684 140.564 137.421 135.395 137.246 134.168C136.808 129.875 136.633 125.582 136.282 121.289C136.107 117.347 136.02 113.317 136.02 109.374C135.844 103.241 135.844 97.1086 135.757 90.9757C135.669 80.4624 135.582 69.949 135.582 59.4356ZM110.612 74.8552C110.7 71.0003 110.787 67.1454 111.138 63.3781C111.226 62.3268 111.313 57.8586 112.803 57.771C113.328 57.6834 113.679 58.1214 113.854 58.4719C115.256 61.1878 114.467 89.0483 114.292 94.0421C114.117 99.2988 114.555 105.256 114.818 110.513C115.08 114.718 115.256 118.924 115.431 123.129C115.431 124.005 116.044 129.963 114.204 129.437C112.014 128.912 111.488 117.96 111.313 116.033C111.05 113.492 111.05 110.776 110.963 108.148C110.875 104.03 110.787 99.9997 110.787 95.882C110.7 88.8731 110.612 81.8641 110.612 74.8552ZM89.8483 104.818C89.9359 100.963 90.0235 97.1086 90.374 93.3413C90.4616 92.2899 90.5492 87.8217 92.0386 87.7341C92.5643 87.7341 92.9147 88.0846 93.0899 88.5226C94.4917 91.151 93.7908 132.679 93.528 137.585C93.3528 142.842 93.8785 148.887 94.1413 154.144C94.3165 158.349 94.5793 162.554 94.667 166.76C94.667 167.636 95.2802 173.506 93.4404 173.068C91.2501 172.542 90.7244 161.591 90.5492 159.663C90.2864 157.122 90.2864 154.319 90.1988 151.778C90.1112 147.66 90.0235 143.543 90.0235 139.513C89.9359 132.504 89.8483 111.827 89.8483 104.818Z" fill="#84AEA4"/>
<path fill-rule="evenodd" clip-rule="evenodd" d="M71.0994 136.797C71.2747 132.942 71.3623 129.087 71.6251 125.232C71.7127 124.268 71.8003 119.8 73.3773 119.712C73.8154 119.625 74.1658 119.975 74.4287 120.413C75.8305 123.129 75.042 150.99 74.8667 155.984C74.6039 161.24 75.1296 167.198 75.3924 172.455C75.6552 176.66 75.8305 180.865 75.9181 185.071C76.0057 185.421 76.0933 186.648 76.0933 187.874L72.6765 185.859C72.1508 182.618 71.9756 179.025 71.8879 177.974C71.6251 175.433 71.6251 172.63 71.5375 170.089C71.4499 165.971 71.3623 161.941 71.2747 157.823C71.1871 150.815 71.0994 143.806 71.0994 136.797ZM70.3986 97.5467C70.3986 97.5467 70.5738 111.039 72.5888 111.389C74.6039 111.74 74.8667 107.447 74.6915 103.066C74.4287 98.7733 75.1296 92.0272 70.3986 97.5467ZM49.2842 114.368C49.3718 111.477 49.4594 108.586 49.8098 105.782C49.8975 104.818 50.0727 101.577 51.3869 101.402C51.9125 101.402 52.263 101.664 52.4382 102.015C53.9276 104.03 53.1391 124.882 52.9639 128.649C52.7886 132.416 53.2267 137.147 53.4895 140.914C53.7524 144.068 53.9276 147.222 54.1028 150.376C54.1028 151.165 54.5409 155.546 52.8763 155.283C50.7736 154.845 50.1603 146.872 49.9851 145.12C49.3718 140.564 49.4594 134.694 49.3718 130.051C49.2842 124.794 49.2842 119.625 49.2842 114.368ZM135.582 59.4357C135.669 53.6533 135.844 47.871 136.107 42.1762C136.195 41.1249 136.195 34.2036 137.859 34.116C138.473 34.116 138.736 34.6416 138.911 35.1673C139.524 36.9195 139.524 43.0523 139.612 44.9798C139.699 51.025 139.699 56.9826 139.699 63.0278C139.612 71.3509 139.524 79.7616 139.349 88.1723C139.086 96.3202 139.612 104.906 139.874 113.054C140.05 119.362 140.313 125.67 140.4 131.978C140.488 133.993 140.488 136.096 140.4 138.198C140.4 138.899 140.488 141.615 139.086 141.09C137.684 140.564 137.421 135.395 137.246 134.168C136.808 129.875 136.633 125.582 136.282 121.289C136.107 117.347 136.02 113.317 136.02 109.374C135.844 103.241 135.844 97.1087 135.757 90.9759C135.669 80.4625 135.582 69.9491 135.582 59.4357ZM110.612 74.8553C110.7 71.0004 110.787 67.1455 111.138 63.3782C111.226 62.3269 111.313 57.8587 112.803 57.7711C113.328 57.6835 113.679 58.1215 113.854 58.472C115.256 61.1879 114.467 89.0484 114.292 94.0423C114.117 99.2989 114.555 105.257 114.818 110.513C115.08 114.719 115.256 118.924 115.431 123.129C115.431 124.005 116.044 129.963 114.204 129.437C112.014 128.912 111.488 117.96 111.313 116.033C111.05 113.492 111.05 110.776 110.963 108.148C110.875 104.03 110.787 99.9998 110.787 95.8821C110.7 88.8732 110.612 81.8643 110.612 74.8553ZM89.8483 104.818C89.9359 100.964 90.0235 97.1087 90.374 93.3414C90.4616 92.29 90.5492 87.8218 92.0386 87.7342C92.5643 87.7342 92.9147 88.0847 93.0899 88.5227C94.4917 91.1511 93.7908 132.679 93.528 137.585C93.3528 142.842 93.8784 148.887 94.1413 154.144C94.3165 158.349 94.5793 162.554 94.6669 166.76C94.6669 167.636 95.2802 173.506 93.4404 173.068C91.2501 172.542 90.7244 161.591 90.5492 159.663C90.2864 157.123 90.2864 154.319 90.1988 151.778C90.1111 147.661 90.0235 143.543 90.0235 139.513C89.9359 132.504 89.8483 111.827 89.8483 104.818Z" fill="#84AEA4"/>
</svg>
