<svg width="502" height="732" viewBox="0 0 502 732" fill="none" xmlns="http://www.w3.org/2000/svg">
<path fill-rule="evenodd" clip-rule="evenodd" d="M296.752 32.5579C296.752 32.5579 261.343 -24.0776 189.495 12.046C117.544 48.2836 149.659 122.468 78.326 155.059C6.99261 187.536 43.2255 234.258 45.6959 286.221C48.1663 338.07 30.4616 370.889 26.653 396.871C22.8445 422.739 27.6824 475.158 27.6824 475.158C27.6824 475.158 36.7406 601.761 169.011 566.094C301.384 530.426 429.64 590.138 453.624 428.436C477.608 266.849 349.043 267.418 341.941 185.485C334.941 103.438 345.749 107.084 296.752 32.5579Z" fill="#DEE3D5"/>
<path fill-rule="evenodd" clip-rule="evenodd" d="M338.338 130.217C337.103 113.694 335.147 102.07 328.765 87.2561C314.251 83.1537 307.664 100.019 307.664 100.019C307.664 100.019 302.208 96.0306 295.62 97.2841C289.135 98.4236 286.665 106.856 286.665 106.856C286.665 106.856 277.504 104.691 269.475 110.275C262.578 115.061 259.387 126.798 258.564 130.217H338.338Z" fill="white"/>
<path fill-rule="evenodd" clip-rule="evenodd" d="M34.373 215.569C35.2994 237.22 44.4606 261.151 45.5929 286.221C48.0633 338.07 30.3586 370.889 26.55 396.871C22.7415 422.738 27.5794 475.158 27.5794 475.158C27.5794 475.158 36.6376 601.761 169.011 566.093C301.281 530.426 429.641 590.138 453.624 428.436C476.579 273.344 359.028 267.646 343.382 194.829C325.78 207.022 305.811 219.899 300.046 219.899C289.135 219.899 164.997 142.752 149.762 140.359C136.998 138.308 65.5621 192.778 34.373 215.569Z" fill="#A6C2B7"/>
<path fill-rule="evenodd" clip-rule="evenodd" d="M28.1968 479.374C30.5643 496.695 44.0487 563.131 111.059 571.563L116.617 481.995H98.1921L76.5759 468.776L34.3728 475.158L28.1968 479.374Z" fill="#F2D97E"/>
<path fill-rule="evenodd" clip-rule="evenodd" d="M53.107 339.78C44.6664 341.945 40.3432 345.363 37.2552 352.087C32.5202 362.115 30.9762 366.103 28.197 375.447C26.7559 380.347 24.0796 392.085 22.7414 399.378C22.4326 401.087 21.918 403.48 21.7121 404.62C19.5505 415.104 18.4182 426.727 18.1094 443.022C17.8006 457.723 18.0065 461.027 20.5798 469.574C23.462 479.146 25.6236 483.59 28.197 484.844C29.5351 485.527 29.9468 485.641 30.5644 485.072C31.0791 484.616 35.6082 484.388 49.6073 484.16C60.1066 484.16 68.753 483.818 69.8853 483.476C70.9147 483.134 76.2672 482.907 81.6198 482.907C93.2514 482.907 99.7363 482.223 100.971 480.741C101.486 480.286 102.104 478.234 102.515 476.297C103.751 469.802 106.221 466.155 111.368 463.648C119.5 459.66 121.558 458.406 123.823 456.013C133.396 446.213 129.381 430.829 116.412 426.841C115.279 426.499 113.221 425.929 111.574 425.587C107.25 424.676 106.427 424.22 106.736 422.852C106.839 422.169 107.765 418.864 108.897 415.559C111.265 408.152 112.5 400.517 112.088 396.187C111.368 389.464 109.824 384.336 106.942 379.094C102.104 370.547 94.8983 366.787 83.0609 366.673C75.9584 366.673 75.4438 366.103 73.488 357.443C71.2235 346.503 67.312 341.717 59.5919 339.894C56.0921 339.096 55.8863 338.982 53.107 339.78Z" fill="#62736F"/>
<path fill-rule="evenodd" clip-rule="evenodd" d="M68.8561 441.655C69.2679 442.794 69.1649 443.364 68.5473 444.048C67.9297 444.732 67.6209 444.732 67.0033 444.162C66.0769 443.364 63.8123 444.276 57.6363 447.808C49.7104 452.481 45.0783 456.355 44.6666 458.748C44.5636 459.318 44.1519 459.888 43.6372 460.002C43.0196 460.116 42.8138 459.888 42.8138 458.52C42.8138 454.076 50.0192 446.897 59.2832 441.997C62.5771 440.287 63.6065 439.946 65.871 440.06C68.2385 440.173 68.4444 440.287 68.8561 441.655ZM74.2087 389.008C79.5613 392.085 88.4136 404.962 85.3256 404.962C84.9139 404.962 82.3405 402.341 79.4583 399.15C75.7527 395.161 73.3852 392.996 71.4295 391.971C69.5767 390.945 68.6503 390.147 68.6503 389.578C68.6503 387.64 71.4295 387.413 74.2087 389.008ZM37.3582 402.796C43.4314 405.873 50.6368 412.824 50.4309 415.445C50.225 417.041 49.0927 417.61 48.7839 416.243C48.5781 415.331 45.9018 412.938 44.4607 412.369C44.2548 412.255 43.6372 411.913 43.3284 411.571C42.9167 411.229 41.7844 410.431 40.858 409.862C32.9321 404.962 33.2409 405.189 33.2409 403.594C33.2409 401.543 34.4761 401.315 37.3582 402.796Z" fill="white"/>
<path fill-rule="evenodd" clip-rule="evenodd" d="M38.3875 190.157C32.1085 204.971 34.1672 221.381 37.6669 238.816H135.763C135.763 238.816 133.396 226.053 121.352 217.848C109.206 209.757 101.692 213.176 101.692 213.176C101.692 213.176 101.692 199.843 90.3692 194.487C79.1494 189.245 74.1056 195.285 74.1056 195.285C73.8998 194.943 68.4443 182.864 57.6362 182.75C46.5193 182.636 40.4461 191.98 40.4461 191.98C40.4461 191.98 39.7256 191.069 38.3875 190.157Z" fill="white"/>
<path fill-rule="evenodd" clip-rule="evenodd" d="M416.156 505.811C416.156 505.811 428.611 510.256 441.478 512.307C454.447 514.244 499.327 516.979 500.047 515.84C500.871 514.7 500.459 504.672 498.503 503.532C496.548 502.393 484.607 501.025 469.888 491.795C455.168 482.679 452.389 479.374 451.462 479.146C450.639 479.032 442.404 484.844 436.434 483.932C430.567 483.021 424.699 480.172 424.699 480.172C424.699 480.172 416.876 484.958 416.465 485.3C416.053 485.641 414.097 494.188 416.156 505.811Z" fill="#84AEA4"/>
<path fill-rule="evenodd" clip-rule="evenodd" d="M416.156 505.811C416.156 505.811 428.611 510.256 441.478 512.307C454.448 514.244 499.327 516.979 500.048 515.84C500.665 514.928 500.562 508.091 499.43 505.014C494.386 506.951 485.637 508.546 469.991 507.521C451.874 506.381 431.082 496.125 415.95 487.009C415.333 490.086 414.612 497.037 416.156 505.811Z" fill="#02968D"/>
<path fill-rule="evenodd" clip-rule="evenodd" d="M293.973 458.634L318.163 642.101C318.163 642.101 321.971 644.494 324.545 644.722C327.118 644.95 328.456 644.38 328.456 644.38L326.192 625.464L303.546 459.09L293.973 458.634Z" fill="white"/>
<path fill-rule="evenodd" clip-rule="evenodd" d="M180.334 458.292L191.245 457.381L175.496 640.506C175.496 640.506 170.143 644.608 167.982 643.355C165.923 642.101 164.997 639.936 164.997 639.936L180.334 458.292Z" fill="white"/>
<path fill-rule="evenodd" clip-rule="evenodd" d="M190.73 172.38C190.73 172.38 121.661 175.001 116.926 179.901C112.191 184.801 111.882 195.741 112.088 201.894C112.397 208.048 120.426 244.058 120.426 244.058C120.426 244.058 140.395 391.743 145.439 402.683C150.483 413.736 154.6 416.813 158.511 419.32C162.526 421.827 160.982 436.185 168.393 441.199C175.701 446.099 265.769 443.82 265.769 443.82C265.769 443.82 312.295 449.86 317.751 428.778C323.206 407.697 320.221 406.215 320.221 406.215H267.416L224.081 200.527C224.081 200.527 218.213 172.95 190.73 172.38Z" fill="white"/>
<path fill-rule="evenodd" clip-rule="evenodd" d="M190.73 172.38C190.73 172.38 162.32 173.406 140.704 175.457C136.175 179.901 131.955 185.485 128.866 192.322C122.279 207.022 120.735 229.699 120.529 244.741C121.249 250.553 127.631 297.161 133.91 338.412C138.645 341.831 148.939 351.859 150.894 351.517C153.365 351.289 163.967 411.685 163.967 411.685C163.967 411.685 160.056 414.192 156.968 418.294C157.482 418.636 157.997 418.978 158.512 419.32C160.467 420.459 161.085 424.22 162.011 428.436C177.143 428.322 207.92 428.664 224.904 433.678C236.536 437.211 243.021 441.313 246.52 444.162C257.843 444.048 265.769 443.82 265.769 443.82C265.769 443.82 312.295 449.86 317.751 428.778C318.368 426.499 318.883 424.334 319.192 422.511C313.633 420.459 296.032 414.192 290.885 414.762C290.267 414.762 288.723 411.685 286.665 406.215H267.416L224.081 200.527C224.081 200.527 218.213 172.95 190.73 172.38Z" fill="#C9DCF5"/>
<path fill-rule="evenodd" clip-rule="evenodd" d="M169.937 347.415L169.422 348.326C169.422 348.326 170.143 382.968 182.083 399.036C194.024 415.104 210.802 416.699 218.934 416.243C227.066 415.787 238.697 419.434 238.697 419.434L313.324 426.043C313.324 426.043 332.367 496.809 336.999 512.421C341.631 528.147 348.631 578.628 350.792 579.084C352.954 579.54 388.261 577.147 389.29 574.868C390.319 572.475 387.54 555.496 387.54 555.496L371.071 431.627C371.071 431.627 408.642 489.63 410.906 490.086C413.274 490.656 441.786 474.702 443.124 471.853C444.463 469.004 409.774 400.745 409.774 400.745C409.774 400.745 368.188 320.179 356.042 311.861C343.999 303.542 333.602 303.2 323.412 305.935C313.221 308.67 267.519 318.926 267.519 319.04C262.269 320.863 238.079 329.638 216.36 336.817C191.862 345.022 170.04 347.984 170.04 347.984L169.937 347.415Z" fill="#84AEA4"/>
<path fill-rule="evenodd" clip-rule="evenodd" d="M379.306 493.618C379.203 493.049 365.512 392.085 362.218 382.855C358.925 373.738 349.66 365.192 349.66 365.192C349.66 365.192 340.705 367.015 340.396 375.562C340.191 384.222 342.867 386.615 345.955 386.273C349.146 385.931 352.851 392.427 356.042 405.418C359.336 418.294 369.939 493.96 373.541 495.556C377.041 497.151 379.306 493.618 379.306 493.618Z" fill="#A6C2B7"/>
<path fill-rule="evenodd" clip-rule="evenodd" d="M430.67 442.909C421.2 423.194 409.774 400.745 409.774 400.745C409.774 400.745 368.189 320.179 356.043 311.861C343.999 303.542 333.603 303.2 323.412 305.935C313.222 308.67 267.519 318.926 267.519 319.04C263.608 320.407 248.888 325.763 232.625 331.347L233.036 333.74C233.036 333.74 273.181 329.296 293.87 322.686C314.56 316.077 343.073 316.875 344.823 319.268C346.573 321.661 373.85 352.543 383.526 369.978C392.584 386.501 421.406 440.743 430.67 442.909Z" fill="#A6C2B7"/>
<path fill-rule="evenodd" clip-rule="evenodd" d="M175.805 386.501C177.452 391.173 179.51 395.503 182.084 399.036C194.024 415.104 210.802 416.699 218.934 416.243C227.066 415.787 238.698 419.434 238.698 419.434L313.325 426.043C313.325 426.043 332.368 496.809 337 512.421C341.632 528.147 348.631 578.628 350.793 579.084C352.955 579.54 388.261 577.147 389.29 574.868C389.496 574.298 389.496 572.703 389.393 570.766C360.778 557.205 364.586 528.488 355.837 507.407C346.058 483.932 334.323 421.827 331.853 409.406C329.486 397.099 320.736 414.078 316.104 395.617C311.472 377.043 321.765 367.585 321.354 366.445C321.045 365.305 329.486 361.089 336.382 360.747C343.279 360.405 356.248 370.433 359.131 376.017C362.013 381.601 371.071 431.627 371.071 431.627C371.071 431.627 408.642 489.63 410.907 490.086C412.142 490.428 420.582 486.097 428.508 481.539C413.171 450.202 366.748 358.468 346.779 347.187C322.486 333.626 265.563 379.778 232.316 394.25C199.171 408.722 175.908 386.615 175.805 386.501ZM205.759 355.277C205.759 355.277 212.758 360.633 217.184 364.166C221.61 367.812 225.625 367.243 224.184 368.496C222.64 369.75 218.831 369.294 213.479 364.85C208.126 360.405 205.759 358.012 205.759 355.277ZM210.391 371.687C210.391 371.687 216.567 377.499 220.89 379.778C225.213 382.057 216.978 380.917 213.787 378.296C210.596 375.675 209.979 373.396 210.391 371.687Z" fill="#67A39F"/>
<path fill-rule="evenodd" clip-rule="evenodd" d="M189.495 143.322C189.495 143.322 182.598 144.461 181.775 147.766C181.054 151.071 181.878 162.124 181.878 162.124C181.878 162.124 153.468 175.685 143.689 190.613C134.013 205.427 133.396 226.736 130.308 245.539C127.323 264.455 124.852 305.137 132.058 315.963C139.16 326.675 151.203 331.119 156.35 330.321C161.6 329.637 163.967 326.333 165.923 331.461C167.776 336.475 170.04 347.984 170.04 347.984C170.04 347.984 191.862 345.021 216.361 336.817C240.859 328.726 268.548 318.584 268.548 318.584L304.678 310.151L282.65 266.962C282.65 266.962 276.474 215.227 275.033 206.908C273.489 198.59 269.475 186.51 260.211 178.762C250.947 170.899 232.11 164.061 232.11 164.061C232.11 164.061 233.345 156.996 230.051 153.464C226.654 149.931 222.434 150.501 222.434 150.501C222.434 150.501 217.184 140.473 189.495 143.322Z" fill="#F2D97E"/>
<path fill-rule="evenodd" clip-rule="evenodd" d="M189.495 143.322C189.495 143.322 182.598 144.461 181.775 147.766C181.054 151.071 181.878 162.124 181.878 162.124C181.878 162.124 153.468 175.685 143.689 190.613C134.013 205.427 133.396 226.736 130.308 245.539C129.999 247.932 129.587 250.667 129.278 253.63L131.646 255.567C131.646 255.567 134.116 222.862 144.101 209.301C153.983 195.741 157.791 194.715 157.791 194.715C157.791 194.715 164.07 182.18 171.687 177.508C179.407 172.836 188.877 167.594 188.877 167.594C188.877 167.594 186.201 153.008 194.127 153.691C201.95 154.261 211.729 144.347 211.729 144.233C206.788 142.98 199.685 142.296 189.495 143.322ZM281.518 257.96C279.768 242.804 276.063 213.062 275.033 206.908C273.489 198.59 269.475 186.51 260.211 178.762C250.947 170.899 232.11 164.061 232.11 164.061C232.11 164.061 233.345 156.996 230.051 153.464C226.654 149.931 222.434 150.501 222.434 150.501C222.434 150.501 220.272 146.512 211.729 144.233C211.832 144.347 220.787 154.261 222.948 159.161C225.11 163.947 225.728 168.961 226.037 169.645C226.448 170.329 258.873 183.434 265.975 198.134C273.077 212.948 279.151 260.581 279.151 260.581C279.151 260.581 280.077 259.555 281.518 257.96Z" fill="#FFDF8C"/>
<path fill-rule="evenodd" clip-rule="evenodd" d="M127.837 298.756C128.557 306.277 129.793 312.544 132.057 315.963C139.16 326.675 151.203 331.119 156.35 330.321C161.599 329.638 163.967 326.333 165.923 331.461C167.775 336.475 170.04 347.984 170.04 347.984C170.04 347.984 191.862 345.021 216.36 336.817C240.859 328.726 268.548 318.584 268.548 318.584L290.576 313.456C290.576 313.456 281.518 290.893 280.077 279.839C278.738 268.672 249.917 278.13 249.917 278.13L245.079 282.232C245.079 282.232 237.05 282.346 237.668 282.232C238.285 282.118 235.712 288.956 230.359 291.007C225.11 293.172 224.183 293.628 224.183 293.628C224.183 293.628 195.259 305.593 169.834 310.151C144.306 314.596 131.954 310.835 129.484 301.263C128.969 298.984 128.352 298.3 127.837 298.756Z" fill="#E0B751"/>
<path fill-rule="evenodd" clip-rule="evenodd" d="M179.201 95.3468C179.201 95.3468 167.467 99.4491 172.716 109.477C177.966 119.391 187.23 118.024 188.26 121.101C189.186 124.177 189.701 151.071 189.701 151.071C189.701 151.071 196.494 156.768 207.817 156.199C219.14 155.743 222.948 152.666 222.948 152.666C222.948 152.666 219.963 141.043 220.272 140.245C220.478 139.561 225.419 142.182 233.551 133.977C241.579 125.773 240.035 115.061 240.756 104.805C241.374 94.5491 241.579 75.1768 241.579 75.1768C241.579 75.1768 233.654 38.7113 202.67 46.6881C171.687 54.665 176.525 78.1396 179.201 95.3468Z" fill="#EDB9A9"/>
<path fill-rule="evenodd" clip-rule="evenodd" d="M179.201 95.3468C179.201 95.3468 167.467 99.4492 172.716 109.477C177.966 119.391 187.23 118.024 188.26 121.101C189.186 124.177 189.701 151.071 189.701 151.071C189.701 151.071 196.391 156.768 207.611 156.313C203.597 152.894 197.832 146.74 196.391 137.282C193.818 121.556 193.921 118.252 192.171 118.138C190.318 118.024 192.171 114.149 185.172 101.614C183.319 98.4236 181.26 96.0305 179.098 94.4352L179.201 95.3468Z" fill="#FFE1D7"/>
<path fill-rule="evenodd" clip-rule="evenodd" d="M223.052 140.017C225.316 139.789 228.919 138.65 233.551 133.977C241.58 125.773 240.036 115.061 240.756 104.805C241.374 94.549 241.58 75.1768 241.58 75.1768C241.58 75.1768 239.109 64.0092 231.698 55.3486L198.656 68.3395C198.656 71.4162 201.847 88.8513 204.729 89.763C207.612 90.5606 211.42 87.5978 214.302 88.6234C217.287 89.649 217.699 96.4863 217.905 97.7398C218.111 98.9933 220.272 108.224 217.905 109.135C215.435 109.933 215.229 111.642 218.008 112.782C220.684 114.035 222.743 112.098 222.949 111.642C223.258 111.3 224.802 107.54 223.978 104.349C223.052 101.158 221.199 88.7374 223.052 88.5094C224.904 88.2815 229.022 88.6234 229.022 88.6234L235.198 89.8769C235.198 89.8769 235.61 95.6886 236.021 105.717C236.536 115.631 235.816 125.887 228.301 132.268C220.89 138.536 217.699 138.308 217.699 138.308C217.699 138.308 219.758 138.991 223.052 140.017ZM202.979 106.856C203.391 106.856 212.038 105.489 213.273 104.805C214.508 104.235 211.832 110.845 208.023 110.845C204.215 110.845 202.979 106.856 202.979 106.856Z" fill="#FFE1D7"/>
<path fill-rule="evenodd" clip-rule="evenodd" d="M175.599 53.6395C175.599 53.6395 177.658 38.0277 197.73 33.8114C217.802 29.595 229.433 47.0301 235.507 47.8278C241.58 48.7394 250.226 45.6627 250.844 54.6651C251.461 63.7814 252.491 68.1117 243.741 74.4932C234.992 80.9886 223.978 83.1537 218.111 79.3932C212.243 75.5188 206.788 71.6443 202.774 72.2141C198.862 72.7839 196.906 78.7095 197.112 83.8375C197.318 88.8515 200.509 90.5608 196.186 95.2329C191.965 99.7911 194.951 107.654 192.377 107.084C189.701 106.514 188.466 98.7655 183.113 96.6004C177.863 94.5492 174.467 98.1958 174.467 98.1958C174.467 98.1958 162.732 81.4444 165.614 67.9978C168.599 54.4372 175.599 53.6395 175.599 53.6395Z" fill="#62736F"/>
<path fill-rule="evenodd" clip-rule="evenodd" d="M248.579 49.5371C249.814 50.5627 250.741 52.1581 250.844 54.6651C251.461 63.7814 252.491 68.1117 243.741 74.4932C234.992 80.9886 223.978 83.1537 218.111 79.3932C212.243 75.5188 206.788 71.6443 202.774 72.2141C198.862 72.7839 196.906 78.7095 197.112 83.8375C197.318 88.8515 200.509 90.5608 196.186 95.2329C191.965 99.7911 194.951 107.654 192.377 107.084C189.701 106.514 188.466 98.7655 183.113 96.6004C177.863 94.5492 174.467 98.1958 174.467 98.1958C174.467 98.1958 162.732 81.4444 165.614 67.9978C167.364 60.0209 170.555 56.4884 172.82 54.893C177.966 54.4372 182.804 56.9442 184.554 54.6651C186.819 51.8162 192.274 47.258 192.274 47.258C192.274 47.258 196.7 43.9533 204.832 45.3208C213.067 46.6883 222.125 51.0185 218.728 51.7023C215.332 52.386 211.729 51.0185 209.773 54.2093C207.817 57.4 222.64 63.0977 236.33 60.1349C246.212 57.9698 248.373 53.0697 248.579 49.5371ZM185.686 60.9326C185.686 60.9326 178.893 65.7187 178.481 73.9234C178.172 82.2421 180.437 84.4072 181.775 83.2677C183.113 82.1281 180.849 80.6467 183.113 73.9234C185.275 67.2001 186.922 66.9722 186.922 66.9722C186.922 66.9722 184.657 70.6187 186.407 73.5815C188.157 76.5444 189.392 69.0234 194.127 66.1745C198.759 63.3256 198.862 63.3256 198.862 63.3256C198.862 63.3256 190.113 56.7163 187.951 58.7674C185.686 60.9326 185.686 60.9326 185.686 60.9326Z" fill="#788E89"/>
<path fill-rule="evenodd" clip-rule="evenodd" d="M359.028 584.44C359.028 584.44 356.66 607.231 355.528 612.701C354.396 618.285 354.087 621.589 355.837 622.957C357.587 624.324 384.761 632.073 405.863 636.745C426.964 641.303 438.39 644.38 440.346 641.645C442.302 638.796 444.463 630.82 443.022 629.908C441.581 628.996 425.214 621.817 414.509 613.157C403.804 604.496 392.173 589.91 392.173 589.91C392.173 589.91 382.188 596.064 373.541 593.101C364.895 590.024 359.028 584.44 359.028 584.44Z" fill="#84AEA4"/>
<path fill-rule="evenodd" clip-rule="evenodd" d="M357.072 602.103C356.454 606.661 355.94 610.764 355.528 612.701C354.396 618.285 354.087 621.589 355.837 622.957C357.587 624.324 384.761 632.073 405.863 636.745C426.964 641.303 438.39 644.38 440.346 641.645C442.302 638.796 444.463 630.82 443.022 629.908C442.816 629.794 442.199 629.452 441.375 629.11C404.422 632.757 374.983 616.233 357.072 602.103Z" fill="#02968D"/>
<path fill-rule="evenodd" clip-rule="evenodd" d="M359.028 584.44C359.028 584.44 363.969 591.505 373.541 593.101C383.011 594.582 390.834 589.454 390.834 589.454L388.158 575.438L360.16 578.856C360.16 578.856 357.69 579.882 359.028 584.44Z" fill="#62736F"/>
<path fill-rule="evenodd" clip-rule="evenodd" d="M251.256 255.111C251.256 255.111 247.55 260.011 244.771 262.974C241.889 265.937 236.845 271.977 236.845 271.977L240.344 295.223C240.344 295.223 262.784 297.274 265.872 296.477C268.96 295.679 272.872 289.867 272.666 287.816C272.46 285.651 272.151 282.46 272.46 281.549C272.769 280.751 271.637 275.851 271.637 272.318C271.534 268.786 269.99 267.076 271.431 264.797C272.872 262.404 271.739 260.467 269.681 260.239C267.725 260.011 260.931 259.555 260.931 259.555C260.931 259.555 257.432 254.883 251.256 255.111Z" fill="#EDB9A9" stroke="black" stroke-width="0.0761971"/>
<path fill-rule="evenodd" clip-rule="evenodd" d="M278.842 243.146L308.281 240.069C308.281 240.069 315.178 238.246 316.413 243.488C317.751 248.616 317.957 259.897 317.545 267.988C317.03 275.965 314.663 287.474 306.634 290.893C298.605 294.198 286.356 292.944 281.415 283.144C276.577 273.344 276.783 247.476 276.989 246.793C277.195 245.995 277.401 243.26 278.842 243.146Z" fill="#C9DCF5"/>
<path fill-rule="evenodd" clip-rule="evenodd" d="M315.898 242.12C316.104 242.462 316.31 242.918 316.413 243.488C317.751 248.616 317.957 259.897 317.545 267.988C317.236 272.432 316.413 278.016 314.251 282.688C297.267 280.523 291.708 263.202 289.855 249.414C294.282 250.097 302.825 251.009 307.457 248.844C312.295 246.565 315.28 244.627 315.898 242.12Z" fill="white"/>
<path fill-rule="evenodd" clip-rule="evenodd" d="M169.937 237.106L171.996 222.52C171.996 222.52 189.392 252.946 205.656 261.379C221.816 269.811 244.462 260.467 245.079 261.151C245.697 261.835 236.845 271.977 236.845 271.977C236.845 271.977 227.169 275.737 222.537 274.712C218.008 273.8 219.861 270.723 211.523 272.66C203.082 274.598 174.878 280.409 174.878 280.409L168.291 279.953L169.937 237.106ZM204.626 170.899C204.626 170.899 195.568 169.303 196.803 170.329C198.141 171.241 201.229 178.078 213.17 178.648C225.11 179.218 230.977 166.91 230.977 166.91C230.977 166.91 215.126 173.292 204.626 170.899ZM207.097 220.355C207.097 220.355 219.243 238.816 232.11 238.588C244.976 238.474 248.27 225.141 248.27 225.141C248.27 225.141 235.712 232.662 207.097 220.355Z" fill="#E0B751"/>
<path fill-rule="evenodd" clip-rule="evenodd" d="M197.833 31.8742C197.318 32.216 196.186 32.4439 195.362 32.4439C194.539 32.4439 193.715 32.6718 193.612 32.8997C193.406 33.1277 192.48 33.4695 191.554 33.6974C189.598 34.0393 184.245 36.8882 182.29 38.5975C178.687 41.7882 177.246 43.9534 176.113 48.1697C175.393 50.5627 174.569 52.6139 174.055 52.9558C171.893 54.2093 167.776 58.1977 166.746 60.021C163.967 64.4652 162.835 70.9606 164.07 75.063C164.276 75.9746 164.791 78.1397 165.305 79.963C166.438 84.8631 167.879 88.7375 169.629 91.7003C170.864 93.8655 171.481 94.5492 172.511 94.5492C173.231 94.5492 173.643 94.2073 173.643 93.7515C173.643 93.2957 173.437 92.9538 173.231 92.9538C173.025 92.9538 172.408 91.8143 171.996 90.4468C171.481 88.9654 170.967 87.3701 170.761 86.8003C169.526 83.3817 168.393 78.7095 167.467 73.0118C166.952 70.3908 166.952 69.3652 167.673 66.7443C168.702 62.8698 169.732 60.5907 170.761 60.1349C171.173 60.021 172.408 59.2233 173.334 58.5395C174.981 57.286 175.805 57.1721 178.893 57.1721C180.848 57.286 183.113 57.514 183.936 57.8558L185.378 58.5395L182.187 61.8442C177.966 66.2885 176.011 70.3908 177.555 72.1001C178.687 73.3536 179.407 72.7839 179.407 71.0746C179.407 69.5931 179.922 68.7955 182.392 66.1745C184.039 64.3512 186.407 62.414 187.745 61.7303C190.421 60.3628 190.627 59.2233 188.466 57.514C187.745 56.8302 187.127 55.9186 187.127 55.5767C187.127 52.7279 196.7 45.2069 200.303 45.2069C201.127 45.2069 201.332 44.9789 201.127 44.4092C200.818 43.2696 196.494 43.3836 193.921 44.6371C190.627 46.0045 185.686 50.2209 184.863 52.386C184.039 54.2093 183.834 54.2093 182.29 53.9814C181.363 53.8674 180.025 53.6395 179.304 53.6395C178.069 53.6395 177.966 53.4116 177.966 52.0441C177.966 50.5627 178.481 48.7394 180.025 45.4348C180.746 43.7254 185.275 40.3068 189.495 38.3696C198.862 34.0393 210.699 34.6091 219.449 39.6231C220.993 40.5347 224.287 42.9278 226.654 44.9789C232.83 50.1069 234.271 50.7906 239.83 50.7906C245.285 50.7906 247.035 50.3348 247.035 48.9674C247.035 48.0557 246.418 47.9418 241.888 47.7139C235.712 47.372 234.477 46.8022 228.301 41.5603C221.302 35.5207 218.728 34.1533 210.905 31.9881C208.332 31.3044 199.274 31.1904 197.833 31.8742ZM278.636 249.3C281.209 250.781 285.533 251.807 294.591 251.693C306.222 251.693 311.266 248.046 311.987 246.679C312.707 245.311 293.253 249.983 285.738 247.932C278.327 245.995 284.194 244.4 284.297 244.4L284.503 244.286C285.018 244.286 285.636 244.172 286.562 244.058C292.738 243.374 307.766 240.639 308.281 240.069C309.31 238.93 300.458 238.816 297.164 239.955C296.444 240.183 292.841 240.525 288.929 240.753L282.033 241.095L281.827 239.044C281.209 233.688 279.562 222.406 278.636 217.05C278.43 215.797 278.018 213.176 277.71 211.353C277.401 209.529 276.783 206.681 276.371 204.971C275.96 203.262 275.548 201.211 275.239 200.413C274.313 196.539 272.563 192.094 270.298 188.22C266.284 181.269 266.284 181.269 257.329 175.457C252.491 172.38 243.535 167.252 243.021 167.252C242.815 167.252 241.271 166.455 239.521 165.543C237.771 164.745 235.712 163.834 234.889 163.72C234.168 163.492 233.448 163.15 233.242 162.922C232.83 162.124 230.463 162.466 229.536 163.492C228.404 164.631 224.904 166.796 222.537 167.708C219.758 168.848 216.361 169.417 210.288 169.759C204.626 169.987 203.391 169.759 198.965 167.936C196.906 167.138 196.186 167.366 196.186 168.734C196.186 170.215 197.524 171.241 201.024 172.494C203.906 173.52 205.038 173.634 211.42 173.406C221.507 173.064 225.007 172.038 229.433 168.05C230.566 167.024 231.904 166.113 232.419 166.113C233.551 166.113 235.609 167.024 239.521 169.076C247.241 173.064 248.888 173.862 250.535 175.115C251.564 175.799 253.314 176.938 254.549 177.622C260.211 181.155 264.328 184.459 265.666 186.625C266.49 187.878 267.107 189.132 267.107 189.246C267.107 189.473 267.622 190.499 268.343 191.411C268.96 192.322 269.475 193.234 269.475 193.462C269.475 193.69 269.99 194.715 270.401 196.083C271.534 198.932 272.872 203.49 272.872 204.743C272.872 205.313 273.078 205.997 273.283 206.225C273.489 206.567 274.004 208.504 274.313 210.783C274.622 212.948 275.033 216.025 275.342 217.506C276.371 224.344 276.68 226.167 277.401 231.979C277.813 235.283 278.327 238.816 278.43 239.841C278.533 240.411 278.533 240.867 278.533 241.323C275.548 241.437 275.548 246.337 275.754 249.414C275.136 249.3 274.004 249.3 272.048 249.3C269.269 249.414 267.313 249.641 266.387 250.211C263.711 251.807 263.711 251.693 263.916 244.741C264.122 241.437 264.328 232.776 264.431 225.597C264.74 210.783 264.328 206.908 262.372 206.567C261.137 206.339 261.24 205.541 261.034 218.646C261.034 224.344 260.828 235.283 260.725 242.804C260.52 250.439 260.417 256.935 260.417 257.276C260.417 257.846 259.696 257.504 258.667 256.479C256.093 254.314 253.829 253.174 251.976 253.174C250.226 253.174 247.241 255.795 245.079 259.328C244.256 260.467 242.094 263.316 240.036 265.595C236.845 269.242 236.33 269.47 234.168 269.811C232.933 269.925 230.36 270.381 228.507 270.951C221.199 272.774 221.096 272.774 219.758 272.091C219.037 271.749 217.905 271.179 217.287 271.065C215.846 270.723 208.023 271.521 204.729 272.318C199.274 273.572 198.141 273.8 194.745 274.598C192.789 275.053 190.318 275.623 189.186 275.965C186.304 276.649 179.922 278.13 177.452 278.7C177.04 278.814 176.525 278.928 176.011 279.042L171.996 222.52C172.202 220.583 172.408 219.102 172.511 218.532C172.717 217.506 172.614 217.05 171.996 216.823C169.732 215.797 169.423 217.164 166.952 233.802C166.232 238.246 164.997 246.907 164.585 249.755C162.835 260.011 161.703 269.925 161.291 275.851C161.085 278.814 160.673 281.549 160.467 281.777C160.159 282.005 159.335 282.346 158.512 282.46C157.482 282.574 157.071 282.916 156.968 283.828C156.865 284.853 157.071 284.967 159.026 284.967C160.262 284.967 161.188 285.309 161.188 285.651C161.188 285.993 161.497 285.993 162.011 285.765C162.835 285.423 167.158 284.512 173.437 283.372C177.863 282.688 185.686 280.979 190.627 279.725C191.759 279.498 194.95 278.814 197.833 278.13C200.818 277.56 203.906 276.763 204.832 276.535C205.759 276.307 208.847 275.737 211.729 275.395C216.361 274.825 217.39 274.939 219.552 275.623C221.816 276.421 222.434 276.421 224.39 275.737C231.904 273.344 234.992 272.774 235.095 274.028C235.095 275.509 236.021 282.802 236.433 285.309C236.639 286.677 237.051 289.298 237.359 290.893C237.565 292.488 237.977 294.084 238.08 294.654C238.389 295.337 237.359 296.135 233.242 298.3L228.198 301.035L227.375 299.781C226.86 299.212 226.14 297.161 225.625 295.451C225.213 293.628 224.698 291.691 224.39 291.007C224.184 290.209 223.978 288.614 223.978 287.133C223.978 284.398 223.566 283.714 222.331 284.284C221.816 284.512 221.61 285.423 221.61 288.272C221.61 290.209 221.816 292.374 222.022 293.058C223.566 297.502 224.287 299.212 225.11 300.579C225.522 301.377 225.934 302.288 225.728 302.63C225.522 303.314 217.802 307.872 217.081 307.872C216.978 307.872 215.64 308.442 214.302 309.126C212.861 309.81 210.391 310.949 208.847 311.519C207.303 312.203 205.553 312.886 205.038 313.114C204.009 313.684 198.656 315.621 193.201 317.558C187.436 319.61 181.672 321.661 181.26 321.661C180.848 321.661 180.334 321.889 180.128 322.117V322.231C178.996 322.572 177.863 322.8 176.731 323.142C175.805 323.256 174.672 323.37 173.128 323.598C171.79 323.826 171.07 324.054 170.761 324.396C161.6 326.105 150.174 327.7 150.174 327.7C144.307 325.535 138.028 320.977 134.837 316.419C132.263 312.544 131.646 310.037 130.411 297.161C129.381 286.791 131.543 249.528 134.631 224.23C135.043 220.241 136.381 212.606 136.793 211.239C136.896 210.555 137.513 208.504 137.925 206.795C138.44 204.971 139.675 201.439 140.91 198.704C142.969 194.032 143.175 193.804 145.233 193.234C146.365 192.892 148.012 192.664 148.836 192.892C149.659 193.12 152.027 193.462 153.983 193.804C155.938 194.032 158.306 194.829 159.232 195.399C161.188 196.653 161.188 196.653 161.188 195.171C161.188 192.892 159.438 191.753 152.233 189.473C151.512 189.246 150.071 189.018 149.042 189.018C148.115 189.018 147.292 188.79 147.292 188.448C147.292 186.852 161.394 175.229 163.453 175.229C163.864 175.229 164.791 174.659 165.305 174.09C165.923 173.406 169.732 171.013 173.952 168.734C179.613 165.657 181.775 164.631 182.598 164.859C183.834 165.315 183.834 165.201 183.525 162.124C182.598 151.527 182.598 149.475 183.628 147.994C184.245 147.196 185.378 146.285 186.098 145.829C187.333 145.145 187.642 145.145 188.054 145.829C188.569 146.399 188.569 146.854 188.157 147.652C187.025 149.589 187.436 150.615 190.113 152.78C194.23 156.085 196.494 156.996 202.773 157.794C211.626 158.82 219.14 157.566 225.419 153.92C226.448 153.35 230.257 155.287 230.566 156.654C230.874 157.908 232.11 158.022 232.213 156.768C232.419 153.692 231.595 152.324 228.61 150.615C227.272 149.817 226.14 149.703 224.596 149.817C222.846 150.045 222.537 149.931 222.537 149.133C222.537 148.564 222.331 147.994 222.022 147.88C221.816 147.652 221.61 146.171 221.61 144.461V141.385L223.875 140.929C230.874 139.903 235.712 135.459 239.212 126.798C241.374 121.784 241.683 117.34 242.094 95.6888C242.197 85.091 242.506 76.5444 242.712 76.5444C242.918 76.5444 244.359 75.1769 245.903 73.5816C247.55 71.9862 248.991 70.6187 249.3 70.6187C250.02 70.6187 251.976 67.542 252.594 65.2629C253.314 62.9838 253.417 56.1465 252.697 54.6651C252.491 54.2093 251.77 53.6395 251.153 53.6395C250.02 53.6395 250.02 53.7534 250.02 59.6791V59.5651C250.123 65.7187 249.403 69.0234 248.27 69.0234C247.859 69.0234 247.035 69.821 246.212 70.7327C244.976 72.1001 243.33 73.1257 239.521 74.8351C239.006 75.063 238.08 75.5188 237.359 75.8606C236.227 76.4304 232.83 77.3421 227.272 78.7095C225.728 78.9374 223.978 79.1653 223.463 78.9374C219.037 77.7979 217.596 77.2281 213.273 74.7211C205.964 70.5048 203.803 69.935 201.538 71.6443C200.303 72.556 201.229 73.8095 202.979 73.8095C204.523 73.8095 210.596 76.8862 213.479 79.1653C214.199 79.7351 214.92 80.1909 215.228 80.1909C215.434 80.1909 216.155 80.5328 216.773 80.8746C221.507 83.6096 226.86 83.3817 235.815 79.8491C237.771 79.1653 239.521 78.5956 239.624 78.8235C239.727 78.8235 239.624 81.9002 239.315 85.3189C239.109 88.7375 238.698 97.3981 238.595 104.577C238.389 111.756 238.08 118.708 237.771 119.961C236.536 126.115 232.419 132.952 228.713 134.889C227.786 135.345 226.448 136.029 225.728 136.485C224.801 136.94 222.434 137.282 218.419 137.282H218.214C218.111 137.168 218.111 137.054 217.905 137.282H216.978C213.993 136.826 205.141 133.978 203.185 133.294C200.715 132.382 204.935 138.992 211.008 143.322C215.126 146.285 218.317 146.968 219.758 147.31C220.272 149.361 220.89 151.299 221.199 151.299C222.125 151.299 221.507 152.21 220.272 152.78C218.419 153.578 210.391 155.059 207.714 155.059C205.038 155.059 197.112 153.464 196.392 152.894C196.186 152.552 195.671 152.324 195.362 152.324C195.053 152.324 193.921 151.754 192.789 150.957L190.936 149.589V138.65C190.936 126.457 190.113 120.873 188.466 120.303C187.025 119.733 186.407 120.531 186.819 122.354C187.127 124.063 187.848 131.015 188.363 138.194C188.569 142.068 188.569 142.296 187.642 142.296C186.304 142.296 182.495 144.575 181.26 146.057C180.334 147.196 180.334 147.88 180.54 154.261L180.848 161.099L178.275 162.352C176.937 163.036 172.614 165.429 168.599 167.594C161.6 171.355 161.291 171.469 156.865 171.697C144.513 172.494 132.263 173.862 128.558 174.887C126.911 175.343 124.749 176.027 123.823 176.255C120.838 177.052 116.206 180.015 114.044 182.294C110.853 185.941 109.927 188.562 109.927 194.373C109.927 196.994 110.133 199.957 110.338 200.869C110.544 201.781 111.162 203.946 111.677 205.655C112.088 207.478 112.912 209.529 113.324 210.327C113.838 211.011 114.25 211.922 114.25 212.264C114.25 212.606 114.559 212.834 114.971 212.834C115.794 212.834 116 210.783 115.279 209.871C114.559 209.188 113.632 202.464 113.427 196.994C113.221 191.069 113.838 188.676 116.72 185.371C119.5 182.294 122.999 180.585 131.028 178.42C133.19 177.85 138.748 177.166 148.115 176.255C150.792 176.027 153.159 175.685 153.468 175.457C153.777 175.343 154.291 175.343 154.497 175.457C154.806 175.685 154.188 176.483 152.953 177.508C145.748 183.092 140.601 189.587 137.204 197.222C135.969 200.185 134.837 203.034 134.837 203.49C134.837 203.946 134.631 204.401 134.425 204.629C134.116 204.743 133.91 205.541 133.705 206.339C133.602 207.136 133.087 209.415 132.675 211.581C130.617 220.925 128.249 245.083 127.22 266.165C126.808 274.142 126.499 273.116 123.617 253.402C122.279 244.627 121.147 238.132 120.323 234.03C119.808 231.637 119.5 231.067 118.676 230.953C118.059 230.839 117.441 231.181 117.338 231.637C117.029 232.32 117.75 239.727 118.985 248.388C119.294 249.983 119.808 253.744 120.22 256.593C121.661 266.849 123.514 279.156 124.749 287.93C125.676 294.084 126.19 298.3 126.705 303.314C127.014 306.277 127.323 309.012 127.426 309.468C127.837 310.379 128.455 314.482 129.381 321.889C130.205 328.042 130.617 330.435 131.44 335.677C133.396 346.617 133.91 350.263 136.072 366.217C137.41 376.017 137.616 377.613 139.675 388.78C139.778 389.92 140.601 393.11 141.322 395.845C142.042 398.694 142.66 401.543 142.866 402.455C142.969 403.252 143.277 404.05 143.483 404.164C143.792 404.392 143.895 404.734 143.895 405.19C143.895 406.671 146.88 412.824 148.733 415.218C150.792 417.611 155.732 420.801 157.791 420.801C158.821 420.801 159.232 422.739 160.056 429.12C160.365 431.627 160.776 433.564 161.806 436.983C163.453 442.339 168.188 445.415 175.702 446.099L178.481 446.441L178.378 448.378C178.378 449.404 178.172 452.253 177.966 454.76C177.657 457.267 177.246 461.825 177.04 464.902C176.216 474.816 175.599 480.969 175.393 483.476C174.981 486.667 174.158 497.151 173.54 504.672C172.923 513.788 172.408 520.284 171.481 532.021C170.452 545.81 170.04 551.621 169.423 560.966C169.114 565.182 168.805 569.74 168.599 571.221C168.393 572.703 168.085 576.691 167.776 579.996C167.57 583.301 167.158 587.973 166.952 590.366C166.746 592.645 166.335 597.545 166.026 601.192C165.717 604.952 165.408 608.826 165.202 609.966C164.379 616.347 163.35 638.683 163.761 640.848C164.173 642.671 167.261 644.722 169.732 644.722C173.952 644.722 177.04 641.873 177.04 637.999C177.04 636.859 177.246 634.01 177.452 631.731C177.76 629.452 178.172 624.324 178.481 620.564C178.79 616.803 179.202 611.675 179.407 609.168C179.613 606.661 180.128 600.85 180.54 596.177C180.951 591.505 181.569 585.352 181.878 582.389C182.187 579.426 182.495 575.21 182.804 572.817C182.907 570.538 183.525 564.84 183.936 560.168C185.378 544.556 185.583 542.619 186.098 536.465C186.407 533.161 186.819 528.261 187.127 525.64C187.848 518.119 188.466 510.939 188.671 508.091C188.774 506.609 189.186 501.367 189.701 496.467C190.113 491.453 190.73 484.958 190.936 481.881C191.245 478.804 191.657 474.246 191.862 471.739C192.068 469.232 192.583 462.965 192.995 457.609C193.406 452.253 193.818 447.695 193.921 447.581C194.024 447.353 213.787 447.239 237.771 447.125C261.652 447.011 283.474 446.783 286.047 446.555L290.885 446.213L291.194 450.316C291.503 454.076 292.326 461.483 293.459 469.688C294.591 477.551 296.238 490.769 296.649 494.302C296.752 495.442 297.061 497.607 297.267 499.088C297.576 500.57 298.091 504.558 298.502 507.863C298.914 511.167 299.326 514.814 299.429 515.84C299.635 516.865 299.943 519.258 300.149 521.081C301.693 532.705 302.208 537.035 302.62 539.656C302.826 541.251 303.134 543.53 303.34 544.784C303.958 549.912 305.193 559.37 305.914 564.84C306.119 566.663 306.737 570.88 307.149 574.184C307.561 577.489 308.075 581.819 308.384 583.756C309.002 588.77 309.619 593.215 310.443 600.166C310.957 603.471 311.472 607.801 311.678 609.51C312.398 614.41 312.913 618.854 313.531 624.894C313.942 627.743 314.354 630.934 314.56 631.845C314.869 632.643 315.075 634.352 315.075 635.492C315.075 639.822 316.722 643.583 319.192 645.064C320.839 645.976 328.147 646.09 329.897 645.064C331.235 644.38 331.853 642.671 330.721 642.671C330.309 642.671 329.897 642.215 329.691 641.645C329.28 640.734 328.25 634.238 327.53 628.541C327.221 626.831 326.912 624.552 326.809 623.527C326.603 622.501 326.192 619.31 325.78 616.347C325.471 613.385 325.059 610.08 324.853 608.94C324.751 607.801 324.339 605.294 324.133 603.357C323.721 600.166 322.898 593.215 321.765 584.782C321.56 582.845 321.045 579.768 320.839 577.945C320.53 576.008 320.016 571.677 319.604 568.373C319.192 564.954 318.677 560.852 318.369 559.028C317.339 551.052 316.928 548.658 316.207 542.847C315.795 539.542 315.281 535.326 315.075 533.616C314.56 530.084 313.222 519.942 312.604 515.042C312.398 513.219 311.884 510.256 311.678 508.432C310.854 502.051 309.722 493.276 309.207 490.314C309.002 488.718 308.693 485.869 308.384 483.932C308.178 482.109 307.869 479.944 307.663 479.26C307.561 478.462 307.149 475.955 306.943 473.676C306.634 471.283 306.222 467.979 306.016 466.155C303.34 445.985 303.34 446.099 302.928 445.415C302.723 445.074 303.443 444.618 304.884 444.162C309.722 442.795 311.266 441.541 312.913 438.008C313.737 436.185 314.045 435.729 314.045 436.641C314.045 437.211 314.251 438.35 314.56 439.034C314.766 439.718 315.281 441.655 315.795 443.364C316.825 447.581 318.472 452.937 320.53 459.318C321.56 462.281 322.692 466.041 323.207 467.751C323.721 469.574 324.339 471.511 324.648 472.081C324.853 472.651 325.265 474.018 325.574 475.272C326.397 478.234 327.015 480.514 327.427 482.451C328.559 486.439 331.544 499.658 333.706 509.458C334.22 511.965 334.838 514.7 335.147 515.612C335.456 516.523 335.662 517.777 335.662 518.574C335.662 519.372 335.867 520.056 336.073 520.284C336.279 520.398 336.588 521.537 336.794 522.563C336.897 523.702 337.309 526.437 337.823 528.83C338.235 531.109 338.75 533.958 338.853 534.87C338.955 535.896 339.264 537.263 339.47 537.833C339.676 538.403 340.294 541.479 340.911 544.784C341.426 547.861 342.146 551.393 342.352 552.419C343.176 556.065 345.029 565.182 345.646 568.828C347.19 577.831 347.705 579.084 350.587 580.68C351.513 581.135 353.057 581.591 354.19 581.591C355.322 581.591 356.454 581.705 356.866 581.819C357.587 582.161 357.587 585.694 356.866 587.175C356.557 587.745 356.248 591.505 356.043 595.38C355.734 603.699 354.91 608.94 352.955 616.12C351.513 621.02 352.749 623.527 357.072 625.692C360.572 627.401 360.983 627.515 365.615 629.11C367.983 629.908 370.453 630.706 371.071 631.048C375.6 632.643 391.761 636.29 404.628 638.455C408.539 639.138 411.833 639.708 415.847 640.392C418.215 640.848 427.273 642.443 431.082 643.013C433.037 643.355 434.067 642.329 432.729 641.417C432.111 641.076 432.008 640.848 432.42 640.506C432.831 640.278 432.934 639.708 432.831 639.252C432.42 638.113 430.979 638.113 430.979 639.138C430.979 640.164 430.155 640.734 429.435 640.05C429.126 639.822 428.199 639.48 427.479 639.252C426.655 639.138 424.391 638.569 422.435 638.113C418.318 637.201 415.641 636.517 411.627 635.834C408.127 635.15 400.922 633.669 397.937 632.985C396.805 632.757 394.437 632.301 392.687 632.073C389.805 631.503 387.438 631.048 383.526 629.908C382.703 629.566 380.232 628.996 378.276 628.541C376.321 628.085 374.159 627.401 373.541 627.287C372.821 627.059 370.968 626.375 369.424 625.92C364.792 624.438 360.983 622.957 358.204 621.589L355.734 620.336L356.043 617.259C356.248 615.664 356.454 613.954 356.763 613.727C357.278 612.929 358.101 606.433 359.131 594.126C359.439 590.48 359.851 587.403 359.954 587.403C360.16 587.403 361.91 588.656 363.866 590.024C370.659 594.696 373.233 595.608 378.688 595.266C382.394 594.924 384.761 594.24 389.805 591.961C390.32 591.733 391.04 592.417 392.07 594.012C393.614 596.405 400.201 603.243 409.465 612.131C417.185 619.538 425.317 624.666 436.537 629.338C441.89 631.503 441.684 631.39 441.375 632.757C441.169 633.327 440.757 635.036 440.552 636.517C440.243 638.113 439.625 639.594 439.11 640.164C438.287 640.848 438.081 641.304 438.596 641.987C440.552 645.634 444.875 638.911 444.875 632.187C444.875 629.794 444.772 629.224 443.64 628.313C442.919 627.743 441.787 627.059 441.169 626.831C440.449 626.717 439.728 626.375 439.419 626.148C439.213 625.92 438.287 625.692 437.566 625.464C435.611 624.894 427.479 620.678 422.641 617.715C420.171 616.12 414.2 611.22 411.112 608.143C409.774 606.775 407.407 604.496 405.863 603.129C401.334 598.912 398.863 596.405 396.599 593.784C394.54 591.505 391.761 587.061 391.143 585.124C390.628 583.984 389.29 583.415 388.879 584.326C388.57 584.668 388.57 585.694 388.673 586.377C388.982 588.087 388.776 588.201 384.041 590.138C381.776 591.05 379.923 591.391 377.35 591.391C374.159 591.391 373.336 591.164 369.939 589.226C365.512 586.833 359.645 582.617 359.851 582.047C359.954 581.819 361.91 581.591 364.277 581.363C368.395 581.022 369.63 580.68 373.85 579.084C376.321 578.173 376.732 577.489 375.909 576.463C375.291 575.894 374.262 575.894 370.145 576.349C367.365 576.691 362.424 577.033 359.131 577.147C353.263 577.375 352.955 577.375 351.719 576.235C350.999 575.438 350.278 573.842 349.764 571.791C349.043 568.487 349.249 567.917 351.205 567.803C352.337 567.803 359.234 566.891 363.248 566.207C374.777 564.498 378.585 563.928 382.394 563.7L386.717 563.473L387.335 564.954C387.643 565.752 387.849 566.777 387.849 567.233C387.849 568.373 389.187 570.424 389.805 570.424C390.526 570.424 390.114 560.852 389.084 554.242C388.673 551.393 388.158 547.405 387.849 545.582C387.643 543.644 387.335 541.251 387.129 540.226C387.026 539.2 386.614 535.896 386.202 532.819C385.791 529.742 385.276 525.981 384.967 524.614C384.761 523.133 384.041 517.777 383.423 512.649C382.703 507.521 382.085 502.507 381.879 501.481C381.776 500.456 381.467 498.746 381.364 497.721C381.261 496.809 380.953 494.644 380.747 493.049C380.232 489.972 379.409 483.134 378.791 476.867C378.379 472.993 377.968 469.118 376.629 458.52C376.218 455.216 375.703 450.771 375.394 448.948C375.188 446.897 374.777 443.934 374.468 442.225C374.262 440.629 373.953 439.034 373.953 438.692C373.953 438.122 375.806 440.629 377.556 443.706C378.276 444.96 382.394 451.227 386.614 457.495C397.525 473.676 398.76 475.5 402.981 482.565C407.098 489.402 409.054 491.339 412.348 491.795L414.303 492.137L414.097 495.214C413.892 496.923 413.583 499.658 413.48 501.367C412.862 507.749 415.436 509.686 427.685 512.193C433.758 513.446 444.772 515.042 452.801 515.84C466.285 517.207 493.871 517.435 494.592 516.181C495.313 514.928 493.357 514.586 485.843 514.13C461.962 512.763 447.654 511.623 439.625 510.142C438.699 510.028 436.743 509.686 435.302 509.458C426.244 507.977 421.303 506.837 418.729 505.47C416.98 504.444 416.877 504.33 416.877 501.481C416.877 499.886 417.083 496.695 417.391 494.416L417.803 490.314L422.744 487.351L427.788 484.502L430.464 485.072C431.905 485.414 433.964 485.869 434.89 486.097C439.11 487.351 443.743 486.097 448.272 482.793L451.154 480.741L453.11 482.679C455.271 484.73 462.579 490.086 467.212 493.049C475.137 497.835 481.108 500.684 487.593 502.507C488.725 502.849 490.372 503.305 491.195 503.646C492.019 503.874 493.666 504.216 495.107 504.444C497.989 504.786 498.401 505.47 498.812 510.826C499.224 515.384 499.224 515.498 499.018 516.295C498.915 516.865 499.224 517.093 499.842 517.093C502.312 517.093 502.621 504.786 500.048 502.279C499.533 501.823 497.577 501.025 495.621 500.684C488.622 499.202 484.813 497.949 479.667 495.669C477.608 494.644 475.652 493.732 475.343 493.504C475.137 493.276 474.108 492.593 473.182 492.137C472.255 491.567 470.3 490.314 468.653 489.288C465.976 487.693 459.491 483.134 458.565 482.337C458.359 481.995 456.609 480.628 454.757 479.146C452.183 476.867 451.36 476.525 450.742 476.981C450.227 477.437 449.404 477.893 448.58 478.348L443.948 470.258C444.257 469.688 444.463 469.232 444.463 469.004C444.463 468.092 443.125 465.244 435.817 450.316C435.096 448.834 433.655 445.757 432.42 443.364C431.287 441.085 429.846 437.895 429.126 436.527C427.891 433.906 425.935 429.804 421.2 420.004C419.965 417.383 418.524 414.534 418.112 413.622C417.288 412.141 415.744 409.064 412.451 402.227C410.701 398.808 409.362 396.073 407.716 392.768C407.201 391.743 405.966 389.464 405.142 387.641C404.319 385.931 402.466 382.171 401.025 379.436C399.687 376.701 398.143 373.51 397.628 372.599C395.672 368.382 392.481 363.026 391.967 363.026C391.658 363.026 391.246 363.254 390.937 363.596C390.423 364.166 391.143 366.103 393.716 371.801C398.04 381.031 404.113 394.022 405.142 396.187C405.863 397.555 407.613 401.201 408.951 404.164C410.392 407.013 412.142 410.545 412.862 412.141C415.641 417.611 417.083 420.687 419.141 425.132C420.376 427.525 421.818 430.601 422.435 431.741C423.053 432.88 424.494 435.843 425.626 438.35C426.758 440.857 428.302 443.934 429.023 445.302C431.905 450.999 434.478 456.469 434.273 456.697C434.273 456.811 430.361 459.546 425.729 462.965C421.2 466.269 417.083 469.232 416.877 469.46C415.95 470.258 414.509 471.283 413.789 471.625C413.377 471.853 412.862 472.195 412.553 472.423C411.524 473.334 406.995 476.525 406.686 476.525C406.583 476.525 406.069 476.867 405.657 477.323C404.936 478.12 404.422 477.551 399.995 470.599C397.319 466.383 393.716 461.141 392.07 458.748L389.599 455.102C389.496 454.988 387.335 449.86 382.805 438.236C378.997 428.664 368.189 395.845 364.277 384.108C363.866 382.626 363.351 381.259 362.939 379.892H362.836C362.527 378.866 362.116 377.954 361.807 377.157C359.131 370.775 355.94 367.471 347.911 362.798C345.543 361.317 343.073 359.722 342.455 359.152C340.911 357.556 335.662 357.215 332.162 358.468C329.588 359.38 323.721 361.659 321.971 362.457C321.457 362.684 320.221 363.254 319.398 363.482C317.339 364.394 315.486 365.191 312.501 366.673C311.266 367.243 310.134 367.812 310.031 367.812C309.31 367.812 295.105 375.561 281.312 383.424C280.592 383.766 279.768 384.222 279.048 384.678H278.945C276.269 386.159 273.798 387.413 272.769 387.754C271.122 388.324 270.607 388.78 270.504 389.578L228.61 413.622C216.567 415.218 214.611 415.104 209.876 413.85C198.45 411.001 191.142 406.785 185.892 400.289C182.804 396.415 179.304 389.236 176.525 381.259C175.805 379.094 174.569 373.966 173.231 366.217C172.614 362.912 171.276 352.429 171.276 351.175C171.276 350.377 171.79 350.263 174.158 350.263C176.937 350.263 178.275 349.922 186.407 347.301C193.201 345.135 200.921 342.742 204.832 341.831C205.759 341.603 207.92 341.033 209.567 340.463C211.317 340.121 214.92 339.096 217.493 338.298C220.169 337.5 223.051 336.703 223.978 336.475C224.904 336.247 226.963 335.677 228.507 335.107C230.154 334.652 232.11 334.082 233.036 333.74C240.139 331.575 244.976 329.979 248.373 328.726C254.241 326.561 261.034 323.712 262.475 322.8C263.196 322.345 266.49 321.433 269.681 320.749C272.872 319.951 276.269 319.154 277.195 318.926C278.121 318.698 280.283 318.128 281.93 317.672C283.68 317.217 286.047 316.533 287.282 316.305C288.415 315.963 290.165 315.507 291.091 315.279C300.87 312.658 305.296 311.633 315.075 309.923C327.221 307.758 336.897 306.961 341.323 307.758L344.72 308.442V315.507C344.72 320.179 344.926 322.686 345.234 323.028C346.058 323.484 346.676 322.231 346.881 319.496C347.396 314.937 348.22 309.923 348.528 309.923C348.734 309.923 349.969 310.721 351.308 311.519C355.425 314.14 360.057 319.724 366.336 329.638C369.63 334.652 372.409 338.982 372.512 339.096C372.718 339.324 374.056 341.147 375.703 343.426C379.203 348.212 381.879 351.289 382.497 351.289C383.526 351.289 383.526 350.377 382.394 348.44C381.673 347.415 381.159 346.275 381.159 346.047C381.159 345.819 380.953 345.477 380.747 345.363C380.541 345.249 379.306 343.084 377.865 340.463C376.424 337.842 375.188 335.563 374.982 335.449C374.777 335.221 373.747 333.398 372.512 331.461C364.071 316.761 359.234 310.721 352.337 306.619C348.22 304.112 339.882 302.175 335.147 302.63C324.236 303.77 319.604 304.34 310.237 306.277C309.002 306.505 306.737 306.961 304.987 307.302H304.678L297.164 294.198C298.811 294.312 300.458 294.198 301.693 293.97C305.399 293.4 310.649 290.665 312.295 288.614C318.472 280.865 321.045 269.242 319.81 255.681C319.192 249.072 318.472 247.476 316.825 249.3C316.104 250.211 316.001 250.781 316.619 256.821C318.266 277.56 310.957 291.121 298.091 291.007C293.047 291.007 287.797 288.728 284.709 285.423C283.268 283.714 282.856 282.916 281.621 279.725C280.798 277.674 279.974 271.977 279.562 265.937C279.151 260.581 278.945 257.276 278.739 255.225C278.739 255.225 278.739 252.035 278.636 249.3ZM270.71 265.025C270.71 265.025 265.666 267.077 264.946 269.47C264.534 271.293 268.137 274.484 270.298 275.965C270.298 276.079 270.401 276.307 270.504 276.535C271.431 278.586 271.431 279.042 270.916 280.865C270.401 282.688 270.504 286.449 271.225 288.272C271.431 288.842 270.916 289.753 269.681 291.121C266.387 294.654 265.769 294.767 253.314 294.767C245.8 294.767 241.991 294.54 241.477 294.084C240.653 293.286 239.727 288.044 238.8 278.244L238.183 272.66L241.786 268.672C243.741 266.393 246.212 263.316 247.241 261.949C250.844 256.593 252.285 256.023 256.093 258.074C258.77 259.556 258.976 260.353 256.711 260.809C254.035 261.265 253.314 261.835 254.138 262.974C254.652 263.658 255.476 263.658 258.461 263.43C260.417 263.316 262.475 262.974 262.99 262.746C263.608 262.518 265.357 261.949 267.004 261.721C269.372 261.151 270.092 261.151 270.71 261.721C271.636 262.518 271.636 263.772 270.71 265.025ZM305.605 375.105C305.605 375.105 275.136 397.669 269.269 407.241C265.872 413.052 263.916 416.927 262.99 419.206C265.049 419.434 267.21 419.548 269.269 419.776C275.548 420.345 310.031 422.966 313.222 423.194C315.898 423.308 316.413 423.65 315.692 425.132C315.281 425.701 315.281 426.613 315.486 427.525C315.692 428.322 316.31 430.829 316.722 432.994C317.133 435.274 317.648 437.553 317.854 438.122C318.06 438.692 318.883 441.199 319.501 443.706C320.221 446.099 321.045 448.606 321.251 449.176C321.457 449.86 321.971 451.455 322.486 452.937C322.898 454.418 323.515 456.127 323.721 456.811C325.78 462.509 330 475.727 330.824 479.488C331.03 480.286 331.647 482.451 332.059 484.274C332.471 485.983 333.088 488.262 333.294 489.288C333.5 490.314 334.015 492.707 334.426 494.644C334.941 496.467 335.456 498.974 335.662 500C336.691 504.672 338.132 510.939 339.47 516.865C339.676 517.891 340.294 520.74 340.705 523.247C341.117 525.754 341.632 528.488 341.941 529.4C342.146 530.312 342.352 531.679 342.352 532.477C342.352 533.161 342.558 534.3 342.764 534.984C343.073 535.668 343.588 538.63 343.999 541.593C344.514 544.442 345.029 547.291 345.234 547.861C345.44 548.544 345.749 549.798 345.955 550.824C346.058 551.849 346.573 554.242 346.881 556.179C347.293 558.003 347.808 560.624 348.014 561.763C348.322 564.612 348.94 564.84 353.572 564.156C355.425 563.814 357.895 563.473 359.131 563.359C360.366 563.131 362.63 562.789 364.174 562.561C370.556 561.535 378.276 560.282 381.159 559.826C385.688 559.256 386.099 559.028 385.688 556.749C385.585 555.61 385.173 554.014 384.967 552.989C384.761 551.963 384.555 550.368 384.555 549.57C384.555 548.658 384.349 547.291 384.144 546.379C383.629 544.556 381.776 532.477 380.438 521.879C380.335 520.74 379.923 517.663 379.512 515.042C379.1 512.421 378.688 509.344 378.585 508.091C377.968 503.76 377.35 499.43 376.629 494.302C376.218 491.453 375.703 487.237 375.394 485.072C375.188 482.907 374.88 480.058 374.674 478.918C374.571 477.779 374.159 473.448 373.747 469.346C373.336 465.358 372.821 461.141 372.512 460.002C372.306 458.976 372.1 457.381 372.1 456.355C372.1 455.444 371.894 453.734 371.689 452.709C371.38 451.683 370.865 447.923 370.35 444.504C369.939 440.971 369.527 437.553 369.424 436.755C369.218 436.071 368.909 434.134 368.703 432.539C368.086 427.753 366.336 416.585 365.924 413.622C365.615 412.141 365.101 408.836 364.689 406.215C363.351 398.694 361.086 387.754 359.851 383.994C359.234 382.057 359.028 381.829 357.792 382.057C357.072 382.057 356.351 382.399 356.043 382.74C355.734 382.968 355.322 383.196 355.013 383.196C354.601 383.196 352.234 384.336 349.764 385.589C346.984 387.071 345.029 387.868 344.72 387.527C343.999 386.729 346.47 383.538 349.146 381.487C351.513 379.778 352.44 379.322 355.94 377.84C357.278 377.385 357.278 377.385 356.454 375.903C354.91 373.168 353.16 371.345 349.249 368.496C346.984 366.901 345.132 365.647 345.029 365.647C344.926 365.647 343.69 364.964 342.352 364.052C340.088 362.457 339.676 362.343 336.691 362.684C334.941 362.798 331.647 363.71 329.383 364.622C327.118 365.533 324.339 366.673 323.207 367.015C321.045 367.926 319.81 368.382 316.413 370.091C315.384 370.547 314.56 371.003 314.354 371.003C314.251 371.003 312.707 371.687 310.957 372.599C309.207 373.396 307.663 374.194 307.561 374.194C307.458 374.194 306.84 374.536 305.605 375.105ZM292.738 293.856L300.561 308.214L299.943 308.442C296.855 309.354 294.9 309.81 291.297 310.721C288.003 311.633 285.533 312.316 282.65 313.228C280.283 313.912 273.18 315.849 271.842 316.191C270.71 316.419 270.607 316.305 270.298 314.368C270.195 313.228 269.681 310.265 269.269 307.644C268.754 304.34 268.651 302.63 269.063 302.288C269.681 301.605 269.681 300.123 268.96 297.958C268.343 296.249 268.445 296.135 270.092 294.54C271.122 293.628 271.945 292.602 271.945 292.147C271.945 291.691 272.357 290.665 272.975 289.753C273.798 288.5 273.901 288.044 273.489 286.905C272.769 285.195 272.666 282.005 273.386 281.549C273.592 281.435 273.798 280.295 273.798 279.27V277.218L275.857 277.56C277.607 277.788 277.915 278.016 278.327 279.498C279.357 283.03 281.003 286.449 282.753 288.272C284.4 289.867 285.533 290.665 289.65 293.058C290.268 293.4 291.4 293.628 292.738 293.856ZM235.095 312.43C226.345 317.331 201.538 331.233 190.627 334.196C181.569 336.703 172.82 336.703 169.011 336.475C169.526 338.298 170.143 340.577 170.864 343.426C171.584 345.933 173.025 346.845 175.187 346.161C177.246 345.363 185.995 342.628 191.657 340.919C194.024 340.121 196.597 339.324 197.421 339.096C200.097 338.298 200.715 338.07 208.847 335.905C217.081 333.74 217.699 333.626 220.375 332.714C221.199 332.486 223.978 331.689 226.654 330.891C229.228 330.207 232.11 329.296 232.83 329.068C233.654 328.84 235.609 328.156 237.153 327.7C238.698 327.245 240.756 326.675 241.477 326.447C243.432 325.877 251.77 322.8 253.005 322.231C253.52 321.889 254.858 321.319 256.093 320.863C257.329 320.293 258.564 319.724 258.976 319.61C259.387 319.382 260.931 318.812 262.578 318.242C267.416 316.533 267.107 317.217 266.181 310.493C265.563 305.821 264.946 304.909 263.196 305.593C261.652 306.277 259.902 306.847 249.403 309.696C244.462 311.063 239.727 312.43 238.8 312.658C236.33 313.342 235.301 313.342 235.095 312.43ZM164.482 333.398C164.276 332.828 164.173 332.259 164.276 331.803C163.967 330.777 163.453 329.866 162.114 330.207C159.747 330.663 155.424 330.777 155.321 330.777C153.571 331.233 150.792 331.233 148.733 330.549C143.277 328.726 139.675 326.561 134.837 322.8L133.808 321.889L134.013 324.624C134.116 326.903 134.734 330.207 136.278 339.438C137.204 344.338 137.616 346.845 138.337 352.656C138.851 355.847 139.469 360.063 139.675 362.001C139.984 363.824 140.395 366.673 140.601 368.268C141.322 373.738 142.454 381.259 142.969 383.424C143.175 384.564 143.586 386.729 143.895 388.21C145.027 394.25 148.115 405.19 149.454 408.266C150.586 410.545 153.571 413.964 155.424 414.99C156.35 415.445 158.615 416.243 160.57 416.585C163.864 417.269 164.688 417.269 171.996 416.015C178.996 414.99 187.025 413.964 189.495 413.964C194.024 413.85 194.23 413.394 190.936 411.115C183.834 406.215 179.202 399.72 174.467 387.982C171.379 380.233 169.011 367.015 167.982 351.289C167.673 347.984 167.261 344.224 166.952 343.084C166.746 341.945 166.232 339.78 166.026 338.298C165.717 336.817 165.1 334.993 164.791 334.196C164.585 333.968 164.482 333.74 164.482 333.398ZM211.832 117.226C211.111 118.024 211.626 119.961 212.861 120.873C215.023 122.582 216.773 123.152 219.346 123.152C221.405 123.152 222.125 122.924 222.949 122.012C223.875 120.873 223.978 120.531 223.36 120.075C222.846 119.619 222.537 119.619 222.331 119.961C221.507 121.329 215.434 119.733 213.89 117.568C213.273 116.77 212.346 116.656 211.832 117.226ZM177.349 100.703C176.628 101.5 177.143 103.096 178.378 103.893C180.128 105.147 180.334 105.717 179.819 106.742C179.202 108.224 179.304 108.338 180.951 108.224C182.29 108.11 182.598 108.338 183.834 110.959C185.275 113.921 186.201 114.605 186.51 113.01C186.819 111.301 183.628 105.033 180.951 102.412C179.51 100.931 177.863 100.133 177.349 100.703ZM229.948 94.4353C228.919 95.119 228.713 96.8283 229.536 98.0818C230.874 100.361 233.036 99.3353 233.036 96.3725C233.036 94.3213 231.389 93.2957 229.948 94.4353ZM209.567 94.4353C208.332 94.8911 207.714 96.2585 207.714 98.3097C207.714 100.019 207.92 100.475 208.847 100.931C211.729 102.412 213.993 99.7911 212.758 96.4864C212.038 94.6632 210.905 93.9794 209.567 94.4353ZM220.375 92.612C220.169 93.1818 220.581 96.1446 221.61 100.589C221.919 101.842 222.228 104.235 222.434 105.945C222.64 109.135 222.64 109.249 220.89 110.845C218.934 112.782 218.728 113.466 220.375 113.921C221.816 114.377 224.081 113.01 225.11 111.301C226.037 109.705 226.037 106.173 225.007 101.386C224.698 100.133 224.287 98.0818 224.081 96.9423C223.36 93.1818 222.64 91.9283 221.61 91.9283C221.096 91.9283 220.478 92.1562 220.375 92.612ZM226.654 87.598C224.698 89.991 226.963 91.0166 231.389 89.6492C233.036 89.1933 233.86 89.1933 234.477 89.5352C235.301 90.2189 236.433 89.991 236.433 89.0794C236.433 88.8515 235.918 88.1677 235.404 87.598C233.757 86.1166 227.786 86.1166 226.654 87.598ZM208.641 87.484C205.759 88.2817 204.009 89.7631 204.523 91.0166C204.832 91.9283 206.273 92.1562 207.611 91.3585C208.538 90.7887 211.317 89.5352 212.655 88.9654C213.067 88.8515 213.479 88.3957 213.376 88.0538C212.964 86.9142 211.317 86.6863 208.641 87.484ZM197.318 78.1397C195.053 80.9886 194.745 83.8375 195.98 89.3073C196.803 92.8399 196.494 93.7515 194.23 95.5748C193.406 96.2585 192.892 97.0562 192.995 97.512C193.201 97.9678 192.995 99.3353 192.583 100.475C192.171 101.728 191.862 103.438 191.862 104.235C191.862 106.628 190.421 105.831 188.774 102.412C185.583 95.8027 181.775 92.8399 177.349 93.6376C174.672 94.2073 173.025 95.3469 171.584 97.8539C169.937 100.703 169.732 106.173 171.173 109.363C173.231 113.808 180.951 119.733 184.245 119.391C186.304 119.163 186.51 118.138 184.76 117.454C180.951 115.973 175.908 111.301 174.569 107.882C172.305 102.184 174.569 97.1702 179.304 97.1702C181.054 97.1702 181.672 97.512 183.422 99.4493C184.554 100.703 185.995 102.754 186.51 104.121C188.26 107.996 189.804 109.363 192.068 109.363C193.612 109.363 194.127 108.566 194.436 105.375C195.053 99.3353 195.362 97.7399 195.671 97.7399C195.877 97.7399 196.803 96.9423 197.627 95.9167L199.171 94.3213L198.759 89.7631C198.244 83.8375 198.347 81.3305 199.377 79.8491C200.818 77.3421 199.068 75.9746 197.318 78.1397ZM190.833 68.4536C189.598 69.2513 187.539 72.556 187.539 73.8095C187.539 74.949 188.774 74.3792 189.907 72.6699C190.524 71.8722 191.451 70.8466 192.171 70.5048C193.406 69.935 193.715 68.2257 192.686 67.8838C192.377 67.6559 191.451 67.9978 190.833 68.4536ZM201.229 55.9186C200.406 56.1465 198.553 57.0581 197.112 57.8558C194.848 59.1093 194.539 59.5651 194.333 61.0465C194.23 61.9582 194.333 62.6419 194.642 62.6419C194.95 62.6419 199.788 60.2489 202.979 58.4256C203.494 58.0837 204.523 57.9698 205.244 57.9698C206.891 57.9698 207.097 57.286 206.067 56.0325C205.244 55.1209 203.391 55.1209 201.229 55.9186ZM276.371 260.467C276.577 264.456 276.886 269.356 277.092 271.293C277.401 274.825 277.401 274.939 276.474 274.598C273.283 273.572 272.975 273.23 272.151 269.697L271.431 266.279L272.666 264.797C274.107 263.088 274.21 261.151 272.666 259.556C271.636 258.644 271.122 258.416 268.137 258.53C266.284 258.644 264.534 258.53 264.431 258.302C263.813 257.732 265.666 255.339 267.519 254.314C268.754 253.516 270.195 253.174 272.666 253.174H276.063L276.371 260.467ZM211.523 418.75C215.023 419.206 217.493 419.32 221.405 418.864C224.801 418.522 227.066 418.522 228.095 418.864C230.463 419.776 233.963 420.232 242.197 421.143C246.521 421.485 251.873 422.169 254.138 422.397C267.519 424.22 283.474 425.587 295.62 426.157C300.87 426.385 306.943 426.727 309.002 426.955C312.501 427.297 312.604 427.411 312.604 428.778C312.604 429.462 312.81 430.715 313.016 431.399C313.222 432.539 313.222 432.539 312.295 432.083C311.163 431.399 310.751 431.741 310.751 432.994C310.751 434.818 307.972 438.236 306.119 438.92C296.032 442.225 293.15 442.339 230.257 442.339C188.466 442.339 174.261 442.225 172.408 441.655C166.541 440.174 164.791 437.439 162.835 426.499C162.114 422.169 162.217 421.143 163.453 421.599C164.173 421.827 169.217 421.257 179.922 419.776C184.863 418.978 202.156 417.725 204.832 417.952C205.964 417.952 209.052 418.294 211.523 418.75ZM437.875 463.306C438.596 464.902 439.728 467.181 440.346 468.434L441.478 470.713L437.566 472.993C433.758 475.386 432.317 476.069 428.199 478.804C426.964 479.488 424.7 480.969 423.156 481.881C417.391 485.528 412.862 487.693 411.936 487.465C410.906 487.123 407.51 483.134 406.583 481.425C406.172 480.4 406.172 480.286 407.098 480.286C407.613 480.286 410.289 478.69 412.965 476.753C415.641 474.702 418.112 472.993 418.318 472.879C418.627 472.651 421.509 470.599 424.7 468.206C427.994 465.813 430.773 463.762 430.876 463.762C430.979 463.762 431.39 463.42 431.802 463.078C432.317 462.623 433.243 461.825 433.861 461.255C434.581 460.685 435.405 460.116 435.714 460.23C436.125 460.344 437.052 461.711 437.875 463.306ZM302.002 461.825C302.311 462.167 302.62 463.648 302.62 465.13C302.62 466.611 302.723 468.092 303.031 468.32C303.237 468.662 303.546 470.258 303.649 472.081C303.958 475.158 305.09 484.388 305.914 490.314C306.222 491.909 306.737 495.897 307.149 499.088C307.561 502.279 308.075 506.381 308.281 508.205C308.59 510.028 309.002 513.105 309.207 514.814C309.928 519.942 311.266 529.514 311.781 532.933C312.501 538.63 313.016 542.049 313.531 547.063C313.942 549.912 314.354 552.875 314.56 553.786C314.869 554.698 315.075 556.293 315.075 557.205C315.075 558.117 315.281 559.712 315.486 560.624C315.795 561.535 316.207 564.384 316.516 567.005C317.03 571.791 317.545 575.438 318.369 580.908C318.677 582.617 319.192 586.605 319.604 589.796C320.016 592.987 320.53 596.975 320.839 598.571C321.56 603.357 322.177 608.029 323.001 614.182C323.412 617.373 323.927 621.362 324.236 622.957C324.442 624.552 324.956 628.655 325.265 631.959C325.677 635.378 326.089 639.252 326.295 640.62L326.706 643.127H325.059C322.795 643.127 320.324 641.987 320.016 640.848C319.81 640.164 319.398 639.48 319.089 639.138C318.78 638.911 318.369 637.315 318.163 635.72C318.06 634.124 317.854 631.845 317.648 630.706C316.928 625.122 316.001 617.715 315.795 615.778C315.692 614.638 315.281 612.131 315.075 610.308C314.56 606.775 313.428 598.115 312.604 591.391C312.398 589.34 311.884 586.263 311.781 584.554C311.472 582.731 310.957 578.515 310.443 574.982C310.031 571.449 309.516 567.119 309.207 565.41C309.002 563.7 308.59 560.51 308.384 558.573C308.178 556.407 307.561 552.077 307.149 548.658C306.737 545.354 306.222 541.137 306.016 539.428C304.37 526.551 303.855 522.563 303.546 520.056C302.62 512.991 302.105 509.344 301.384 503.646C300.973 500.228 300.458 496.125 300.149 494.302C299.943 492.593 299.532 489.288 299.326 487.123C299.017 484.958 298.708 482.565 298.502 481.881C298.399 481.083 297.988 478.462 297.782 476.069C297.061 469.004 296.444 464.788 296.135 462.851L295.826 461.141H298.605C300.149 461.141 301.693 461.483 302.002 461.825ZM188.671 466.839C188.569 469.118 188.26 472.195 188.054 473.676C187.745 475.044 187.333 479.602 187.127 483.704C186.716 487.807 186.304 493.39 186.098 496.125C185.789 498.974 185.378 503.532 185.172 506.267C184.966 509.002 184.657 512.307 184.451 513.674C184.245 516.295 183.319 526.323 181.878 544.784C180.848 556.293 179.819 569.512 179.407 574.184C178.79 580.224 178.584 583.073 177.966 591.391C177.04 602.901 176.525 608.826 176.011 613.157C175.908 615.55 175.393 620.336 175.187 624.096C174.878 627.743 174.364 632.187 174.055 634.01C173.643 636.517 173.643 637.543 174.055 637.999C174.981 638.911 174.775 639.252 172.511 640.392C169.732 641.873 169.423 641.873 167.879 640.392L166.644 639.138L166.952 633.555C167.982 619.766 168.29 614.752 169.114 607.117C169.526 602.559 170.143 596.519 170.349 593.784C170.555 591.05 170.864 587.517 171.07 586.15C171.481 581.705 172.305 571.677 172.82 565.182C173.025 561.763 173.437 556.863 173.643 554.242C173.849 551.621 174.261 546.265 174.569 542.391C174.775 538.403 175.29 532.477 175.599 529.286C175.908 526.095 176.113 522.221 176.216 520.626C176.937 510.826 177.452 503.077 177.966 498.063C179.407 480.855 179.716 477.323 180.128 470.144C180.334 467.409 180.746 464.788 180.951 464.446C181.26 464.104 182.187 463.762 183.216 463.762C184.142 463.762 185.378 463.534 185.892 463.306C186.407 462.965 187.333 462.851 187.848 462.851C188.877 462.737 188.877 462.965 188.671 466.839Z" fill="#62736F"/>
<path fill-rule="evenodd" clip-rule="evenodd" d="M341.117 174.432C339.058 147.652 338.955 131.015 336.999 116.77L313.839 115.061C313.839 115.061 326.088 144.348 309.001 144.689C291.811 144.917 298.605 159.162 293.767 166.683C288.826 174.204 271.945 172.038 284.709 186.283C297.576 200.413 296.135 200.755 287.076 216.595C278.018 232.548 297.267 246.907 297.267 246.907C297.267 246.907 301.281 249.528 297.884 238.474C294.488 227.534 322.589 218.76 313.839 198.932C305.193 179.218 310.545 183.434 341.117 174.432Z" fill="white"/>
<path d="M34 664L43.1831 688.817L68 698L43.1831 707.183L34 732L24.8169 707.183L0 698L24.8169 688.817L34 664Z" fill="#F2D97E"/>
<path d="M445.5 63.3223L453.681 85.4323L453.921 86.0792L454.568 86.3186L476.678 94.5L454.568 102.681L453.921 102.921L453.681 103.568L445.5 125.678L437.319 103.568L437.079 102.921L436.432 102.681L414.322 94.5L436.432 86.3186L437.079 86.0792L437.319 85.4323L445.5 63.3223Z" stroke="#F2D97E" stroke-width="3"/>
<path d="M471 135L474.511 144.489L484 148L474.511 151.511L471 161L467.489 151.511L458 148L467.489 144.489L471 135Z" fill="#F2D97E"/>
<path d="M429.5 162L434.767 176.233L449 181.5L434.767 186.767L429.5 201L424.233 186.767L410 181.5L424.233 176.233L429.5 162Z" fill="#F2D97E"/>
</svg>
